<?xml version="1.0" encoding="utf-8"?>
<!-- Generator: Adobe Illustrator 20.1.0, SVG Export Plug-In . SVG Version: 6.00 Build 0)  -->
<svg version="1.1" id="Layer_1" xmlns="http://www.w3.org/2000/svg" xmlns:xlink="http://www.w3.org/1999/xlink" x="0px" y="0px"
	 viewBox="0 0 174 134.4" style="enable-background:new 0 0 174 134.4;" xml:space="preserve">
<style type="text/css">
	.st0{fill:#414042;}
	.st1{fill:#FABD15;}
</style>
<title>Artboard 1</title>
<path class="st0" d="M32,61.4h-6.9v23.5H12.3V18.4h21c2.8,0,5.7,0.4,8.3,1.3c2.4,0.8,4.5,2.1,6.4,3.8c1.8,1.8,3.2,3.9,4,6.3
	c1,2.8,1.5,5.7,1.4,8.7c0,2.3-0.2,4.6-0.7,6.8c-0.4,1.8-1,3.6-1.9,5.3c-0.8,1.5-1.8,2.8-2.9,3.9c-1.1,1.1-2.4,2.1-3.8,2.9l11.1,26.8
	v0.7H41.5L32,61.4z M25.1,49h8.1c2.1,0.1,4.2-0.8,5.5-2.4c1.3-1.9,2-4.3,1.8-6.6c0.1-2.4-0.5-4.8-1.9-6.7c-1.3-1.7-3.4-2.6-5.5-2.5
	h-8.1V49z"/>
<path class="st0" d="M78.3,18.4l11.9,46.3L102,18.4h16.9v66.6h-12.9V48.8l-9.5,36.2H83.9l-9.5-36.2v36.2H61.5V18.4H78.3z"/>
<path class="st0" d="M139.9,72.6h22.3v12.3h-35.2V18.4h12.8L139.9,72.6z"/>
<path class="st0" d="M13.3,116.1h-1v-9.6h3c0.8,0,1.6,0.2,2.3,0.6c0.6,0.5,0.9,1.2,0.9,1.9c0,0.6-0.2,1.2-0.6,1.7
	c-0.5,0.5-1.1,0.8-1.8,0.8l2.8,4.6h-1.2l-2.6-4.5h-1.6V116.1z M13.3,110.7H15c0.4,0,0.7,0,1.1-0.1c0.3-0.1,0.5-0.2,0.7-0.4
	c0.2-0.1,0.3-0.3,0.4-0.5c0.1-0.2,0.1-0.4,0.1-0.7c0-0.2,0-0.4-0.1-0.6c-0.1-0.2-0.2-0.4-0.4-0.5c-0.2-0.2-0.5-0.3-0.7-0.4
	c-0.4-0.1-0.7-0.1-1.1-0.1h-1.7V110.7z"/>
<path class="st0" d="M29.5,111.3c0,0.7-0.1,1.4-0.4,2c-0.5,1.2-1.4,2.2-2.6,2.6c-1.3,0.5-2.7,0.5-4,0c-1.2-0.5-2.2-1.4-2.6-2.6
	c-0.5-1.3-0.5-2.7,0-4c0.5-1.2,1.4-2.2,2.6-2.7c1.3-0.5,2.7-0.5,4,0c1.2,0.5,2.2,1.4,2.6,2.7C29.3,109.9,29.5,110.6,29.5,111.3z
	 M28.4,111.3c0-0.5-0.1-1.1-0.3-1.6c-0.2-0.5-0.4-0.9-0.8-1.3c-0.3-0.4-0.8-0.7-1.2-0.9c-1.1-0.5-2.3-0.5-3.3,0
	c-0.5,0.2-0.9,0.5-1.2,0.9c-0.3,0.4-0.6,0.8-0.8,1.3c-0.4,1-0.4,2.1,0,3.2c0.2,0.5,0.4,0.9,0.8,1.3c0.3,0.4,0.8,0.7,1.2,0.9
	c1.1,0.5,2.3,0.5,3.3,0c0.5-0.2,0.9-0.5,1.2-0.9c0.3-0.4,0.6-0.8,0.8-1.3C28.3,112.3,28.4,111.8,28.4,111.3z"/>
<path class="st0" d="M39.2,114.6c-0.2,0.3-0.4,0.5-0.6,0.7c-0.2,0.2-0.5,0.4-0.8,0.6c-0.7,0.3-1.4,0.5-2.1,0.5c-0.7,0-1.4-0.1-2-0.4
	c-1.2-0.5-2.1-1.4-2.6-2.6c-0.5-1.3-0.5-2.7,0-4c0.5-1.2,1.4-2.2,2.6-2.7c0.6-0.3,1.3-0.4,2-0.4c0.6,0,1.2,0.1,1.8,0.3
	c0.6,0.2,1.1,0.6,1.5,1.2l-0.8,0.6c-0.1-0.2-0.3-0.3-0.4-0.5c-0.2-0.2-0.4-0.3-0.6-0.4c-0.2-0.1-0.5-0.2-0.7-0.3
	c-0.2-0.1-0.5-0.1-0.8-0.1c-0.6,0-1.1,0.1-1.7,0.3c-0.5,0.2-0.9,0.5-1.2,0.9c-0.3,0.4-0.6,0.8-0.8,1.3c-0.4,1-0.4,2.1,0,3.2
	c0.2,0.5,0.4,0.9,0.8,1.3c0.3,0.4,0.8,0.7,1.2,0.9c0.5,0.2,1.1,0.3,1.7,0.3c0.3,0,0.5,0,0.8-0.1c0.3,0,0.5-0.1,0.7-0.2
	c0.2-0.1,0.5-0.3,0.7-0.4c0.2-0.2,0.4-0.4,0.6-0.7L39.2,114.6z"/>
<path class="st0" d="M41.5,110.6h0.1l4.5-4.2h1.4l-4.8,4.3l5.1,5.2h-1.4l-4.7-5h-0.2v5h-1v-9.6h1L41.5,110.6z"/>
<path class="st0" d="M52.6,116.1h-1v-4.1l-3.6-5.5h1.2l2.9,4.5l2.9-4.5h1.2l-3.6,5.5V116.1z"/>
<path class="st0" d="M65.6,114.3l3.2-7.8h1.5v9.6h-1v-8.3l0,0l-3.5,8.3h-0.5l-3.5-8.3l0,0v8.3h-1v-9.6h1.5L65.6,114.3z"/>
<path class="st0" d="M82.1,111.3c0,0.7-0.1,1.4-0.4,2c-0.5,1.2-1.5,2.2-2.7,2.7c-1.3,0.5-2.7,0.5-4,0c-1.2-0.5-2.2-1.4-2.6-2.6
	c-0.5-1.3-0.5-2.7,0-4c0.5-1.2,1.4-2.2,2.6-2.7c1.3-0.5,2.7-0.5,4,0c1.2,0.5,2.2,1.4,2.6,2.7C81.9,109.9,82,110.6,82.1,111.3z
	 M81,111.3c0-0.5-0.1-1.1-0.3-1.6c-0.2-0.5-0.4-0.9-0.8-1.3c-0.3-0.4-0.8-0.7-1.2-0.9c-1.1-0.5-2.3-0.5-3.3,0
	c-0.5,0.2-0.9,0.5-1.2,0.9c-0.3,0.4-0.6,0.8-0.8,1.3c-0.4,1-0.4,2.1,0,3.2c0.2,0.5,0.4,0.9,0.8,1.3c0.3,0.4,0.8,0.7,1.2,0.9
	c1.1,0.5,2.3,0.5,3.3,0c0.5-0.2,0.9-0.5,1.2-0.9c0.3-0.4,0.6-0.8,0.8-1.3C80.9,112.3,81,111.8,81,111.3z"/>
<path class="st0" d="M90.7,112.5c0,0.4,0,0.9-0.1,1.3c-0.1,0.4-0.3,0.9-0.6,1.2c-0.3,0.4-0.7,0.7-1.1,0.9c-1.1,0.5-2.4,0.5-3.5,0
	c-0.4-0.2-0.8-0.5-1.1-0.9c-0.3-0.4-0.4-0.8-0.5-1.2c-0.1-0.4-0.1-0.8-0.1-1.3v-6h1v5.9c0,0.4,0,0.8,0.1,1.2
	c0.1,0.3,0.2,0.6,0.4,0.8c0.1,0.2,0.3,0.4,0.5,0.5c0.2,0.1,0.4,0.2,0.6,0.3c0.2,0.1,0.4,0.1,0.5,0.1h0.4h0.4c0.2,0,0.4-0.1,0.5-0.1
	c0.2-0.1,0.4-0.2,0.6-0.3c0.2-0.1,0.4-0.3,0.5-0.5c0.2-0.3,0.3-0.5,0.4-0.8c0.1-0.4,0.1-0.8,0.1-1.2v-5.9h1L90.7,112.5z"/>
<path class="st0" d="M99.9,114.6L99.9,114.6v-8.1h1v9.6h-1.2l-5.7-8.2l0,0v8.2h-1v-9.6h1.2L99.9,114.6z"/>
<path class="st0" d="M106.3,116.1h-1v-8.7h-3.2v-0.9h7.4v0.9h-3.2L106.3,116.1z"/>
<path class="st0" d="M109.7,116.1h-1.1l4.2-9.6h0.9l4.2,9.6h-1.1l-1.1-2.5h-4.9L109.7,116.1z M111.1,112.7h4.2l-2.1-5L111.1,112.7z"
	/>
<path class="st0" d="M120,116.1h-1v-9.6h1V116.1z"/>
<path class="st0" d="M129.3,114.6L129.3,114.6v-8.1h1v9.6h-1.2l-5.7-8.2l0,0v8.2h-1v-9.6h1.2L129.3,114.6z"/>
<path class="st0" d="M137.4,115.2h4.5v0.9h-5.5v-9.6h1L137.4,115.2z"/>
<path class="st0" d="M144,116.1h-1v-9.6h1V116.1z"/>
<path class="st0" d="M153.3,114.6L153.3,114.6v-8.1h1v9.6h-1.2l-5.7-8.2l0,0v8.2h-1v-9.6h1.2L153.3,114.6z"/>
<path class="st0" d="M157.6,115.2h5.1v0.9h-6.1v-9.6h6v0.9h-5v3.3h4.6v0.9h-4.6L157.6,115.2z"/>
<rect x="12.3" y="92.9" class="st1" width="150" height="5.2"/>
</svg>
