<svg id="Layer_1" data-name="Layer 1" xmlns="http://www.w3.org/2000/svg" viewBox="0 0 174 111.23"><defs><style>.cls-1{fill:#f2ede4;}.cls-2{fill:#fabd15;}</style></defs><title>Artboard 1</title><path class="cls-1" d="M32,61.44H25.1V84.93H12.27V18.38h21a25.16,25.16,0,0,1,8.34,1.3,17.2,17.2,0,0,1,6.36,3.84,16.77,16.77,0,0,1,4,6.28,24.63,24.63,0,0,1,1.41,8.68,32,32,0,0,1-.66,6.83,20.06,20.06,0,0,1-1.88,5.26,16.15,16.15,0,0,1-2.94,3.93,20.25,20.25,0,0,1-3.8,2.9L55.19,84.24v.69H41.45ZM25.1,49h8.12a6.51,6.51,0,0,0,5.5-2.4A10.75,10.75,0,0,0,40.57,40a10.88,10.88,0,0,0-1.86-6.74,6.47,6.47,0,0,0-5.48-2.45H25.1Z"/><path class="cls-1" d="M78.32,18.38l11.88,46.3,11.85-46.3h16.89V84.93H106.08V48.77L96.55,84.93H83.87l-9.53-36.2v36.2H61.47V18.38Z"/><path class="cls-1" d="M139.94,72.59h22.34V84.93H127.1V18.38h12.83Z"/><rect class="cls-2" x="12.27" y="92.92" width="149.98" height="5.25"/></svg>