<svg id="Layer_1" data-name="Layer 1" xmlns="http://www.w3.org/2000/svg" viewBox="0 0 174 134.45"><defs><style>.cls-1{fill:#f2ede4;}.cls-2{fill:#fabd15;}</style></defs><title>Artboard 1</title><path class="cls-1" d="M32,61.44H25.1V84.93H12.27V18.38h21a25.16,25.16,0,0,1,8.34,1.3,17.2,17.2,0,0,1,6.36,3.84,16.77,16.77,0,0,1,4,6.28,24.63,24.63,0,0,1,1.41,8.68,32,32,0,0,1-.66,6.83,20.06,20.06,0,0,1-1.88,5.26,16.15,16.15,0,0,1-2.94,3.93,20.25,20.25,0,0,1-3.8,2.9L55.19,84.24v.69H41.45ZM25.1,49h8.12a6.51,6.51,0,0,0,5.5-2.4A10.75,10.75,0,0,0,40.57,40a10.88,10.88,0,0,0-1.86-6.74,6.47,6.47,0,0,0-5.48-2.45H25.1Z"/><path class="cls-1" d="M78.32,18.38l11.88,46.3,11.85-46.3h16.89V84.93H106.08V48.77L96.55,84.93H83.87l-9.53-36.2v36.2H61.47V18.38Z"/><path class="cls-1" d="M139.94,72.59h22.34V84.93H127.1V18.38h12.83Z"/><path class="cls-1" d="M13.26,116.07h-1v-9.6h3a3.77,3.77,0,0,1,2.31.64,2.26,2.26,0,0,1,.85,1.93,2.4,2.4,0,0,1-.63,1.69,2.71,2.71,0,0,1-1.82.79l2.77,4.56H17.52l-2.63-4.46H13.26Zm0-5.36H15a3.89,3.89,0,0,0,1.11-.14,2,2,0,0,0,.73-.36,1.31,1.31,0,0,0,.39-.53,1.75,1.75,0,0,0,.12-.66,1.71,1.71,0,0,0-.12-.64,1.36,1.36,0,0,0-.39-.54,1.92,1.92,0,0,0-.73-.36,4.1,4.1,0,0,0-1.11-.13H13.26Z"/><path class="cls-1" d="M29.46,111.27a5.26,5.26,0,0,1-.38,2,4.76,4.76,0,0,1-2.64,2.64,5.39,5.39,0,0,1-4,0,4.77,4.77,0,0,1-2.64-2.64,5.58,5.58,0,0,1,0-4,4.77,4.77,0,0,1,2.64-2.65,5.39,5.39,0,0,1,4,0,4.77,4.77,0,0,1,2.64,2.65A5.26,5.26,0,0,1,29.46,111.27Zm-1.06,0a4.62,4.62,0,0,0-.27-1.58,4,4,0,0,0-.78-1.32,3.77,3.77,0,0,0-1.24-.91,4.21,4.21,0,0,0-3.31,0,3.76,3.76,0,0,0-1.24.91,4,4,0,0,0-.78,1.32,4.74,4.74,0,0,0,0,3.16,4,4,0,0,0,.78,1.32,3.75,3.75,0,0,0,1.24.91,4.21,4.21,0,0,0,3.31,0,3.75,3.75,0,0,0,1.24-.91,4,4,0,0,0,.78-1.32A4.62,4.62,0,0,0,28.4,111.27Z"/><path class="cls-1" d="M39.18,114.55a3.71,3.71,0,0,1-.6.69,3.82,3.82,0,0,1-.82.56,4.63,4.63,0,0,1-2.13.51,5.14,5.14,0,0,1-2-.38A4.77,4.77,0,0,1,31,113.29a5.58,5.58,0,0,1,0-4,4.77,4.77,0,0,1,2.64-2.65,5.14,5.14,0,0,1,2-.38,4.87,4.87,0,0,1,1.79.35,3.61,3.61,0,0,1,1.53,1.17l-.85.64a2.33,2.33,0,0,0-.41-.46,2.93,2.93,0,0,0-.59-.41,3.69,3.69,0,0,0-.71-.29,2.76,2.76,0,0,0-.76-.11,3.9,3.9,0,0,0-1.65.34,3.76,3.76,0,0,0-1.24.91,4,4,0,0,0-.78,1.32,4.74,4.74,0,0,0,0,3.16,4,4,0,0,0,.78,1.32,3.75,3.75,0,0,0,1.24.91,3.89,3.89,0,0,0,1.65.34,4.22,4.22,0,0,0,.75-.07,3.13,3.13,0,0,0,.73-.23,2.78,2.78,0,0,0,.68-.44,3.26,3.26,0,0,0,.59-.7Z"/><path class="cls-1" d="M41.48,110.63h.14l4.52-4.17h1.4l-4.84,4.35,5.11,5.25H46.37l-4.72-5h-.16v5h-1v-9.6h1Z"/><path class="cls-1" d="M52.63,116.07h-1v-4.14l-3.59-5.47h1.22L52.14,111,55,106.46h1.22l-3.59,5.47Z"/><path class="cls-1" d="M65.57,114.28l3.24-7.81H70.3v9.6h-1v-8.3h0l-3.47,8.3h-.52l-3.47-8.3h0v8.3h-1v-9.6h1.49Z"/><path class="cls-1" d="M82.06,111.27a5.26,5.26,0,0,1-.38,2A4.76,4.76,0,0,1,79,115.93a5.39,5.39,0,0,1-4,0,4.77,4.77,0,0,1-2.64-2.64,5.58,5.58,0,0,1,0-4,4.77,4.77,0,0,1,2.64-2.65,5.39,5.39,0,0,1,4,0,4.77,4.77,0,0,1,2.64,2.65A5.26,5.26,0,0,1,82.06,111.27Zm-1.06,0a4.62,4.62,0,0,0-.27-1.58,4,4,0,0,0-.78-1.32,3.77,3.77,0,0,0-1.24-.91,4.21,4.21,0,0,0-3.31,0,3.76,3.76,0,0,0-1.24.91,4,4,0,0,0-.78,1.32,4.74,4.74,0,0,0,0,3.16,4,4,0,0,0,.78,1.32,3.75,3.75,0,0,0,1.24.91,4.21,4.21,0,0,0,3.31,0,3.75,3.75,0,0,0,1.24-.91,4,4,0,0,0,.78-1.32A4.62,4.62,0,0,0,81,111.27Z"/><path class="cls-1" d="M90.69,112.49a6.11,6.11,0,0,1-.14,1.27A3.41,3.41,0,0,1,90,115a3.05,3.05,0,0,1-1.08.94,4.34,4.34,0,0,1-3.52,0,3.06,3.06,0,0,1-1.07-.94,3.41,3.41,0,0,1-.54-1.24,6.14,6.14,0,0,1-.14-1.27v-6h1v5.92a4.54,4.54,0,0,0,.14,1.19,2.91,2.91,0,0,0,.36.83,2,2,0,0,0,.5.54,2.58,2.58,0,0,0,.56.31,2.3,2.3,0,0,0,.54.14l.45,0,.44,0a2.29,2.29,0,0,0,.54-.14,2.59,2.59,0,0,0,.56-.31,2,2,0,0,0,.5-.54,2.91,2.91,0,0,0,.36-.83,4.54,4.54,0,0,0,.14-1.19v-5.92h1Z"/><path class="cls-1" d="M99.88,114.6h0v-8.14h1v9.6H99.66l-5.72-8.22h0v8.22h-1v-9.6h1.22Z"/><path class="cls-1" d="M106.34,116.07h-1v-8.71h-3.21v-.9h7.41v.9h-3.21Z"/><path class="cls-1" d="M109.69,116.07h-1.14l4.18-9.6h.95l4.18,9.6h-1.14l-1.06-2.52h-4.91Zm1.42-3.42h4.16l-2.08-5Z"/><path class="cls-1" d="M120,116.07h-1v-9.6h1Z"/><path class="cls-1" d="M129.29,114.6h0v-8.14h1v9.6h-1.22l-5.72-8.22h0v8.22h-1v-9.6h1.22Z"/><path class="cls-1" d="M137.38,115.17h4.48v.9H136.4v-9.6h1Z"/><path class="cls-1" d="M144,116.07h-1v-9.6h1Z"/><path class="cls-1" d="M153.31,114.6h0v-8.14h1v9.6h-1.22l-5.72-8.22h0v8.22h-1v-9.6h1.22Z"/><path class="cls-1" d="M157.63,115.17h5.14v.9h-6.12v-9.6h6v.9h-5v3.27h4.65v.9h-4.65Z"/><rect class="cls-2" x="12.27" y="92.92" width="149.98" height="5.25"/></svg>