<?xml version="1.0" encoding="utf-8"?>
<!-- Generator: Adobe Illustrator 20.1.0, SVG Export Plug-In . SVG Version: 6.00 Build 0)  -->
<svg version="1.1" id="Layer_1" xmlns="http://www.w3.org/2000/svg" xmlns:xlink="http://www.w3.org/1999/xlink" x="0px" y="0px"
	 viewBox="0 0 174 111.2" style="enable-background:new 0 0 174 111.2;" xml:space="preserve">
<style type="text/css">
	.st0{fill:#414042;}
	.st1{fill:#FABD15;}
</style>
<title>Artboard 1</title>
<path class="st0" d="M32,61.4h-6.9v23.5H12.3V18.4h21c2.8,0,5.7,0.4,8.3,1.3c2.4,0.8,4.5,2.1,6.4,3.8c1.8,1.8,3.2,3.9,4,6.3
	c1,2.8,1.5,5.7,1.4,8.7c0,2.3-0.2,4.6-0.7,6.8c-0.4,1.8-1,3.6-1.9,5.3c-0.8,1.5-1.8,2.8-2.9,3.9c-1.1,1.1-2.4,2.1-3.8,2.9l11.1,26.8
	v0.7H41.5L32,61.4z M25.1,49h8.1c2.1,0.1,4.2-0.8,5.5-2.4c1.3-1.9,2-4.3,1.8-6.6c0.1-2.4-0.5-4.8-1.9-6.7c-1.3-1.7-3.4-2.6-5.5-2.5
	h-8.1V49z"/>
<path class="st0" d="M78.3,18.4l11.9,46.3L102,18.4h16.9v66.6h-12.9V48.8l-9.5,36.2H83.9l-9.5-36.2v36.2H61.5V18.4H78.3z"/>
<path class="st0" d="M139.9,72.6h22.3v12.3h-35.2V18.4h12.8L139.9,72.6z"/>
<rect x="12.3" y="92.9" class="st1" width="150" height="5.2"/>
</svg>
