<svg id="Layer_1" data-name="Layer 1" xmlns="http://www.w3.org/2000/svg" viewBox="0 0 40 40"><defs><style>.cls-1{fill:#f8bc18;}.cls-2{fill:#424142;}</style></defs><title>Artboard 6 copy 4</title><ellipse class="cls-1" cx="21.2" cy="11.06" rx="2.25" ry="0.77"/><ellipse class="cls-1" cx="12.7" cy="20.92" rx="1.18" ry="0.34"/><ellipse class="cls-1" cx="17.38" cy="16.94" rx="1.66" ry="0.47"/><path class="cls-2" d="M27.64,26.24V9.89h0v-.4l-2.41-.17-1.49-.39h-5V11h0c.12.69,1.15,1.2,2.5,1.2s2.38-.51,2.5-1.2h0v-.1h2.32V26.24l-.55,1.47v3.36h2.68V27.71ZM21.23,11.65A2.33,2.33,0,0,1,19.31,11h3.84A2.33,2.33,0,0,1,21.23,11.65Z"/><rect class="cls-1" x="20.82" y="13.01" width="0.68" height="2.24"/><rect class="cls-1" x="23.52" y="12.3" width="0.68" height="2.24" transform="translate(0.31 27.38) rotate(-60)"/><rect class="cls-1" x="17.34" y="13.08" width="2.24" height="0.68" transform="translate(-4.24 11.03) rotate(-30)"/><path class="cls-2" d="M21.9,16.16h0v-.28l-1.7-.12-1-.28H15.62v1.46h0c.08.49.81.85,1.76.85s1.68-.36,1.76-.85h0v-.07h1.63v10.8l-.39,1v2.37h1.89V28.7l-.39-1ZM17.38,17.4A1.64,1.64,0,0,1,16,16.94h2.7A1.64,1.64,0,0,1,17.38,17.4Z"/><rect class="cls-1" x="17.1" y="18.36" width="0.48" height="1.58"/><rect class="cls-1" x="19" y="17.85" width="0.48" height="1.58" transform="translate(-6.53 25.98) rotate(-60)"/><rect class="cls-1" x="14.64" y="18.4" width="1.58" height="0.48" transform="translate(-7.25 10.21) rotate(-30)"/><path class="cls-2" d="M15.86,20.32h0v-.2L14.64,20l-.75-.2H11.33v1.05h0c.06.35.58.61,1.27.61s1.21-.26,1.27-.61h0v-.05h1.18v7.79l-.28.75v1.71h1.36V29.36l-.28-.75Zm-3.25.89a1.18,1.18,0,0,1-1-.33h1.95A1.18,1.18,0,0,1,12.61,21.21Z"/><rect class="cls-1" x="12.4" y="21.9" width="0.34" height="1.14"/><rect class="cls-1" x="13.77" y="21.54" width="0.34" height="1.14" transform="translate(-12.18 23.13) rotate(-60)"/><rect class="cls-1" x="10.63" y="21.94" width="1.14" height="0.34" transform="translate(-9.55 8.56) rotate(-30)"/></svg>