<svg id="Layer_1" data-name="Layer 1" xmlns="http://www.w3.org/2000/svg" viewBox="0 0 100 66"><defs><style>.cls-1{fill:#f8bc18;}.cls-2{fill:#424142;}</style></defs><title>Artboard 1 copy 4</title><ellipse class="cls-1" cx="50.04" cy="17.92" rx="4.64" ry="1.58"/><ellipse class="cls-1" cx="32.52" cy="38.21" rx="2.44" ry="0.71"/><ellipse class="cls-1" cx="42.17" cy="30.02" rx="3.43" ry="0.97"/><path class="cls-2" d="M63.29,49.16V15.51h0v-.82l-5-.36-3.06-.81H44.93V17.8h0c.24,1.43,2.37,2.47,5.15,2.47s4.91-1,5.15-2.47h0v-.21H60V49.16l-1.13,3v6.92h5.52V52.19Zm-13.2-30c-2.17,0-3.62-.71-4-1.33H54C53.71,18.42,52.27,19.13,50.09,19.13Z"/><rect class="cls-1" x="49.25" y="21.93" width="1.4" height="4.62"/><rect class="cls-1" x="54.81" y="20.46" width="1.4" height="4.62" transform="translate(8.03 59.46) rotate(-60)"/><rect class="cls-1" x="42.07" y="22.08" width="4.62" height="1.4" transform="translate(-5.44 25.24) rotate(-30)"/><path class="cls-2" d="M51.47,28.41h0v-.58L48,27.58,45.81,27H38.53v3h0c.17,1,1.67,1.74,3.62,1.74S45.63,31,45.8,30h0v-.15h3.36V52.11l-.8,2.14v4.87h3.89V54.24l-.8-2.14ZM42.17,31c-1.53,0-2.55-.5-2.78-.94H45C44.72,30.46,43.7,31,42.17,31Z"/><rect class="cls-1" x="41.58" y="32.93" width="0.98" height="3.25"/><rect class="cls-1" x="45.5" y="31.9" width="0.98" height="3.25" transform="translate(-6.04 56.59) rotate(-60)"/><rect class="cls-1" x="36.52" y="33.03" width="3.25" height="0.98" transform="translate(-11.65 23.57) rotate(-30)"/><path class="cls-2" d="M39,37h0v-.42l-2.52-.18L35,36H29.71v2.17h0c.12.72,1.2,1.26,2.61,1.26s2.49-.53,2.61-1.26h0V38h2.42v16l-.58,1.54v3.51h2.8V55.6L39,54.06Zm-6.7,1.84a2.44,2.44,0,0,1-2-.68h4A2.44,2.44,0,0,1,32.33,38.81Z"/><rect class="cls-1" x="31.9" y="40.23" width="0.71" height="2.34"/><rect class="cls-1" x="34.73" y="39.49" width="0.71" height="2.34" transform="translate(-17.67 50.72) rotate(-60)"/><rect class="cls-1" x="28.26" y="40.31" width="2.34" height="0.71" transform="translate(-16.39 20.16) rotate(-30)"/></svg>