<svg id="Layer_1" data-name="Layer 1" xmlns="http://www.w3.org/2000/svg" viewBox="0 0 200 200"><defs><style>.cls-1{fill:#f8bb16;}.cls-2{fill:#242b32;}.cls-3{fill:#0c0b0a;}.cls-4{fill:#b7b7b7;}.cls-5{fill:#4e4e4e;}.cls-6{fill:#fdfdfd;}</style></defs><title>icons</title><path class="cls-1" d="M179.6,131c-.08,1,1,1.7.83,3-2.12-.59-4.19-1.15-6.25-1.73-1-.29-1.09-1.28-1.37-2-.37-1-.9-1.47-1.9-.88a2.08,2.08,0,0,1-2.38-.23c-4.72-2.73-9.54-5.28-14.07-8.3,1.62-3,4.27-5,6.77-7.16.85,1.12,1.4,2.53,2.9,3.05.09,1.28,1.21,1.61,2.07,2.19-.16,1.19,2,4.07,3.13,4.08.23,0,.57.06.55-.27s-.09-.93-.27-1c-1.5-.47-1.61-2-2.53-2.94,0-1.24-1.13-1.73-1.66-2.62L165,116l0-.11-.09-.08c.28-.68-.5-1.17-.4-1.9a6.27,6.27,0,0,1,2.08,1.17c1.59,1.06,2,3.08,3.56,4.09.73.6.73,1.82,1.84,2.08.48.11,1,.23,1.32-.29s-.35-.58-.59-.85c-.47-.53-1.23-.8-1.45-1.56-1.69-2.88-3.74-5.4-7.39-6.55,3.73-1.9,6,.37,8.4,2.29-.22-2-2.06-2.3-2.83-3.58,3.9.19,5.19.65,7.76,2.74.28,1.11,1.91,1.49,1.65,2.83-.08.4-.25.67.18.87s.82-.09,1.15-.37.52-.66.17-.94c-1.06-.86-1.32-2.37-2.59-3-.67-.45-.67-1.38-1.47-1.82a12.93,12.93,0,0,0-7.91-1.6c-6.67.78-12,3.64-15.24,9.6a1.54,1.54,0,0,1-1.64.93c-3.47-.34-2.82-.21-2.46,2.29-1.27.54-2.39.45-3.27-1.2-.14,1.5.16,3-.44,3.58-1.28,1.26-.08,1.37.51,1.86-.38.59-.13,1.43-.77,1.91-.82-.34-1.42-1.25-2.5-.95h0c-.07-.29-.27-.34-.53-.28-.19-.18-.3-.51-.67-.37-.38-.53.37-.58.41-.94.37-.06.75-.08.91-.74H129.49l-1.64,0h-4.55c.48,1.79,1.21,3,3.26,2.06a2.83,2.83,0,0,1,.91-.07l1,.79a48.67,48.67,0,0,1-4.34,5.23c-.19.24-.54.26-.55.73-.07,1.89-1.33,3.51-1.38,5.43,0,.59-.55.75-1.06.84-1.16,0-2.5-.77-3.41.46a3.25,3.25,0,0,1-4.39.4c.2-.13.48-.21.59-.39,1.18-1.91.39-6.36-1.4-7.92,0,0-.12,0-.18,0l.06,0h-4.19c.11.86,1,.83,1,1.45-.41.35-1.44-.36-1.39.78v1.83a2.46,2.46,0,0,0,0,1.5v2.89c-1.31,1.6-2.91.74-4.44.52,0-2.05.2-4.13-.68-6.09-.19-.41,0-.71.21-1.12,1.11-2.11.51-3.24-1.79-3.7-.41-.08-.81-.21-1.21-.32a.76.76,0,0,1,.28-.81l2.72,0,.49-.09h.53a.52.52,0,0,0,0,.18c0,.05.08.14.1.14,1.14-.23,2.37-.2,3.44-1.11h-4.56c-1.21-1.34-2.1-2.73-1.56-4.68.39-1.45-.51-2.38-2.08-2.37-2.61,0-5.23.1-7.84,0-1.18,0-1.76.25-1.54,1.5s-.41,1.51-1.5,1.4a8.37,8.37,0,0,0-1.3.07l-7.59.15a6.25,6.25,0,0,0-3.7.39l.62.84c-1.36.43-1.22,1.5-1.14,2.55.14,1.81.25,3.63.37,5.44a36.61,36.61,0,0,0,.27-5.26c0-1,.62-1.51,1.57-1.75s2.13-.64,3,.1-.36,1.37-.42,2.09a4.9,4.9,0,0,0,0,.55l-.5.56a1.77,1.77,0,0,0-.9,1.58,5.32,5.32,0,0,0-2.11,3.32,2.35,2.35,0,0,0-1,2.66l0,.65a2.84,2.84,0,0,0,.23,2l0,.73a1.11,1.11,0,0,0-.29.19c-2-2.29-4.68-1.51-7.18-1.81-1.53-.18-3.39-.07-4.41-1.72.1-.66.3-1.35-.52-1.75-.55-.28-1-.23-1.12.43l-1.3-1c-.32-.82-.68-1.63-1.8-1.45a10.44,10.44,0,0,0-3.21.69,105.47,105.47,0,0,0-11.82,1.88l-.8.1-.69.06-2.63.47-.78.13a1.55,1.55,0,0,0-1.14.2l-.36.07a16.19,16.19,0,0,0-4.86.78l-1.11.11c-4.38.68-8.82,1-13.13,2.11l-.37,0-1.43.32-.45-.28a3.76,3.76,0,0,0-2.23.66h0c-.74.14-1.54-.21-2.25.23C10,141.1,9,140,9.26,137.94a5.28,5.28,0,0,1,1.19-2.41l.76-.54.68-.2a5.76,5.76,0,0,0,2.61-.27l3.43-.4a5.31,5.31,0,0,0,2.6-.3c2.38-.17,4.79-.07,7.08-.87l1.12,0c2.13.15,4.21-.37,6.33-.48l7.94-.73c1.66-.27,3.36-.12,5-.61l.93,0a9.55,9.55,0,0,0,3.36-.35h0c1.68-.19,3.54.32,4.88-1.19a.6.6,0,0,0,.49-.57h0l1-.85,1.16.44c-.08.57-.09,1.21.6,1.32s.57-.72.67-1a8.29,8.29,0,0,0,.56-3.29c.31-2.12.26-2.18-1.83-2.06-2.09.76-4.37,0-6.47.77-5.17,0-10.31.63-15.46,1-10.06.81-20.11,1.7-30.17,2.5-.58,0-1.7.73-1.75-.53s1.13-.73,1.76-.79c8.43-.81,16.9-1.37,25.3-2.39s16.61-1.43,24.91-2.15c.66-.06,1.43-.16,1.41-.88-.07-1.89,1.5-3.18,1.68-5,0-.43.26-.9.78-.89s.54.45.71.77c.06.11.13.21.18.32.37.73.37,2.21,1.1,2.06a4.69,4.69,0,0,0,2.79-2c1.24-1.82,2.54-3.6,3.83-5.39.34-.47.59-1.18,1.43-.74.08.18.16.16.26,0a2.81,2.81,0,0,0,.11-1.6s.1-.09.1-.12a1.62,1.62,0,0,0-.1-.28l0-1.21c.19-.22.5-.65.56-.62,1.7.87,3.48.16,5.21.29,2.45.2,2.51.07,2.06-2.32l1.25.58c0,.56-.65,1.38.79,1.13s2.81-.23,3.77,1.1c-2.42.78-4.92.25-7.38.38a6.25,6.25,0,0,0-2.37.29c-.38.17-.68.36-.49.81s.57.4.95.25c.48,1,1.06,1.66,2.34,1.24a8.14,8.14,0,0,1,1.82-.17,1.52,1.52,0,0,0,1.4-.22c.84.6,1.79.12,2.68.28a1.32,1.32,0,0,0,1.24-1.7c.39-.06.71,1.08,1.19,0,.37-.84-.16-.71-.62-.81a2.74,2.74,0,0,1-.63-.32c1.21-1.42,2.57-.36,3.88-.24q.1,1.65.21,3.3a3.17,3.17,0,0,0-.35,2.23c.06.47.07,1,.69,1.12s1.13.13,1.29-.62l1.26-.05.94,0,.64,0,.81.06a3.43,3.43,0,0,0,4.47-.13l2.7,0,.9.17.15,1.93c-3.89-.26-7.79-.55-11.68-.76-2.43-.13-2.63.2-1.82,2.54l-.31.35c0,.86-.53,2,1.09,2.1,1.32.22,2.8,0,3.8,1.21l.14,0,.14,0,.76.09c.94.31.94.31,2-1.37,1.12,0,2.24,0,3.36,0,1.29,0,3.08.52,2.37-1.95l.32,2.55,0,1.15a.24.24,0,0,0,0,.27c-.6,1.06-.19,2.26-.5,3.38-.18.64.47,1.07,1.17,1.12a17.61,17.61,0,0,0,2.4,0c.85-.07,1.26.27,1.35,1.06.11.39-.09,1,.61,1,.32.61.91.55,1.45.53s.71.08.52.58c-.46,0-.92-.06-1.16.46-.82,0-1.81-.37-2,.92,0,.33-.06.74.44.86,1.36.34,1-1,1.54-1.5l.5,0c.89.67,1.05-.16,1.37-.65.67,0,1.4.32,1.9-.41,1.46-.21,2.92-.43,4.38-.61a1.94,1.94,0,0,0,1.73-1.42c.45-1.4,1.93-2.19,2.24-3.68,1.4-.77-.09-1.59,0-2.38-1.23-.66-2.35-1.37-2-3,.1-.5-.31-.73-.63-1,.67-2.6,1.05-5.2.07-7.81,0-.91-.09-1.81-.15-2.72s.53-.95,1.2-.9a3.93,3.93,0,0,0,3.65,1.75l17.2.08c1.22,0,2.47.36,3.64-.26l.49.42-.07,0h.06l.67,1.06c-.71,3.49-.19,7-.24,10.51,0,.73.53.68.93.13l0,0c.35.07.49-.13.56-.42v.06c.54-.22.31-.43,0-.64.26-.94-.2-1.95.3-2.86.48.82.78.1,1.1-.15a49,49,0,0,0,5-4.65c1.57-1.62,2.66-1.63,4.44-.1.27.23.5.72.9.45,1.91-1.27,4.7-.55,6.17-3.19,1-1.72,3.05-2.47,5.53-2a94.79,94.79,0,0,0,11.87,1.2,3.84,3.84,0,0,1,3.86,2.49,68.13,68.13,0,0,0,2.65,7.15c.85,2.66.74,5.43.91,8.17l-.52.12c-.37,1.9-1.65,2-3.22,1.6-.64-.17-1.29-.32-1.94-.47-1.93-1.07-3.6-1.45-5.55.39-1,.94-1.21,1.16-.49,2.26s1.63,1.38,2.54.55a6.93,6.93,0,0,1,3.38-1.52c.19.41.53.79.17,1.27-1.63.5-3,1.73-4.83,1.73-.09,0,.24.25.43.32ZM120,116.11,120,116l.07.1c.38.25.54.82,1.19.79C120.87,116.48,120.58,116.1,120,116.11Zm17.53,4.75-.84-.71c.85-.59,0-1.28,0-1.91s.48-2.23-.32-2.21c-1.33,0-.62,1.52-.57,2.2.11,1.82-.64,1.87-2.06,1.46-3.15-.9-6.32-1.73-9.49-2.56-2-.53-2-.51-1.59,1.62-.45,1.15.4,1.19,1.16,1.3,2.58.38,5.17.78,7.76,1.13.48.06,1.13.46,1.41-.36a2.41,2.41,0,0,0,1.85.37h0c.73,1.14,1.81,1,2.9.73l.41-.36C138.75,120.64,137.92,121,137.56,120.86Zm-68.76-3.3c-.37,0-.4.29-.39.57l.32.54.51,1.44,0,1.83c-.29.78.21,1.44.34,2.16.22,1,1.34.92,1.88,1.53-.39.42-1,.73-.71,1.46s.91.46,1.41.51a9.73,9.73,0,0,0,1.46-.07c.08.07.22.21.24.2.24-.17.09-.27-.09-.36.08-.72,0-1.35-.82-1.65,1.3-.33.57-1,.25-1.56l0-.49a3.65,3.65,0,0,0,0-2.36c0-.64.37-1.64-.19-1.81-1.52-.46-.62-1.46-.75-2.22.41-1,.15-2.06.26-3.09.09-.85-.45-1-1.09-1.16l-.18-.72-.24.6a1.43,1.43,0,0,0-.31,1.27l-.44,1.11a2.46,2.46,0,0,0-1.42,2.28Zm3.08,18.34c-1.39-1.07-3-.51-4.6-.64l1.17.8c-.89,1.22-.67,1.82,1,1.84C72.37,137.94,72.48,137.89,71.88,135.9Zm-5.37-4.52c-1.24.35-2,1-1.47,2.38.17.46.69.89-.07,1.4s-.26,1.22-.15,1.84a.4.4,0,0,0,.58.27c.52-.32.53-.91.64-1.44.25-1.22.38-2.57,2.21-2.39a29.2,29.2,0,0,0,5.51-1.59c.87-.37.68-1.05.66-1.7s-.47-.6-.92-.49Zm13.38-12c-.81,0-.81-.45-.63-1.12s.44-.76.9-.63a4.22,4.22,0,0,0,1.75,0c.49-.06,1.21.35,1.23-.54s-.54-1-1.26-1c-1.61.05-3.48-.39-4.74.28-.88.47-.48,2.47-.27,3.81,0,.16-.12.34-.11.52,0,.55.21.95.86,1a3.77,3.77,0,0,0,2.34-.35c.85.51,1.69.27,2.74.11-.62-.85-1.08-1.54-1.6-2.18S80.26,118.87,79.9,119.36Zm53.65-9.69c.88,1.19.9,1.21,1.86.43.31-.25.47-.26.74,0,1.48,1.35,3.28.45,4.92.64.82.1.74-.78.79-1.21s-.54-.22-.84-.31c-1.16-.37-2.24.71-3.26.29-2-.81-3.94.1-5.88-.37-1.13-.27-.92.61-.71,1.06s1,.62,1.63.67C133.84,111,133,110,133.55,109.67Zm53.57,9.9c.37-.3,1-.5.94-1.27,0-.55-.31-1-.92-.9a1.2,1.2,0,0,0-1.1,1.26C186,119.24,186.37,119.54,187.12,119.57Zm-101.17-.71c.13-.76-.36-.91-1-.89s-1.21,0-1.09.8c.08.61.26,1.23,1.11,1.08C85.48,119.76,86.14,119.72,85.94,118.86Zm33.43,12.49c.92.3,1.31-.5,1.89-.89.29-.2.7-.48.37-.88s-.66,0-.9.22C120.28,130.28,119.86,130.8,119.38,131.35Zm-14,2.37c.21-.34,1,.34,1-.5a.84.84,0,0,0-1-.95c-.56,0-1.19,0-1.27.72C104,133.87,104.73,133.63,105.33,133.73Zm-23-22.39v.23h5.88v-.23Zm-16.26,19.2a3.73,3.73,0,0,0,2.69-1.64A4.58,4.58,0,0,0,66.08,130.54ZM170.86,107.9c0-.55-.36-.74-.85-.7s-.57.37-.55.77.32.75.84.69S170.88,108.31,170.86,107.9ZM75.38,125.34a.26.26,0,0,0-.27-.35.52.52,0,0,0-.32.36c0,.13.09.4.18.41C75.25,125.8,75.33,125.55,75.38,125.34Z"/><path class="cls-2" d="M98,150.84c-.07-.78,1.52-1.37.68-1.92a2,2,0,0,1-1-2.23c-.73.73-1.58,1.21-1.94,2.14a2.69,2.69,0,0,0-1.54.54,10.13,10.13,0,0,1-9.95-.07c-.54-.28-.94-.84-1.63-.82h0a1.15,1.15,0,0,0-.75-.75c0-.43-.13-.84-.65-.94a.24.24,0,0,0-.31.31c.11.5.52.6,1,.63v.84a.56.56,0,0,1,0,.28c-.88,0-1.77-1.69-2.64,0l-.61-.4-.13-.57a4.73,4.73,0,0,1,.74-4.2,5.7,5.7,0,0,1-2.59.36l-.41-.71c.74-.5.23-1.37.63-2,.23-.35,1.05-.64.57-1.13s-1.13,0-1.65.3a2.83,2.83,0,0,1-.23-2c.37.19.87.57,1-.07a4.24,4.24,0,0,1,1.52-2.29c.63-.53-.41-.46-.77-.58a1.77,1.77,0,0,0,.39-1.19c.25-1.19,1.38-1.3,2.23-1.66.58-.25,1.45-.52,1.49-.94.14-1.66,1.43-1.55,2.49-1.84.47-.13,1.25-.17,1.35-.44.64-1.7,2-1.23,3.27-1.25.35-.16.21-.31,0-.46l0-.08v-.92c1-.12,2-1.23,3,0l.41.76c-.49,0-1,0-1.47,0-.31,0-.73.1-.6.47.34,1,1.34,1.36,2.08,2a.89.89,0,0,0,.83-.06c.38-.75-.35-1.16-.64-1.72a3.5,3.5,0,0,1-.2-.68c1.21.16,1.44,1.4,2.27,2a1,1,0,0,1,.2,1.36c-.39.57-.88.12-1.33,0a11.84,11.84,0,0,0-4.18-.72c-.42,0-1-.06-.95.57s.5.5.86.46a11.52,11.52,0,0,1,5.08,1c.63.23,1.25.36,1.41-.56h0c2.93,1.33,4.43,3.75,5.21,6.69.17.62.07,1.46,1.16,1.19.36-.09.87-.27.93.17s-.16,1.24-.4,1.3c-2,.46-1.19,2-1.29,3.15,0,.27,1.13.6-.15.82A2.11,2.11,0,0,0,99.48,148c.26.37.26-.12.34-.26m15.74,4.72c-.06-.32-.19-.59-.56-.63m12.57-2.29a1.14,1.14,0,0,1,1.06.86m-37.78-4.32a6.67,6.67,0,0,0,3.06-2.32c.64-.93,2-.45,2.46-1.45s-.41-6.55-1.42-7.2c-2.6-1.69-5.38-2.79-8.55-1.56a7.25,7.25,0,0,0-4.5,6.75c0,1.26-.65,3.49,2.26,2.79.5-.12,1,.65,1.09,1.32-.63.5-.34,1,.09,1.39C86.35,146.79,89.51,146.95,90.86,146.08Zm7.85-1.46c-.18.48-.81.85-.42,1.6C98.84,145.71,99.19,145.29,98.71,144.61Z"/><path class="cls-2" d="M145.11,128.32c.64-.49.39-1.32.77-1.91H147c0,.35.21.8.05,1-1,1.43-.09,2.33.83,3.26a1.86,1.86,0,0,1,.25.47l.37.39h0c.22,2.35.28,4.73,1.43,6.92a2.9,2.9,0,0,1,.1,1.44c-.07,1.1.44,1.59,1.53,1.54l-.08.75c-1.82-.44-1.48,1.12-1.9,2-.55,1.11,0,1.4,1,1.35l-1.68,2.92c-.59.16-1.72-.37-1.67.48.07,1.14,1.5.53,2.29,1.09a13,13,0,0,0-4.93,1.54c-1.26.55-1.76,2-3.21,2.12l-.72-.05c.1-.21.14-.48.31-.62.45-.38,1.64-.24,1.29-1.12s-1.34-.15-2-.07c-1.52.21-.18,1.22-.4,1.83a1.19,1.19,0,0,1-1.08,0,2.9,2.9,0,0,0-3.28-1.81c-2,.31-2,.44-2.17-1.64,3.76,1.48,6.38,1.59,8.2.36-.09-.07-.19-.22-.26-.21a10.82,10.82,0,0,1-8.53-1.48c-.72-.46-1.28,0-1.69.57-.26.39-.06,1-.67,1.22l-.59-.28a5.59,5.59,0,0,0-2.26-4.88l-.42-3.65c-.61-.41-.65,1-1.22.26-.36-.43.07-.79.27-1.14.06-.1.18-.17.24-.27.43-.72,1-1.68.48-2.28-.71-.79-1.38.21-2,.62a2.49,2.49,0,0,1-.69.2h0a9.36,9.36,0,0,0,.75-4.05c.32,0,.62,0,.73-.38h0c.89-.52,2.1-.49,2.74-1.42.28-.4.87-.85.29-1.43s-1.08-.15-1.52.3c-.58-.82-.28-1.29.62-1.53.3.49.8.39,1.25.42,1,.25,2.18,1.11,3-.38,1.25,0,2.61.32,3.37-1.11l1.47-.36c1.06.41,2.14,1,3-.35a.76.76,0,0,0,.38-.74h1.13c.17.64.17,1.42.77,1.79,1.77,1.09,3.59,2.08,5.44,3.14A3.85,3.85,0,0,0,146,130,2,2,0,0,1,145.11,128.32Zm-3,16.82c.39-.17.19-.3,0-.44.85-.66,1.2-2,2.44-2.07,1.84-.13,2-1.64,1.95-2.69a7.94,7.94,0,0,0-7.24-6.92,8.26,8.26,0,0,0-7.85,6.13c-.37,1.85-.7,4.23,1.1,5.25s4,1.39,5.93,2.18c1,.09,1.9.16,2.58-.72h0l.38-.37h0c.33,0,.62,0,.75-.37Zm.12,5.32c.91-.33,1.62-.32,1.62-1.3C143.52,149.71,142.67,149.39,142.23,150.46Z"/><path class="cls-3" d="M108.07,126.79c-.09-.8-.51-1.13-1.35-1.06a17.61,17.61,0,0,1-2.4,0c-.7,0-1.35-.48-1.17-1.12.32-1.12-.1-2.32.5-3.38,0,0,.12-.06.11-.07a1.5,1.5,0,0,0-.09-.21l0-1.15c.77-1.61.26-3.18-.11-4.76q-.07-1-.14-1.93c-.23-.41-.56-.3-.9-.17l-2.7,0-1.52-.19c.62-.6,1.41-.32,2.12-.33,1.64,0,3.28,0,4.93,0a44.12,44.12,0,0,0-6.84-.37.85.85,0,0,0-1,.65c-.7.29-1.54-.16-2.19.39l-.81-.06c-.22-.25-.44-.29-.64,0l-.93,0c-.67-.5-1.44-.23-2.17-.23l-.24-.37c.72-.05,1.63.15,1.45-1.07a17.09,17.09,0,0,1-.28-3.79c0-.83,0-2.29-.26-2.38-1.6-.46-2.21-2.38-4-2.42a1.88,1.88,0,0,1,.38-1.39l.59-.61,0,.08c.56.9,1.51.43,2.27.61a.8.8,0,0,1,0,.23c.24.65-.06,1.52.82,1.9a1.06,1.06,0,0,1,1.21.43l-.06,1.69c0,.4.07.71.54.76a.78.78,0,0,0,1-.61l2.55-.09c.11.62-.21,1.32.37,1.84l-.08,2.51-2.5.14,0,.24,2.5.11.28.57.62-.57c3-.24,6,.2,8.91-.51a37.34,37.34,0,0,0-8.88,0q0-.87,0-1.73c.59-.82.13-1.75.3-2.61h9.34c.34.09.93,0,.95.4.08,1.68.49,3.54-.11,5-.43,1,.48,1.3.3,2-.1.38.58.37.88.22a14.77,14.77,0,0,0,1.5-.93c-1.59-1.2-.16-2.72-.44-4.05,1.14.37,1.31-1,2.15-1.17.22,1.77.1,1.47,1.63.85,1.1-.45.87-1.47,1.6-1.92l.1.6c-.19.17-.16.33,0,.49a7.74,7.74,0,0,1,0,2.37c-.87,2.8.52,4.6,2.57,6.17l.16.61c.32.27.72.5.63,1-.32,1.66.8,2.38,2,3-.28,1.21-1.93.77-2.45,1.77.82.6,1.85-.41,2.42.61-.31,1.48-1.78,2.28-2.24,3.68-1.2.14-1-1.23-1.81-1.58l-.51-1-2.44-3.7a26,26,0,0,0-.25,5.39c-.77.13-1.59.11-2.12.83A3.49,3.49,0,0,0,108.07,126.79Zm1.82-4.18c.59.71,1.45.76,1.75,0s.8-2-.85-2.16a9,9,0,0,0-.32-1.78c-.19-.49-.71-1.1-1.25-.56-.93.94-1.94,2-1.7,3.47S109.11,122.27,109.9,122.61Zm7.76-1.33a5.08,5.08,0,0,0-2.07-6.88c-.89-.4-.92-.06-1.07.73C113.95,118,116,119.53,117.66,121.29Zm-10.13-4.38c0-.45-.61-.35-1-.5s-.65.26-.73.57c-.17.65.32.84.83.91S107.43,117.7,107.53,116.9Zm-8.36-8.82,0,.18h7.72v-.18Zm5.39,5.72a15,15,0,0,1,4.09.57C106.87,113,105.77,112.85,104.56,113.81Z"/><path class="cls-3" d="M147,126.4h-1.09c-.59-.49-1.79-.6-.51-1.86.6-.59.29-2.08.44-3.58.89,1.65,2,1.75,3.27,1.2,1.31-.25,2.38-.76,2.46-2.29a1.54,1.54,0,0,0,1.64-.93c3.28-6,8.57-8.82,15.24-9.6a12.93,12.93,0,0,1,7.91,1.6c.8.44.8,1.36,1.47,1.82l-.57.64c-2.56-2.09-3.85-2.55-7.76-2.74.77,1.28,2.61,1.6,2.83,3.58-2.45-1.92-4.67-4.19-8.4-2.29,3.65,1.15,5.69,3.67,7.39,6.55l-1.12.62c-1.6-1-2-3-3.56-4.09a6.27,6.27,0,0,0-2.08-1.17c-.1.73.68,1.22.4,1.9l-.21.15.26,0,.44.17a1.74,1.74,0,0,1-1.16.28c0-1-.78-1.73-1.25-2.54a1.06,1.06,0,0,0-1.79-.24c-2.5,2.16-5.15,4.19-6.77,7.16a4,4,0,0,0-1.52,2.22A25,25,0,0,1,147,126.4Z"/><path class="cls-3" d="M190.35,128.57l1.19,10.58c.08.7-.07,1.47,1.18,1.28.46-.07.83.4.38,1.15-1.34,2.26-3.4,3.8-5.28,5.53-.32.29-.61.76-1,.64s-.35-.73-.4-1.12q-.85-7.57-1.67-15.15C186.19,129.79,188.42,129.45,190.35,128.57Zm-1,14c1.06-.17,1.84-.19,2.1-1.13,0-.12-.17-.42-.26-.42C190.23,141,190,141.78,189.31,142.58Z"/><path class="cls-2" d="M44.09,136.7a105.47,105.47,0,0,1,11.82-1.88c2,0,.82.89.48,1.55-.93-.22-.87-.21-1,.61a15.36,15.36,0,0,1-.63,2.07c-.39-.94-1-1.54-1.79-1.47s-.07.93-.52,1.46l-2.74-2.34c.21,1.05-.58,1.69-.58,2.56A1.49,1.49,0,0,0,49,139a2,2,0,0,0-2.45-.43,3,3,0,0,1-2.75,0c-.79-.39-1,1-1.41,1.64-.11.18.1.55.16.85-1.26.28-1.37-2.26-2.89-1l0-.85c-.18-.29-.36-.62-.77-.54s-.31.41-.34.68c-.2.35-.52.35-.86.31l-.6-.47c-.1-.18-.22-.28-.38-.06-.7.14-.5.89-.87,1.25-.6-.23-1.18.64-1.78,0,0-.28,0-.67-.39-.65s-.35.39-.35.68l.37,1.75a2.22,2.22,0,0,1-3-.82c0-.74.88-.5,1.09-1l.82-.13c-.12-.11-.21-.28-.35-.32-.44-.15-.44.18-.46.47-.78-.59.08-1.17,0-1.76l1.11-.11c1.84,1.09,3.27-.33,4.86-.78l.36-.07c.53.74.9.65,1.14-.2l.78-.13c.38.58,1.2.81,1.22,1.71a4.82,4.82,0,0,0,1.41-2.18l.69-.06c.07.24.14.51.45.47S44.06,136.94,44.09,136.7Z"/><path class="cls-4" d="M144.63,106.56c-1.18.62-2.42.26-3.64.26l-17.2-.08a3.93,3.93,0,0,1-3.65-1.75c1.12-1.18,2.56-.54,3.84-.56,1.44,0,1.77-.39,1.13-1.64-.24-.46-.7-1.08.17-1.32s1,.58.95,1c0,2.56,1.83,2.37,3.44,2.14s3.32-.16,5-.33l.38.54c1.16,1.33,2.3,1.32,3.38,0q0-.17.13-.19C140.9,104.22,142.76,105.4,144.63,106.56Z"/><path class="cls-3" d="M95.73,152.92c-.95-.76-1.13-.2-1.14.64l-1.49.06c-.62-1.67-.62-1.67-2.23-.85.49.17,1.16.11,1.13.89a44.45,44.45,0,0,1-7.12-.05,4.47,4.47,0,0,0-3-1.84c-.68-.17-1-1.32-2.19-2.13,2.41.08,3.19,1.91,4.9.87-.25-.83-2-.7-2-2,.69,0,1.09.54,1.63.82a10.13,10.13,0,0,0,9.95.07,2.69,2.69,0,0,1,1.54-.54c.47.49-1.54,1,0,1.48l0,0c-.84,1.6.45,1,1.11,1m-3-.73a4.55,4.55,0,0,0-2.79.82c1,.07,2.1.23,2.83-.78l.5-.17a1,1,0,0,0-.11-.13Z"/><path class="cls-5" d="M43,131.78l-7.94.73c-.68-.76-2.16-.94-1.84-2.43l.78.36c2.11.72,4.3,0,6.44.34.76-1.49,2.12-1.82,3.65-1.81.68.75,1.32,1.29,1.48-.32.68-.1,1,.16,1.37.79s.77.21.79-.42c.53-.09,1.07-.18,1.6-.28s.17,1.16,1,.39-.6-.81-.24-1.31c.49-1.32,1.59-.7,2.45-.71,1.05,0,.24,1,.65,1.36.19.19.21.55.31.83l-.14.14c-1-.05-.57,1-1,1.35h0c-1.1.27-2.31-.45-3.36.35l-.93,0C46.33,131.38,44.54,130.64,43,131.78Z"/><path class="cls-2" d="M17.93,134.12l-3.43.4c-.57-.17-1.75.44-1.31-1,.07-.24-.32-1-.81-.55-.77.7-1-.56-1.56-.29-.43-.73.88-1.25,0-2,.75-.14.92.29,1.2.6,1.17,1.31,2,1.25,2.75-.31.36-.75.44-.63.85-.08.75,1,1.46.93,1.94-.16a.55.55,0,0,1,1-.14c.49.74,1.45.73,2,1.45s.64,0,.62-.45c1-.11,2.1-.88,3,.64-.88-1.6.13-2.11,1.12-2.63,0,0,0-.11,0-.17,1.9-.24.73,1.61,1.51,2.14.06.57.84.77.75,1.42-2.3.79-4.71.7-7.08.87-.87-.46-1.77,0-2.66-.07-.08-.45.19-1-.47-1.46,0,.64-.6,1.33.48,1.45Zm1.38-1.42c.13-.16.32-.29.31-.4a.47.47,0,0,0-.34-.31c-.25,0-.52.07-.43.4C18.88,132.51,19.11,132.57,19.31,132.7Z"/><path class="cls-1" d="M147,126.4a25,25,0,0,0,6-3.38l.13.4-.08,1.1c-.66.9-.13,1.94-.36,2.88a2.38,2.38,0,0,0-.8,1.93c-.21,1.84-.48,3.67-.73,5.5-1.41-.69-1.11-2.69-2.62-3.3h0l-.37-.39a1.86,1.86,0,0,0-.25-.47c-.92-.93-1.83-1.83-.83-3.26C147.18,127.2,147,126.75,147,126.4Z"/><path class="cls-3" d="M129,151.48c.25.84.92.73,1.51.56s.27-.43,0-.65l-.09-.7c.61-.21.41-.84.67-1.22.41-.6,1-1,1.69-.57a10.82,10.82,0,0,0,8.53,1.48c.07,0,.18.13.26.21-1.81,1.24-4.44,1.12-8.2-.36.18,2.08.16,1.95,2.17,1.64a2.9,2.9,0,0,1,3.28,1.81,29.6,29.6,0,0,1-5.28,0c-.06-.31-.2-.63-.54-.64"/><path class="cls-4" d="M110.78,108.41c.28,1.34-1.15,2.85.44,4.05a14.77,14.77,0,0,1-1.5.93c-.3.15-1,.15-.88-.22.18-.71-.73-1-.3-2,.6-1.43.18-3.3.11-5,0-.41-.61-.3-.95-.4l-.13-2.27c.11-.45.34-.9.1-1.38.18,0,.5-.06.53,0,1.2,2.69,3.4,2.21,5.6,1.72.24-.05.47-.14.71-.21A1.17,1.17,0,0,1,113,105c-2.88-.59-2.29,1.32-2.25,2.87C110.73,108,110.76,108.22,110.78,108.41Z"/><path class="cls-3" d="M82.27,103.92c-.18-.38-.35-.77-.56-1.14-1.11-2.06-1-2.74.75-4.43,1.07-.59,2.08-1.37,3.44-1,0,.72.26,1.27,1.18,1.05l.38,0,.07,1.08a1.58,1.58,0,0,1-2.27.11c-.31-.23-1.26-.9-1.48.1a1.35,1.35,0,0,0,.75,1.72c.88.41,2.26.1,2.66,1.41a.81.81,0,0,1-.08.32C85.6,104.17,83.82,103.35,82.27,103.92Z"/><path class="cls-4" d="M80.08,104.49c.45,2.39.39,2.52-2.06,2.32-1.73-.14-3.51.58-5.21-.29-.06,0-.37.41-.56.62a.82.82,0,0,1,.51-1.18,4.59,4.59,0,0,1,.73-.12c3-.59,4.23-2.14,2.94-4.82-.83-1.73.34-1.84,1.11-2.26s2-.63,2.59,0,0,1.57-.45,2.3c-.26-.41-.56-1-1-.89s-.37.8-.39,1.27a11.82,11.82,0,0,1-.21,3.07c-.23.69-.57,1.29.24,1.55,1.08.34,1.43-.35,1.32-1.33l.24-.83Z"/><path class="cls-5" d="M31.72,140.36c-.21.5-1.11.26-1.09,1-1,.52-.85-.86-1.5-.94.12-.23.4-.56.32-.68s-.55-.44-.79-.18c-1.4,1.51-3.27.9-4.91.94-.84,0-1,0-.53.64a1.66,1.66,0,0,1,.29,1c-.95-.08-1.88.27-2,1.13-.32,1.69-.69,1.41-1.45.26-.14-.21-.67-.16-1-.24-.06-.5.12-1.05-.34-1.46l0-1.09c4.3-1.14,8.75-1.43,13.13-2.11.08.59-.79,1.17,0,1.76Z"/><path class="cls-5" d="M96.87,151.38c-.65,0-1.95.57-1.11-1a3.17,3.17,0,0,1,2.19.49"/><path class="cls-5" d="M115,151.83c.37,0,.5.31.56.63"/><path class="cls-5" d="M91.64,103.6c-.87-.38-.57-1.25-.82-1.9l.22-.17-.26-.06c-.76-.18-1.7.29-2.27-.61,4.36.33,8.73.1,13.09.08,1.61,0,3.22,0,4.82,0,.52,0,1,0,.87.76-1.81.81-3.72.11-5.56.38l-.43,0-.66,0-3.09.06-.39.23a21.08,21.08,0,0,1-4.21-.07C91.6,102.11,91.5,102.59,91.64,103.6Z"/><path class="cls-2" d="M10.45,135.53a5.28,5.28,0,0,0-1.19,2.41c-.24,2,.77,3.16,2.62,3.75v.6c-.06,0-.15,0-.18,0-.62.71-1.35,2-2.05,1.76-.92-.3-.66-1.87-.53-2.61.26-1.54-.59-1.5-1.48-1.43A9.53,9.53,0,0,0,5,140.3c.72-1.14,1.29-2.36,2.66-2.83.67-.23,1-.52.54-1.18.32-1.09,1.71-.62,2.2-1.46l.07.07Z"/><path class="cls-4" d="M82.27,103.92c1.56-.57,3.33.25,4.82-.75.19,1.19-.53,3,2.09,2.31.81-.22,1.1.77.7,1.59-1.31-.13-2.67-1.19-3.87.23l-.11,0c-1-1.34-2.41-1.35-3.78-1.1s-.81-.57-.79-1.13Z"/><path class="cls-5" d="M148.48,131.55c1.51.61,1.21,2.61,2.62,3.3-1.06.89-.09,1,.5,1.17-.61,1.14.23,2.21.17,3.32a4.94,4.94,0,0,1-.23,2.12c-1.09,0-1.6-.45-1.53-1.54a2.9,2.9,0,0,0-.1-1.44C148.76,136.29,148.71,133.91,148.48,131.55Z"/><path class="cls-2" d="M85.9,97.34c-1.36-.37-2.37.41-3.44,1,.62-1,1.66-2-.36-2.78-.57-.22-.52-1.17.08-1.69a3.62,3.62,0,0,1,4.56.51c-.66.09-1.54-.41-1.91.34-.23.46.41.75.91.84A1.62,1.62,0,0,0,85.9,97.34Z"/><path class="cls-5" d="M110.78,108.41c0-.18,0-.36,0-.54,0-1.54-.64-3.46,2.25-2.87a1.17,1.17,0,0,0,1.52-1.34v0a.67.67,0,0,0,.66-.54c1.94.53,1,2,1,3.09l-1.27-.3c0,1.42-1.46.7-2,1.37C112.09,107.41,111.92,108.77,110.78,108.41Z"/><path class="cls-1" d="M190.35,128.57c-1.93.88-4.16,1.21-5.65,2.92a1,1,0,0,0-1.14-.27c-.43-.73.31-.76.64-1s.79-.51,0-.82l.26-.38a24.93,24.93,0,0,0,5.63-2.59l.41,0,.12,0c.4,1.16,1.49.09,2.08.62C192.08,127.76,190.95,127.76,190.35,128.57Z"/><path class="cls-2" d="M151.6,136c-.59-.22-1.56-.27-.5-1.17.25-1.83.52-3.67.73-5.5a2.38,2.38,0,0,1,.8-1.93.66.66,0,0,0,.7-.33l.38.06c.6,1.31.13,2.37-.46,3.63C152.49,132.41,152.66,134.41,151.6,136Z"/><path class="cls-2" d="M33.22,130.08c-.32,1.49,1.16,1.67,1.84,2.43-2.11.11-4.19.63-6.33.48,1.95-.69.54-1.84.4-2.82,1.76-.18,1.76-.18,1.63-1.37C31.8,128.83,32.09,130.23,33.22,130.08Z"/><path class="cls-3" d="M100.64,102.17l.66,0c.15.18.29.17.43,0,1.84-.27,3.76.43,5.56-.38l.36.38c.24.48,0,.92-.1,1.38-2.24.82-4.64.13-6.9.7Z"/><path class="cls-3" d="M56.4,136.37c.34-.67,1.49-1.58-.48-1.55a10.44,10.44,0,0,1,3.21-.69c1.12-.17,1.48.63,1.8,1.45,0,.24,0,.48,0,.71-.05.52.79,1.25-.18,1.5-.59.15-1.4.34-1.8-.68S57,137.38,56.4,136.37Z"/><path class="cls-3" d="M188.85,116a68.13,68.13,0,0,1-2.65-7.15l2-1.56C188.41,110.4,189.15,113.17,188.85,116Z"/><path class="cls-2" d="M23.51,142.13a1.66,1.66,0,0,0-.29-1c-.46-.65-.31-.62.53-.64,1.65,0,3.51.57,4.91-.94.24-.26.65-.05.79.18s-.2.45-.32.68c.06,1.24-1.77,1.53-1.41,3.07C26.75,141.25,24.68,143.22,23.51,142.13Zm2.56-.38.36-.19a1.56,1.56,0,0,0-.25-.35s-.28.1-.27.13A1.77,1.77,0,0,0,26.06,141.75Z"/><path class="cls-2" d="M146.51,118.74l0,0a.75.75,0,0,1-.5-.85c.1-3.28.18-6.56.26-9.84.88.17,1.3.56,1.2,1.57-.15,1.44-.08,2.9-.1,4.35l.41.47-.38.48c-.51.91,0,1.92-.3,2.86q0,.32,0,.64v-.06Z"/><path class="cls-5" d="M10.37,134.82c-.49.84-1.88.38-2.2,1.46-.89-.48-.44-2-1.92-2.17,1.37.16,2.56-1.55,3.79,0l-.42.36-.13.19.19-.14.36-.41c1.06-.08.83-.82.79-1.47.57-.27.79,1,1.56.29.49-.44.89.31.81.55-.44,1.48.74.88,1.31,1a5.76,5.76,0,0,1-2.61.27A1,1,0,0,0,10.37,134.82Z"/><path class="cls-2" d="M40.43,130.78c-2.13-.32-4.32.39-6.44-.34-.15-.71,1.34-1.13.09-2a1.55,1.55,0,0,1,1.6.74,1.38,1.38,0,0,0,1.85.26C38.89,128.65,40,129.12,40.43,130.78Z"/><path class="cls-1" d="M53.91,127.08c-.74-.71-.35-1.61-.46-2.44,1.86.06,3.74.05,5.27,1.34-1.6-.17-2.83,1.44-4.51.91C54.14,126.88,54,127,53.91,127.08Z"/><path class="cls-3" d="M53.91,127.08c.1-.06.23-.21.3-.18,1.68.53,2.91-1.08,4.51-.91l1.35,0a.35.35,0,0,1,0,.27c-.93.29-.94,1.26-1.43,1.88l-1,.85c.34-1.59-1.18-.68-1.64-1.18l-1.14.37-.34,0-.66,0A1.19,1.19,0,0,1,53.91,127.08Z"/><path class="cls-2" d="M87.17,102.86c-.4-1.3-1.78-1-2.66-1.41a1.35,1.35,0,0,1-.75-1.72c.22-1,1.17-.32,1.48-.1a1.58,1.58,0,0,0,2.27-.11c.5.06.39.42.39.73-.73.36-.17.76,0,1.14a1.88,1.88,0,0,0-.38,1.39A.41.41,0,0,1,87.17,102.86Z"/><path class="cls-5" d="M60.08,126l-1.35,0c-1.53-1.29-3.41-1.28-5.27-1.34a1,1,0,0,1-.1-.33c2.1-.72,4.37,0,6.47-.77A6.32,6.32,0,0,1,60.08,126Z"/><path class="cls-1" d="M79.59,104.7c.11,1-.24,1.68-1.32,1.33-.81-.26-.47-.86-.24-1.55a11.82,11.82,0,0,0,.21-3.07c0-.47-.16-1.14.39-1.27s.78.48,1,.89c-.11,1,.1,2-.52,2.87C78.88,104.32,79.33,104.49,79.59,104.7Z"/><path class="cls-3" d="M25.35,129.39c0,.06,0,.15,0,.17-1,.53-2,1-1.12,2.63-.89-1.51-2-.75-3-.64-.49-.58-.44-1.33-.82-2.38C22.19,129.93,23.76,129.37,25.35,129.39Z"/><path class="cls-3" d="M18.65,141.82c.45.41.27,1,.34,1.46-.86.17.75,1.72-.92,1.53-1.07-.13-2.15,0-2-1.55l0-.15,1.08-.94c.56.64.68.19.78-.3l.32-.05Z"/><path class="cls-5" d="M133,153c.34,0,.48.32.54.64"/><path class="cls-4" d="M192.74,127c-.59-.54-1.68.53-2.08-.62,1.53-.6,2.9-2.31,4.88-.68A4.66,4.66,0,0,1,192.74,127Z"/><path class="cls-3" d="M146.23,108c-.08,3.28-.16,6.56-.26,9.84a.75.75,0,0,0,.5.85c-.41.54-.94.6-.93-.13.05-3.5-.47-7,.24-10.51Z"/><path class="cls-2" d="M50.05,127.81c-.36.5,1,.63.24,1.31s-.56-.48-1-.39-1.07.19-1.6.28a3.24,3.24,0,0,1-.77-2.27C48.06,127.17,49.3,126.69,50.05,127.81Z"/><path class="cls-2" d="M138.52,104.65q-.18,0-.13.19H135l-.38-.54c.49-1.32,1.6-1,2.56-.85C137.83,103.55,138.83,103.44,138.52,104.65Z"/><path class="cls-3" d="M78.48,147.88l-.53-.2A6,6,0,0,1,76.63,144a5.7,5.7,0,0,0,2.59-.36A4.73,4.73,0,0,0,78.48,147.88Z"/><path class="cls-3" d="M37.6,139.66c.34,0,.67,0,.86-.32l1.1-.14,0,.85.13,1.53c-.9-.19-1.92.24-2.58-.46A.89.89,0,0,1,37.6,139.66Z"/><path class="cls-4" d="M184.24,129.39c.75.31.31.55,0,.82s-1.07.29-.64,1c-1.36.8-2.63-.3-4-.18l.13-.57C181.39,130.75,182.8,130,184.24,129.39Z"/><path class="cls-5" d="M150.56,145.54c-1,0-1.56-.24-1-1.35.43-.86.09-2.42,1.9-2A8.76,8.76,0,0,1,150.56,145.54Z"/><path class="cls-3" d="M12.5,143.32l-.26-.74h.39c.68.28.7,1.66,1.89,1.08.71.19.76.84,1,1.37-2.69.47-3.11.27-3-1.35,0,0,.14-.08.13-.09A2,2,0,0,0,12.5,143.32Z"/><path class="cls-5" d="M29.13,130.17c.14,1,1.55,2.13-.4,2.82l-1.12,0c.09-.65-.69-.85-.75-1.42.7.37,1,.07,1.14-.61S28.35,129.84,29.13,130.17Z"/><path class="cls-3" d="M33.6,142.18l-.37-1.75.74,0c.6.62,1.19-.25,1.78,0C36.39,142.3,36.9,142.47,33.6,142.18Z"/><path class="cls-2" d="M112.92,107.24c.5-.67,2,.05,2-1.37l1.27.3h0c-.73.45-.5,1.47-1.6,1.92C113,108.71,113.15,109,112.92,107.24Z"/><path class="cls-4" d="M119,116.41l-.16-.61q.11-3.6.23-7.2C120.07,111.21,119.68,113.81,119,116.41Z"/><path class="cls-1" d="M149.35,112.17a14.69,14.69,0,0,1,4-3.79l.39.41-4,3.74Z"/><path class="cls-2" d="M14.52,143.65c-1.18.58-1.21-.8-1.89-1.08.14-.83,1.5-.09,1.49-1.11h0c1.29-.18,1.17,1.21,1.91,1.65l0,.15C15.55,143.49,14.9,143.05,14.52,143.65Z"/><path class="cls-5" d="M87.46,98.44l-.38,0c-.63-2.25-.46-2.44,2.3-2.6.65.52,1.5.07,2.54.35a3.5,3.5,0,0,1-2.24.11C87.32,96.08,87.3,96.08,87.46,98.44Z"/><path class="cls-4" d="M89.38,95.79c-2.76.16-2.93.35-2.3,2.6-.92.22-1.13-.33-1.18-1.05a1.62,1.62,0,0,1-.18-1.79l1-.07C87.62,95.69,88.57,95.15,89.38,95.79Z"/><path class="cls-5" d="M54.92,128.22l1.14-.37c.14.56-.77.8-.54,1.22.56,1-.2.85-.76,1-.72.21-1.32.36-1.43-.65l.14-.14c.51-.23.88-.51.46-1.11l.66,0c.06.17-.1.44.22.46A2.17,2.17,0,0,0,54.92,128.22Z"/><path class="cls-3" d="M139.87,153.66c.21-.61-1.13-1.62.4-1.83.63-.09,1.59-.86,2,.07s-.83.74-1.29,1.12c-.16.14-.21.41-.31.62Z"/><path class="cls-5" d="M95.71,153.59l0-.66"/><path class="cls-3" d="M75.78,140.49c.52-.29,1.12-.85,1.65-.3s-.35.78-.57,1.13c-.41.64.1,1.51-.63,2-.44-.27-.32-.71-.34-1.11l-.13-1Z"/><path class="cls-4" d="M190.54,126.37l-.41,0c.29-.93-.51-1.42-.89-2.08l.52-.12a5.66,5.66,0,0,1,2.29.2C191.86,125.38,190.18,125.12,190.54,126.37Z"/><path class="cls-4" d="M153.71,127.14l-.38-.06c-.47-.81,1.16-1.89-.35-2.56l.08-1.1C155.84,124.23,153.8,125.85,153.71,127.14Z"/><path class="cls-3" d="M62.22,136.57c.17-.66.57-.71,1.12-.43.82.41.62,1.09.52,1.75C62.81,138.06,62.27,137.61,62.22,136.57Z"/><path class="cls-2" d="M45.56,128.65c-.16,1.61-.8,1.07-1.48.32.75-.45-.24-1,0-1.43C45.07,127.34,45.1,128.26,45.56,128.65Z"/><path class="cls-3" d="M86.77,74.49l-1,.07c-.5-.09-1.14-.37-.91-.84.38-.75,1.26-.25,1.91-.34Z"/><path class="cls-2" d="M92,153.67c0-.78-.64-.72-1.13-.89,1.62-.82,1.62-.82,2.23.85A1.11,1.11,0,0,1,92,153.67Z"/><path class="cls-5" d="M14.13,141.46c0,1-1.35.29-1.49,1.11h-.39c-.2,0-.36-.06-.37-.3v-.6C12.59,141.25,13.38,141.61,14.13,141.46Z"/><path class="cls-2" d="M95.73,152.92l0,.66a1.32,1.32,0,0,1-1.12,0C94.61,152.73,94.78,152.17,95.73,152.92Z"/><path class="cls-1" d="M149.74,112.53a4.63,4.63,0,0,1-1.58,1.39l-.2-.25a4.3,4.3,0,0,1,1.39-1.5Z"/><path class="cls-5" d="M87.88,101.4c-.13-.39-.69-.79,0-1.14a.73.73,0,0,1,.55.54Z"/><path class="cls-4" d="M115.17,103.07a.67.67,0,0,1-.66.54C114.43,103.09,114.5,102.72,115.17,103.07Z"/><path class="cls-5" d="M36.62,139.13c.16-.22.28-.12.38.06C36.84,139.41,36.71,139.39,36.62,139.13Z"/><path class="cls-2" d="M75.75,141.23l.13,1-.42-.8A1.1,1.1,0,0,1,75.75,141.23Z"/><path class="cls-1" d="M147.74,114.4l-.41-.47.63-.26.2.25Z"/><path class="cls-5" d="M116.27,107.26c-.18-.16-.2-.32,0-.49a2.13,2.13,0,0,1,.1.33S116.3,107.21,116.27,107.26Z"/><polygon class="cls-4" points="145.1 106.99 145.04 107 145.11 106.98 145.1 106.99"/><path class="cls-4" d="M72.22,108.35a1.62,1.62,0,0,1,.1.28s-.06.08-.1.12Q72.22,108.55,72.22,108.35Z"/><path class="cls-4" d="M72.11,110.35c-.09.15-.18.17-.26,0A.2.2,0,0,1,72.11,110.35Z"/><path class="cls-2" d="M12.5,143.32a2,2,0,0,1,.13.26s-.09.06-.13.09A.53.53,0,0,0,12.5,143.32Z"/><path class="cls-6" d="M103.35,147c-.68,0-1.5.35-2-.42.52-.93,1.34-1.74,1.16-2.93l.91-2c1.53.22,3.13,1.08,4.44-.52a7.23,7.23,0,0,0,3.39-.55c.77-.34,1.52-.44,2.09.37a3.25,3.25,0,0,0,4.39-.4c.91-1.23,2.25-.42,3.41-.46a9.4,9.4,0,0,0,2.39,3.41,10,10,0,0,1,2.37,3.87"/><path class="cls-3" d="M91.57,126.73c-1-1.2-2-.09-3,0H85.27a20.17,20.17,0,0,1,3.33.92l0,.08v.46c-1.23,0-2.63-.44-3.27,1.25-.1.27-.88.31-1.35.44-1.07.29-2.36.19-2.49,1.84,0,.42-.91.7-1.49.94-.86.36-2,.47-2.23,1.66l-1.19.82a5.32,5.32,0,0,1,2.11-3.32c.67-.32,1.77.09,2-.84s-1-.12-1.13-.75l.5-.56,1.87-.71c.9-.23,2,.34,2.84-.47-.7-.55-1.38-.31-2-.33l.72-1.1c.67-.81.12-1.27-.47-1.63,1.19-1,2.79-.07,4.05-.85a8.38,8.38,0,0,1,1.3-.07c1.09.11,1.71-.22,1.5-1.4s.37-1.52,1.54-1.5c2.61.06,5.22,0,7.84,0,1.57,0,2.47.92,2.08,2.37-.53,2,.36,3.35,1.56,4.68.25.39,1,.17,1,.79h-.53l-.49.09-2.71,0a.4.4,0,0,0-.69,0,1.91,1.91,0,0,1-2.76-.49,2.14,2.14,0,0,0-1.18-.84C94.08,128.08,93.35,126.06,91.57,126.73Z"/><path class="cls-3" d="M125.84,147.35a10,10,0,0,0-2.37-3.87,9.4,9.4,0,0,1-2.39-3.41c.51-.09,1-.25,1.06-.84.06-1.92,1.31-3.53,1.38-5.43,0-.48.36-.5.55-.73a48.72,48.72,0,0,0,4.34-5.23,5,5,0,0,0,2.65-.68c.64-.33.84-.8-.05-1.1-.35-.11-.73-.12-1-.46l.4-.56h6.16c.74.38,1.55.07,2.31.21,1,.18,2.07-.47,2.87.52,0,.35-.79.4-.41.94l0,.91c-.57-.07-1.12-.82-1.64-.32s.4.57.54.91a.76.76,0,0,1-.38.74,4.73,4.73,0,0,0-3.06-1.46c-.56,0-1.43-.37-1.62.32-.27,1,.73.64,1.24.8a.69.69,0,0,1,.46.7l-1.48.36a4.4,4.4,0,0,0-4.33-.35c-.34.13-.85.4-1,.27-1.63-1.19-1.78.26-2.26,1.15-.9.24-1.2.71-.62,1.53a1.23,1.23,0,0,1-.84,1.07l-.3.27c-.19.38-.69.67-.37,1.21h0c-.42-.2-.62,0-.73.38a9.36,9.36,0,0,1-.75,4.05l-.09.15.08-.15a2.49,2.49,0,0,0,.69-.2c.63-.41,1.3-1.41,2-.62.55.61,0,1.56-.48,2.28-.06.1-.19.17-.24.27-.2.36-.62.72-.27,1.14.58.69.61-.67,1.22-.26l.42,3.65h0c-.88.28-.75,1.35-1.44,1.77l-.15,0Z"/><path class="cls-5" d="M91.57,126.73c1.77-.67,2.5,1.34,4,1.51a2.14,2.14,0,0,1,1.18.84,1.92,1.92,0,0,0,2.76.49c0,.35,0,.68.41.82s.8.24,1.21.32c2.3.46,2.9,1.6,1.79,3.7-.22.42-.4.71-.21,1.12.88,2,.66,4,.68,6.09l-.91,2a2.55,2.55,0,0,1-1.5.35c.1-1.17-.75-2.69,1.29-3.15.24-.05.46-.87.4-1.3s-.57-.26-.93-.17c-1.09.28-1-.57-1.16-1.19-.79-2.94-2.28-5.36-5.21-6.69a.47.47,0,0,0-.06-.12s-.07,0-.1,0l.16.15c-.17.93-.78.79-1.41.56a11.52,11.52,0,0,0-5.08-1c-.36,0-.84,0-.86-.46s.53-.56.95-.57a11.84,11.84,0,0,1,4.18.72c.44.15.94.61,1.33,0a1,1,0,0,0-.2-1.36c-.82-.61-1.05-1.85-2.27-2h0Z"/><path class="cls-2" d="M103.58,115c.37,1.58.89,3.15.11,4.76l-.32-2.55c.71,2.47-1.08,1.93-2.37,1.95-1.12,0-2.24,0-3.36,0-.22-.39.26-1-.41-1.24,1.28-.8,2.92.05,4.18-1H97.18l-7.1-.1c-.81-2.35-.62-2.67,1.82-2.54C95.79,114.45,99.68,114.74,103.58,115Z"/><path class="cls-3" d="M113.29,140.93c-.57-.81-1.32-.71-2.09-.37a7.23,7.23,0,0,1-3.39.55q0-1.44,0-2.89c1.3,0,2.59-.06,3.89-.16.41,0,.87-.26.75-.83s-.48-.54-.86-.48a6,6,0,0,1-2.3-.38c-1.56-.81-.24-1,.3-1.42,3.05-.13,3.05-.13,2.73-2.32.06,0,.15,0,.18,0,1.79,1.56,2.59,6,1.4,7.92C113.77,140.73,113.49,140.81,113.29,140.93Z"/><path class="cls-5" d="M122.73,118.75c-.45-2.12-.44-2.15,1.59-1.62,3.17.83,6.34,1.67,9.49,2.56,1.42.4,2.17.35,2.06-1.46,0-.69-.76-2.18.57-2.2.8,0,.37,1.47.32,2.21s.8,1.32,0,1.91l-.55.69-.08.14c-.4.06-.9-.46-1.18.22a2.41,2.41,0,0,1-1.85-.38c-.71-1.26-2-.56-3-.85A22.4,22.4,0,0,0,122.73,118.75Z"/><path class="cls-4" d="M80,121.32a3.77,3.77,0,0,1-2.34.35c-.65,0-.85-.41-.86-1,0-.17.14-.35.11-.52-.21-1.34-.61-3.34.27-3.81,1.26-.67,3.13-.22,4.74-.28.72,0,1.28.2,1.26,1s-.74.48-1.23.54a4.22,4.22,0,0,1-1.75,0c-.46-.13-.75.08-.9.63s-.18,1.07.63,1.12C79.45,120,79.9,120.67,80,121.32Z"/><path class="cls-6" d="M184,127.15a6.93,6.93,0,0,0-3.38,1.52c-.91.82-1.78.61-2.54-.55s-.51-1.33.49-2.26c2-1.84,3.62-1.46,5.55-.39Z"/><path class="cls-5" d="M83.48,127.1l-.72,1.1a1.24,1.24,0,0,0-.81.81l-1.87.71a5,5,0,0,1,0-.55c.06-.72,1.34-1.32.42-2.09s-2-.36-3-.1-1.56.74-1.57,1.75a36.61,36.61,0,0,1-.27,5.26c-.12-1.81-.23-3.63-.37-5.44-.08-1.06-.22-2.12,1.14-2.55l-.62-.84a6.25,6.25,0,0,1,3.7-.39c-.42.42-1.29-.19-1.61.73C79.48,126.9,82.11,125,83.48,127.1Z"/><path class="cls-3" d="M66.52,131.38l7-1.71c.45-.11.91-.16.92.49s.21,1.33-.66,1.7a29.2,29.2,0,0,1-5.51,1.59c-.34-.2-.68-.57-1-.58C65.89,132.83,66.1,132.18,66.52,131.38Z"/><path class="cls-5" d="M133.55,109.67c-.59.31.29,1.29-.75,1.2-.62-.05-1.35-.09-1.63-.67s-.42-1.33.71-1.06c1.93.46,3.92-.44,5.88.37,1,.42,2.11-.65,3.26-.29.3.1.91-.21.84.31s0,1.3-.79,1.21c-1.64-.19-3.44.72-4.92-.64-.28-.25-.43-.25-.74,0C134.45,110.88,134.43,110.85,133.55,109.67Z"/><path class="cls-6" d="M87.17,102.86a.41.41,0,0,0,.32-.07c1.77,0,2.39,2,4,2.42.3.09.27,1.55.26,2.38a17.09,17.09,0,0,0,.28,3.79c-.56.17-1.37-.3-1.64.62-.47-.47-.16-1.08-.28-1.62q-.1-1.65-.21-3.3c.4-.82.11-1.82-.7-1.59-2.62.73-1.9-1.12-2.09-2.31A.81.81,0,0,0,87.17,102.86Z"/><path class="cls-4" d="M97.18,116.88h4.23c-1.27,1.09-2.9.24-4.18,1-.89.66-.94,1.79-1.54,2.61l-.76-.09a2.18,2.18,0,0,0,.41-1.71c0-.29.59-.36.25-.66-.13-.11-.49-.07-.7,0s-.58.32-.23.65c.59.58-.13,1.14,0,1.7-1-1.21-2.47-1-3.8-1.21a1.27,1.27,0,0,0,.34-2C93.17,116.86,95.21,117.46,97.18,116.88Z"/><path class="cls-3" d="M184,127.15l.12-1.69c.65.16,1.3.3,1.94.48,1.57.42,2.85.3,3.22-1.6.38.66,1.18,1.14.89,2.08A24.91,24.91,0,0,1,184.5,129l-.36-.58C184.49,127.95,184.15,127.56,184,127.15Z"/><path class="cls-5" d="M145.11,128.32A2,2,0,0,0,146,130a3.85,3.85,0,0,1,1.56,3.13c-1.85-1.06-3.67-2.06-5.44-3.14-.6-.37-.6-1.15-.77-1.79,1.31-.15,1.74,1.35,2.91,1.59.23-1.41-1.39-1.47-1.67-2.44C143.69,127.07,144.29,128,145.11,128.32Z"/><path class="cls-2" d="M122.73,118.75A22.4,22.4,0,0,1,130,120c1,.28,2.34-.41,3,.85-.28.82-.94.42-1.41.36-2.59-.35-5.17-.75-7.76-1.13C123.13,119.94,122.28,119.9,122.73,118.75Z"/><path class="cls-4" d="M80.76,110.09a8.14,8.14,0,0,0-1.82.17c-1.28.42-1.86-.28-2.34-1.24.12-.81.78-.64,1.29-.64,2.45,0,4.91,0,7.36,0a2.58,2.58,0,0,0-.41,1.75c-.89-.16-1.84.33-2.68-.28,0-.58,0-1.21-.79-1.11S80.89,109.61,80.76,110.09Z"/><path class="cls-5" d="M117.59,124.92c.76.35.61,1.72,1.81,1.58a1.94,1.94,0,0,1-1.73,1.42c-1.46.18-2.92.4-4.38.61-.12-.49-1,0-.94-.68C114.24,127.12,116.42,126.89,117.59,124.92Z"/><path class="cls-2" d="M83.48,127.1c-1.36-2.11-4-.2-5.62-1.59.32-.92,1.18-.31,1.61-.73l7.59-.15c-1.26.78-2.86-.19-4.05.85C83.6,125.83,84.14,126.29,83.48,127.1Z"/><path class="cls-5" d="M85.25,108.4c-2.45,0-4.91,0-7.36,0-.51,0-1.17-.17-1.29.64-.38.15-.76.17-.95-.26s.11-.63.49-.81a6.25,6.25,0,0,1,2.37-.29c2.46-.14,5,.39,7.38-.38l.11,0a2.67,2.67,0,0,0,.63.32c.46.1,1,0,.62.81-.48,1.09-.8-.05-1.19,0Z"/><path class="cls-2" d="M72.22,117.28c.13.76-.77,1.76.75,2.22.56.17.23,1.18.19,1.81l-1-.15c.17-.51.63-.9-.24-1.44-1.15-.71-1.86-.29-2.66.4l-.51-1.44c2.23.48,1.29-.95,1.17-1.88a1.69,1.69,0,0,0,.3-1.5l.44-1.11a3,3,0,0,1,.5,2.43C70.71,118.24,71.68,117.36,72.22,117.28Z"/><path class="cls-5" d="M66.52,131.38c-.42.8-.63,1.45.71,1.48.35,0,.69.38,1,.58-1.83-.18-2,1.16-2.22,2.39-.11.53-.12,1.12-.64,1.44a.4.4,0,0,1-.58-.27c-.11-.62-.56-1.37.15-1.84s.25-.94.07-1.4C64.52,132.35,65.28,131.73,66.52,131.38Z"/><path class="cls-5" d="M127.46,127.06a2.83,2.83,0,0,0-.91.07c-2,.9-2.78-.27-3.26-2.06h4.55c.45,1,.45,1-1.91,1.12C126.25,126.82,127.1,126.54,127.46,127.06Z"/><path class="cls-2" d="M127.46,127.06c-.36-.51-1.2-.23-1.53-.87,2.36-.13,2.36-.13,1.91-1.12l1.64,0c0,.41.21.54.57.57.23.34.61.35,1,.46.9.29.7.77.05,1.1a5,5,0,0,1-2.65.68Z"/><path class="cls-3" d="M73.14,123.68l0,.49a17.77,17.77,0,0,1-3.63-.05c-.13-.72-.63-1.38-.34-2.16a7.82,7.82,0,0,1,2.59-.7C71,122.7,71.84,123.33,73.14,123.68Z"/><path class="cls-6" d="M109.27,136.37a6,6,0,0,0,2.3.38c.39-.06.77,0,.86.48s-.34.8-.75.83c-1.29.1-2.59.11-3.89.16a2.46,2.46,0,0,1,0-1.5C108.29,136.63,108.9,137,109.27,136.37Z"/><path class="cls-6" d="M71.88,135.9c.59,2,.49,2-2.48,2-1.63,0-1.84-.62-1-1.84C69.63,136.69,70.73,135.73,71.88,135.9Z"/><path class="cls-4" d="M167.08,118.77c.92.91,1,2.47,2.53,2.94.19.06.26.64.27,1s-.32.27-.55.27c-1.09,0-3.29-2.89-3.14-4.08Z"/><path class="cls-6" d="M108.07,126.79a3.49,3.49,0,0,1,4.19-.31c-.16.42.44.77.1,1.2-.32.05-.7-.25-.95.17l-2.74-.05C108,127.75,108.19,127.18,108.07,126.79Z"/><path class="cls-2" d="M53.33,129.43c.11,1,.71.85,1.43.65.56-.16,1.32,0,.76-1-.23-.42.69-.66.54-1.22.46.51,2-.41,1.64,1.18h0c-.34,0-.44.29-.49.57-1.34,1.52-3.2,1-4.88,1.19C52.76,130.42,52.3,129.38,53.33,129.43Z"/><path class="cls-4" d="M177.23,113.42l.57-.64c1.27.67,1.52,2.18,2.59,3,.35.28.14.67-.17.94s-.67.6-1.15.37-.26-.48-.18-.87C179.14,114.9,177.51,114.52,177.23,113.42Z"/><path class="cls-4" d="M72.22,117.28c-.54.08-1.51,1-1.07-.66a3,3,0,0,0-.5-2.43,1.43,1.43,0,0,1,.31-1.27l.43.11c.64.13,1.18.31,1.09,1.16C72.36,115.22,72.63,116.28,72.22,117.28Z"/><path class="cls-5" d="M71.8,121.25a7.82,7.82,0,0,0-2.59.7l0-1.83c.8-.7,1.52-1.11,2.66-.4.87.54.41.93.24,1.44Z"/><path class="cls-6" d="M151.54,119.88c-.08,1.53-1.15,2-2.46,2.29C148.72,119.68,148.07,119.54,151.54,119.88Z"/><path class="cls-6" d="M161.23,113.65a1.06,1.06,0,0,1,1.79.24c.47.81,1.21,1.52,1.25,2.54a.3.3,0,0,0-.14.27C162.63,116.17,162.08,114.77,161.23,113.65Z"/><path class="cls-5" d="M164.13,116.7a.3.3,0,0,1,.14-.27,1.74,1.74,0,0,0,1.16-.28c.53.89,1.7,1.38,1.66,2.62l-.88.12C165.34,118.31,164.22,118,164.13,116.7Z"/><path class="cls-5" d="M80,121.32c-.06-.65-.51-1.3-.06-2,.36-.48.79-.6,1.2-.1s1,1.33,1.6,2.18C81.65,121.59,80.81,121.83,80,121.32Z"/><path class="cls-2" d="M109.17,134.11c0-.62-.91-.59-1-1.45h4.2C111.81,134.24,110.63,134.46,109.17,134.11Z"/><path class="cls-5" d="M73.6,127.54a9.78,9.78,0,0,1-1.46.06c-.5,0-1.14.17-1.41-.51s.32-1,.71-1.46l1.5.09c.81.29.9.93.82,1.65Z"/><path class="cls-6" d="M109.17,134.11c1.45.35,2.63.13,3.18-1.45l-.06,0c.32,2.19.32,2.19-2.73,2.32l-1.78-.06C107.73,133.74,108.76,134.45,109.17,134.11Z"/><path class="cls-4" d="M187.12,119.57c-.75,0-1.08-.33-1.08-.91a1.2,1.2,0,0,1,1.1-1.26c.6-.09.87.35.92.9C188.11,119.07,187.49,119.27,187.12,119.57Z"/><path class="cls-4" d="M72.94,125.72l-1.5-.09c-.54-.61-1.66-.54-1.88-1.53a17.76,17.76,0,0,0,3.63.05C73.51,124.75,74.24,125.39,72.94,125.72Z"/><path class="cls-5" d="M16,143.11c-.74-.44-.63-1.83-1.91-1.65a3.76,3.76,0,0,1,2.23-.66c.08.2-.07.75.45.28l1.43-.32q0,.52,0,1l-.32.05a.69.69,0,0,0-.78.3Z"/><path class="cls-4" d="M170.17,119.13l1.12-.62c.21.76,1,1,1.45,1.56.25.27.92.27.59.85s-.84.4-1.32.29C170.9,121,170.9,119.73,170.17,119.13Z"/><path class="cls-6" d="M60.08,126a6.32,6.32,0,0,0-.26-2.49c2.09-.12,2.14-.06,1.83,2.06l-.68.46c-.35-.12-.36,1-.88.24A.35.35,0,0,0,60.08,126Z"/><path class="cls-5" d="M98.32,112.75l1.52.19a3.43,3.43,0,0,1-4.47.13c.65-.55,1.49-.1,2.19-.39Z"/><path class="cls-5" d="M85.94,118.86c.19.86-.46.9-1,1-.85.15-1-.47-1.11-1.08-.12-.85.53-.79,1.09-.8S86.07,118.1,85.94,118.86Z"/><path class="cls-3" d="M77.36,135.56c.35.13,1.4.05.77.58a4.24,4.24,0,0,0-1.52,2.29c-.18.64-.68.26-1,.07l0-.65C76.25,137.17,76.34,136,77.36,135.56Z"/><path class="cls-3" d="M61,126.06l.68-.46a8.29,8.29,0,0,1-.56,3.29c-.1.33.09,1.17-.67,1s-.68-.75-.6-1.32A5.93,5.93,0,0,0,61,126.06Z"/><path class="cls-4" d="M121.63,122.82c-.56-1-1.6,0-2.42-.61.52-1,2.17-.56,2.45-1.77C121.54,121.24,123,122.05,121.63,122.82Z"/><path class="cls-6" d="M184.13,128.42l.36.58-.26.38c-1.44.62-2.85,1.36-4.51,1.08-.19-.06-.51-.32-.43-.32C181.14,130.15,182.5,128.93,184.13,128.42Z"/><path class="cls-5" d="M119.38,131.35c.48-.55.9-1.07,1.36-1.55.24-.25.54-.66.9-.22s-.08.68-.37.88C120.69,130.85,120.3,131.65,119.38,131.35Z"/><path class="cls-6" d="M109.51,129.65c-.55.46-.18,1.84-1.54,1.5-.49-.12-.47-.53-.44-.86.15-1.3,1.15-.95,2-.92A.24.24,0,0,1,109.51,129.65Z"/><path class="cls-2" d="M103.91,129.47c-.06-.62-.79-.41-1-.79h4.56c-1.07.91-2.3.88-3.44,1.11,0,0-.09-.08-.1-.14A.52.52,0,0,1,103.91,129.47Z"/><path class="cls-5" d="M105.33,133.73c-.61-.1-1.36.14-1.26-.73.08-.69.71-.67,1.27-.72a.84.84,0,0,1,1,.95C106.33,134.06,105.54,133.39,105.33,133.73Z"/><path class="cls-4" d="M71.8,121.25l.35-.09,1,.15a3.65,3.65,0,0,1,0,2.36C71.84,123.33,71,122.7,71.8,121.25Z"/><path class="cls-4" d="M71.88,135.9c-1.15-.17-2.25.79-3.43.16l-1.17-.8C68.93,135.4,70.5,134.83,71.88,135.9Z"/><path class="cls-2" d="M142.61,127.38c.28,1,1.9,1,1.67,2.44-1.17-.24-1.6-1.74-2.91-1.59h0l0-.59,0-.91c.37-.14.48.19.67.37l.53.28Z"/><path class="cls-5" d="M42.6,136.86A4.82,4.82,0,0,1,41.19,139c0-.9-.84-1.13-1.22-1.71Z"/><path class="cls-5" d="M37.7,137.73c-1.59.45-3,1.87-4.86.78A16.19,16.19,0,0,1,37.7,137.73Z"/><path class="cls-6" d="M95.69,120.52c.6-.82.65-2,1.54-2.61.67.24.2.85.41,1.24C96.63,120.83,96.63,120.83,95.69,120.52Z"/><path class="cls-4" d="M61,126.06a5.93,5.93,0,0,1-1.16,2.55l-1.16-.44c.49-.61.5-1.58,1.43-1.88C60.62,127,60.62,125.94,61,126.06Z"/><path class="cls-5" d="M91.19,117.23a1.27,1.27,0,0,1-.34,2c-1.62-.07-1.05-1.23-1.09-2.1Z"/><path class="cls-6" d="M91.19,117.23l-1.43-.09.31-.35,7.1.1C95.21,117.46,93.17,116.86,91.19,117.23Z"/><path class="cls-4" d="M90.09,110.38c.12.53-.19,1.14.28,1.62l.2.46.24.37c.21.37.59.24.91.29-.15.76-.75.7-1.29.62s-.63-.65-.69-1.12A3.17,3.17,0,0,1,90.09,110.38Z"/><path class="cls-5" d="M82.33,111.34h5.88v.23H82.34Z"/><path class="cls-6" d="M69.91,116.8c.12.93,1.06,2.36-1.17,1.88l-.32-.54a.58.58,0,0,0,.39-.57v0C69.3,117.5,69.31,116.74,69.91,116.8Z"/><path class="cls-5" d="M141.79,125.79c-.8-1-1.91-.34-2.87-.52-.76-.14-1.57.17-2.31-.21h6.08C142.54,125.71,142.16,125.73,141.79,125.79Z"/><path class="cls-5" d="M66.08,130.54a4.58,4.58,0,0,1,2.69-1.64A3.73,3.73,0,0,1,66.08,130.54Z"/><path class="cls-5" d="M77.36,135.56c-1,.45-1.11,1.62-1.83,2.29a2.35,2.35,0,0,1,1-2.66l1.19-.82A1.77,1.77,0,0,1,77.36,135.56Z"/><path class="cls-2" d="M107.78,134.89l1.78.06c-.54.38-1.86.61-.3,1.42-.37.64-1,.26-1.48.35Q107.79,135.8,107.78,134.89Z"/><path class="cls-4" d="M170.86,107.9c0,.4-.08.72-.56.76s-.81-.17-.84-.69.08-.73.55-.77S170.84,107.36,170.86,107.9Z"/><path class="cls-5" d="M108.69,127.79l2.74.05,0,1.1c-.32.5-.47,1.32-1.37.65l.64-.7c.18-.51-.06-.6-.52-.58S109,128.4,108.69,127.79Z"/><path class="cls-2" d="M43,131.78c1.55-1.14,3.33-.4,5-.61C46.36,131.66,44.66,131.51,43,131.78Z"/><path class="cls-2" d="M111.38,128.95l0-1.1c.25-.42.63-.11.95-.16l0,.17c0,.69.82.2.94.68C112.79,129.27,112.05,129,111.38,128.95Z"/><path class="cls-6" d="M80.76,110.09c.13-.48-.2-1.23.62-1.33s.83.53.79,1.11A1.52,1.52,0,0,1,80.76,110.09Z"/><path class="cls-2" d="M79.56,130.29c.14.62,1.37-.1,1.13.75s-1.36.51-2,.84A1.77,1.77,0,0,1,79.56,130.29Z"/><path class="cls-5" d="M69.91,116.8c-.61-.06-.61.7-1.12.78a2.46,2.46,0,0,1,1.42-2.28A1.69,1.69,0,0,1,69.91,116.8Z"/><path class="cls-6" d="M94.65,120.44c-.13-.57.6-1.12,0-1.7-.35-.34,0-.55.23-.65s.57-.13.7,0c.34.3-.26.37-.25.66a2.18,2.18,0,0,1-.41,1.71l-.14,0Z"/><path class="cls-5" d="M137.85,121.93c-1.09.22-2.16.41-2.9-.73l1.17,0C136.52,121.83,137.39,121.42,137.85,121.93Z"/><path class="cls-6" d="M85.25,108.4l.83,0a1.32,1.32,0,0,1-1.24,1.7A2.58,2.58,0,0,1,85.25,108.4Z"/><path class="cls-4" d="M137.85,121.93c-.46-.51-1.33-.11-1.73-.74a.2.2,0,0,1,0-.21l.08-.14.67.14c.35.47,1.1.06,1.42.6Z"/><path class="cls-2" d="M48.93,131.14c1-.8,2.26-.07,3.36-.35A9.55,9.55,0,0,1,48.93,131.14Z"/><path class="cls-5" d="M17.93,134.12l0-.38h0c.88.1,1.78-.39,2.66.07A5.31,5.31,0,0,1,17.93,134.12Z"/><path class="cls-5" d="M91.72,113.1c-.32,0-.69.08-.91-.29.73,0,1.49-.27,2.17.23Z"/><path class="cls-5" d="M138.26,121.57c-.33-.54-1.07-.12-1.42-.6l.72-.11C137.92,121,138.75,120.64,138.26,121.57Z"/><path class="cls-5" d="M120,116.12c.55,0,.85.37,1.21.77-.65,0-.81-.54-1.19-.79Z"/><path class="cls-5" d="M39.2,137.46c-.24.85-.61.94-1.14.2A1.55,1.55,0,0,1,39.2,137.46Z"/><path class="cls-5" d="M130.06,125.61c-.36,0-.61-.15-.57-.57h1Z"/><path class="cls-6" d="M136.09,121a.2.2,0,0,0,0,.21l-1.17,0h0C135.19,120.52,135.69,121,136.09,121Z"/><path class="cls-2" d="M137.56,120.86l-.72.11-.67-.14.55-.69Z"/><path class="cls-2" d="M99.9,130.39c-.41-.14-.43-.47-.41-.82a.4.4,0,0,1,.69,0A.76.76,0,0,0,99.9,130.39Z"/><path class="cls-2" d="M110.66,128.9l-.64.7-.5,0a.24.24,0,0,0,0-.28C109.73,128.84,110.2,128.89,110.66,128.9Z"/><path class="cls-2" d="M10.37,134.82a1,1,0,0,1,1.52,0l-.68.2-.77-.1Z"/><path class="cls-5" d="M44.09,136.7c0,.24-.05.52-.35.57s-.38-.23-.45-.47Z"/><path class="cls-5" d="M71.38,113l-.43-.11.24-.61Z"/><path class="cls-5" d="M10.44,134.89l.77.1-.76.54Q10.45,135.21,10.44,134.89Z"/><path class="cls-2" d="M18.23,141.81q0-.52,0-1l.37,0,0,1.09Z"/><path class="cls-5" d="M102.54,112.9c.34-.14.67-.25.9.17Z"/><path class="cls-5" d="M75.38,125.34c-.05.21-.13.46-.41.41-.09,0-.21-.28-.18-.41a.52.52,0,0,1,.32-.36A.26.26,0,0,1,75.38,125.34Z"/><path class="cls-5" d="M93.92,113c.2-.31.42-.27.64,0Z"/><path class="cls-2" d="M16.81,141.09c-.52.47-.37-.08-.45-.28Z"/><path class="cls-3" d="M57.19,129.59c0-.28.15-.53.49-.57A.59.59,0,0,1,57.19,129.59Z"/><path class="cls-2" d="M102.89,129.55l.49-.09Z"/><path class="cls-5" d="M73.76,127.37c.18.09.32.2.09.36,0,0-.16-.13-.24-.2Z"/><path class="cls-5" d="M142.59,127.37l-.53-.28C142.31,127,142.51,127.09,142.59,127.37Z"/><path class="cls-2" d="M103.67,120.92a1.5,1.5,0,0,1,.09.21s-.07,0-.11.07A.24.24,0,0,1,103.67,120.92Z"/><path class="cls-3" d="M146.51,118.74l.56-.42C147,118.61,146.86,118.81,146.51,118.74Z"/><path class="cls-3" d="M147.07,118.39q0-.32,0-.64C147.38,118,147.6,118.17,147.07,118.39Z"/><path class="cls-5" d="M68.81,117.56a.58.58,0,0,1-.39.57C68.41,117.85,68.43,117.6,68.81,117.56Z"/><path class="cls-5" d="M165,116l-.26,0,.21-.15.09.08Z"/><polygon class="cls-5" points="120.05 116.09 119.98 115.99 120.03 116.11 120.05 116.09"/><path class="cls-3" d="M85.26,144.4c-.09-.67-.59-1.44-1.09-1.32-2.92.69-2.22-1.53-2.26-2.79a7.25,7.25,0,0,1,4.5-6.75c3.18-1.23,6-.13,8.55,1.56,1,.66,1.94,6.13,1.42,7.2s-1.82.52-2.46,1.45a6.68,6.68,0,0,1-3.06,2.32C88.76,146.25,86.78,146.08,85.26,144.4Z"/><path class="cls-5" d="M99.83,147.74a1.54,1.54,0,0,1,1.47-1.13c.55.77,1.36.4,2,.42"/><path class="cls-5" d="M125.84,147.35l.11-.11.15,0c.15.5.6.43,1,.5l.51,1.75"/><path class="cls-3" d="M127.58,149.54l-.51-1.75a1.82,1.82,0,0,0,.47-2.27h0a5.59,5.59,0,0,1,2.26,4.88h-1.16A1.14,1.14,0,0,0,127.58,149.54Z"/><path class="cls-3" d="M101.3,146.61a1.54,1.54,0,0,0-1.47,1.13c-.08.15-.08.64-.34.26a2.11,2.11,0,0,1,1.33-3.16c1.28-.22.18-.54.15-.82a2.56,2.56,0,0,0,1.5-.35C102.64,144.87,101.81,145.68,101.3,146.61Z"/><path class="cls-5" d="M128.63,150.39h1.16l.59.28.09.7-1.49.08"/><path class="cls-3" d="M98,150.84a3.17,3.17,0,0,0-2.19-.49l0,0c.17-.76,1.34-.67,1.37-1.62-.5-.32-.92.2-1.38.14.35-.93,1.21-1.41,1.94-2.14a2,2,0,0,0,1,2.23C99.47,149.47,97.88,150.06,98,150.84Z"/><path class="cls-3" d="M81.86,148.85c0,.69.5,1.7-.26,2s-1.38-.62-1.92-1.19a4,4,0,0,1-.46-.78C80.09,147.15,81,148.87,81.86,148.85Z"/><path class="cls-5" d="M92,127.49a3.5,3.5,0,0,0,.2.68c.29.55,1,1,.64,1.72a.89.89,0,0,1-.83.06c-.74-.61-1.74-1-2.08-2-.13-.37.29-.46.6-.47.49,0,1,0,1.47,0Z"/><path class="cls-5" d="M85.26,144.4c1.52,1.68,3.51,1.84,5.6,1.67-1.35.87-4.51.71-5.51-.29C84.92,145.37,84.62,144.91,85.26,144.4Z"/><path class="cls-5" d="M88.6,127.68a20.17,20.17,0,0,0-3.33-.92H88.6Z"/><path class="cls-3" d="M98.71,144.61c.48.68.13,1.1-.42,1.6C97.9,145.46,98.53,145.09,98.71,144.61Z"/><path class="cls-3" d="M81.88,147.72c-.45,0-.85-.13-1-.63a.24.24,0,0,1,.31-.31c.51.11.61.51.65.94Z"/><path class="cls-3" d="M82.62,148.48l-.73.09v-.84h0A1.15,1.15,0,0,1,82.62,148.48Z"/><path class="cls-5" d="M88.58,128.23v-.46C88.79,127.91,88.93,128.07,88.58,128.23Z"/><path class="cls-3" d="M138.42,146.59c-2-.79-4.18-1.18-5.93-2.18s-1.47-3.4-1.1-5.25a8.26,8.26,0,0,1,7.85-6.13,7.94,7.94,0,0,1,7.24,6.92c.08,1-.11,2.56-1.95,2.69-1.24.09-1.59,1.41-2.44,2.07l0,.44h0a.6.6,0,0,0-.75.37h0l-.38.37h0A3.4,3.4,0,0,0,138.42,146.59Z"/><path class="cls-5" d="M127.79,130.75c.47-.9.63-2.35,2.26-1.15.18.13.69-.13,1-.27a4.4,4.4,0,0,1,4.33.35c-.77,1.42-2.12,1.11-3.37,1.11-1.06-.34-2.11-.63-3,.38C128.58,131.14,128.08,131.24,127.79,130.75Z"/><path class="cls-5" d="M136.88,129.32a.69.69,0,0,0-.46-.7c-.5-.16-1.51.19-1.24-.8.19-.69,1.06-.34,1.62-.32a4.73,4.73,0,0,1,3.06,1.46C139,130.33,137.94,129.74,136.88,129.32Z"/><path class="cls-5" d="M126.32,133.35a1.23,1.23,0,0,0,.84-1.07c.43-.45.89-.92,1.52-.3s0,1-.29,1.43c-.64.93-1.84.91-2.74,1.42-.32-.53.18-.83.37-1.21Z"/><path class="cls-3" d="M129,131.17c.88-1,1.94-.72,3-.38C131.21,132.28,130.08,131.42,129,131.17Z"/><path class="cls-5" d="M141.35,127.64l0,.59h-1.13c-.14-.34-1-.49-.54-.91S140.78,127.57,141.35,127.64Z"/><path class="cls-3" d="M142.23,150.46c.43-1.07,1.29-.75,1.62-1.3C143.86,150.13,143.14,150.13,142.23,150.46Z"/><path class="cls-5" d="M138.42,146.59a3.4,3.4,0,0,1,2.58-.72C140.32,146.76,139.37,146.68,138.42,146.59Z"/><path class="cls-5" d="M124.91,135.21c.11-.37.31-.58.73-.38C125.53,135.22,125.23,135.23,124.91,135.21Z"/><path class="cls-5" d="M141.37,145.51a.6.6,0,0,1,.75-.37C142,145.49,141.69,145.53,141.37,145.51Z"/><path class="cls-5" d="M148.11,131.15l.37.39Z"/><path class="cls-5" d="M142.11,145.14l0-.44C142.3,144.84,142.5,145,142.11,145.14Z"/><path class="cls-5" d="M141,145.88l.38-.37Z"/><path class="cls-6" d="M117.66,121.29c-1.69-1.75-3.71-3.25-3.14-6.15.15-.78.18-1.13,1.07-.73A5.08,5.08,0,0,1,117.66,121.29Z"/><path class="cls-5" d="M100.66,104.21c2.27-.57,4.66.12,6.9-.7l.13,2.27H98.35l-.13-.81.11-.67Z"/><path class="cls-4" d="M109.9,122.61c-.79-.35-2.14.5-2.37-1s.77-2.53,1.7-3.47c.53-.54,1.06.07,1.25.56a9,9,0,0,1,.32,1.78C110.77,121.3,109.78,121.73,109.9,122.61Z"/><path class="cls-2" d="M91.64,103.6c-.14-1,0-1.5,1.32-1.21a21.08,21.08,0,0,0,4.21.07c0,.55.17,1.12-.4,1.51-1.28,1.14-2.6.41-3.9.07A1.06,1.06,0,0,0,91.64,103.6Z"/><path class="cls-6" d="M114.39,125.65a26,26,0,0,1,.25-5.39l2.44,3.7C116.45,124.94,115.77,125.83,114.39,125.65Z"/><path class="cls-1" d="M114.39,125.65c1.38.19,2.06-.71,2.69-1.69l.51,1c-1.17,2-3.35,2.2-5.24,2.93l0-.17c.34-.43-.26-.79-.1-1.2C112.79,125.75,113.62,125.78,114.39,125.65Z"/><path class="cls-2" d="M98.08,110.14a37.35,37.35,0,0,1,8.88,0c-2.93.7-5.95.27-8.91.51Z"/><path class="cls-5" d="M92.85,104c1.31.34,2.62,1.08,3.9-.07l.12,1.41,0,.41-2.55.09-1.49-.16Z"/><path class="cls-2" d="M109.9,122.61c-.12-.88.87-1.32.89-2.14,1.66.18,1.14,1.47.85,2.16S110.49,123.32,109.9,122.61Z"/><path class="cls-2" d="M96.84,105.79l0-.41,1.34-.4.13.81c-.17.86.28,1.8-.3,2.61a.76.76,0,0,0-.84-.78C96.63,107.1,96.94,106.4,96.84,105.79Z"/><path class="cls-1" d="M107.53,116.9c-.1.79-.4,1-.91,1s-1-.26-.83-.91c.08-.31.21-.77.73-.57S107.58,116.45,107.53,116.9Z"/><path class="cls-2" d="M98.32,112.75l-.76-.07a.85.85,0,0,1,1-.65,44.12,44.12,0,0,1,6.84.37c-1.64,0-3.29,0-4.93,0C99.72,112.43,98.94,112.15,98.32,112.75Z"/><path class="cls-2" d="M99.17,108.08h7.76v.18H99.2Z"/><path class="cls-2" d="M104.56,113.81c1.21-1,2.31-.77,4.09.57A15,15,0,0,0,104.56,113.81Z"/><path class="cls-5" d="M97.21,107.63a.76.76,0,0,1,.84.78l0,1.73,0,.48-.62.57-.28-.57,0-.48Z"/><path class="cls-5" d="M90.57,112.45l-.2-.46c.27-.92,1.08-.44,1.64-.62C92.2,112.6,91.29,112.4,90.57,112.45Z"/><path class="cls-2" d="M97.13,110.14l0,.48-2.5-.11,0-.24Z"/><path class="cls-2" d="M92.8,105.72l1.49.16a.78.78,0,0,1-1,.61C92.87,106.43,92.76,106.12,92.8,105.72Z"/><path class="cls-2" d="M90.78,101.48l.26.06-.22.17A.81.81,0,0,0,90.78,101.48Z"/><path class="cls-2" d="M189.31,142.58c.65-.79.92-1.54,1.84-1.55.09,0,.29.3.26.42C191.15,142.39,190.37,142.41,189.31,142.58Z"/><path class="cls-5" d="M39.57,139.21l-1.1.14c0-.27,0-.61.34-.68S39.39,138.92,39.57,139.21Z"/><path class="cls-5" d="M34,140.4l-.74,0c0-.29-.07-.66.35-.68S33.94,140.12,34,140.4Z"/><path class="cls-5" d="M31.73,140.37c0-.29,0-.61.46-.47.14,0,.23.21.35.32l-.82.13Z"/><path class="cls-1" d="M135,104.85h3.38C137.3,106.17,136.17,106.18,135,104.85Z"/><path class="cls-2" d="M93.88,150.7c-.73,1-1.79.84-2.83.78a4.55,4.55,0,0,1,2.79-.82Z"/><path class="cls-2" d="M95.72,148.83c.46.06.88-.46,1.38-.14,0,.94-1.21.86-1.37,1.62C94.18,149.82,96.19,149.32,95.72,148.83Z"/><path class="cls-2" d="M93.83,150.65l.43-.26a1,1,0,0,1,.11.13l-.5.17Z"/><path class="cls-5" d="M17.89,133.74c-1.08-.12-.45-.81-.48-1.45.66.44.39,1,.47,1.46Z"/><path class="cls-5" d="M19.31,132.7c-.19-.13-.43-.19-.46-.32-.09-.32.18-.43.43-.4a.47.47,0,0,1,.34.31C19.63,132.41,19.44,132.54,19.31,132.7Z"/><path class="cls-6" d="M153,124.53c1.51.67-.12,1.75.35,2.56a.66.66,0,0,1-.7.33C152.86,126.46,152.32,125.42,153,124.53Z"/><path class="cls-2" d="M129,151.48l1.49-.08c.29.21.47.52,0,.65S129.23,152.31,129,151.48Z"/><path class="cls-2" d="M100.66,104.21l-2.32.1c.27-.89-.46-1.41-.78-2.09l3.09-.06Q100.65,103.19,100.66,104.21Z"/><path class="cls-3" d="M97.55,102.22c.32.67,1.05,1.2.78,2.09l-.12.67-1.34.4L96.76,104c.58-.39.43-1,.4-1.51Z"/><path class="cls-2" d="M101.73,102.13c-.13.18-.28.19-.43,0Z"/><path class="cls-5" d="M26.06,141.75a1.77,1.77,0,0,1-.17-.41s.24-.16.27-.13a1.56,1.56,0,0,1,.25.35Z"/><path class="cls-2" d="M9.62,134.46l.42-.36h0l-.36.41Z"/><path class="cls-2" d="M9.67,134.51l-.19.14.13-.19Z"/><path class="cls-2" d="M54.92,128.22a2.17,2.17,0,0,1-.11.44c-.32,0-.16-.29-.22-.46Z"/><path class="cls-2" d="M17.13,142.17a.69.69,0,0,1,.78-.3C17.8,142.36,17.69,142.81,17.13,142.17Z"/><path class="cls-2" d="M81.94,129a1.24,1.24,0,0,1,.81-.81c.65,0,1.33-.22,2,.33C83.9,129.35,82.84,128.78,81.94,129Z"/><path class="cls-2" d="M127.54,145.51a1.82,1.82,0,0,1-.47,2.27c-.38-.06-.83,0-1-.5C126.78,146.86,126.66,145.79,127.54,145.51Z"/><path class="cls-2" d="M126.32,133.35l-.3.27Z"/><path class="cls-2" d="M124.16,139.26l-.08.15.09-.15Z"/><path class="cls-2" d="M95.34,131.54l-.16-.15s.08,0,.1,0a.47.47,0,0,1,.06.12Z"/></svg>