<svg id="Layer_1" data-name="Layer 1" xmlns="http://www.w3.org/2000/svg" viewBox="0 0 100 66"><defs><style>.cls-1{fill:#424142;}.cls-2{fill:#fff;stroke:#231f20;stroke-miterlimit:10;stroke-width:0.08px;}.cls-3{fill:#f8bc18;}.cls-4{fill:none;}</style></defs><title>Artboard 1</title><polygon class="cls-1" points="30 42.55 40.63 49.08 41.64 49.08 48.74 49.44 66.24 49.44 69.18 43.17 63.37 39.27 46.19 41.82 30 42.55"/><path class="cls-2" d="M16.58,48.47l.06.13.06-.08Z"/><polygon class="cls-3" points="33.04 37.09 29.09 38.53 28.44 41.6 32.73 38.3 33.04 37.09"/><polygon class="cls-1" points="46.6 42.55 41.1 43.25 41.64 49.08 48.74 49.44 51.28 42.18 46.6 42.55"/><polygon class="cls-3" points="46.35 40.84 45.44 34.45 45.19 32.67 44.84 32.8 35.15 36.32 34.96 41.03 34.15 41.59 36.64 43.81 41.1 43.25 46.6 42.55 46.35 40.84"/><path class="cls-3" d="M34.37,31.89,33,37.09l-.31,1.21-4.3,3.29L22,46.53l-2.09-3.73-3.7,5.13.37.24.26.16,3-4,1.59,2.77-4,3.34a16.49,16.49,0,0,1,.74,2.29l16-11.12L35,41l.19-4.71.17-4.16Z"/><path class="cls-1" d="M18.18,52.71a16.49,16.49,0,0,0-.74-2.29c-.33-.84-.66-1.54-.8-1.82l-.06-.13.12.05.15-.2-.26-.16-.37-.24A14,14,0,0,1,12.82,44l-1.88.48c.36,2.91-3.09,9.58-3.09,9.58H18.34A5.09,5.09,0,0,0,18.18,52.71Z"/><rect class="cls-1" x="66.21" y="27.55" width="14.69" height="1.58" transform="translate(120.18 -35.23) rotate(105.18)"/><rect class="cls-1" x="71.9" y="16.24" width="9.71" height="0.66" transform="translate(112.85 -53.17) rotate(105.18)"/><rect class="cls-1" x="80.36" y="22.94" width="14.69" height="1.58" transform="translate(87.87 114.59) rotate(-105.24)"/><rect class="cls-1" x="86.06" y="35.17" width="9.71" height="0.66" transform="translate(80.56 132.55) rotate(-105.24)"/><rect class="cls-1" x="24.86" y="35.22" width="11.28" height="0.73" transform="translate(-15.28 25.55) rotate(-37.04)"/><rect class="cls-1" x="19.3" y="41.07" width="7.45" height="0.31" transform="matrix(0.8, -0.6, 0.6, 0.8, -20.19, 22.19)"/><path class="cls-4" d="M50.52,40.59v0Z"/><path class="cls-4" d="M51.32,39h0a6.18,6.18,0,0,0-.8,1.59A6.19,6.19,0,0,1,51.32,39Z"/><path class="cls-4" d="M50.51,40.62h0Z"/><polygon class="cls-1" points="47.46 38.44 48.35 37.21 49.24 37.55 51.01 33.96 50.6 33.17 51.83 32.85 52.85 33.51 53.15 33.17 49.19 30.42 48.94 30.78 49.99 31.48 49.99 32.67 49.4 32.67 48.85 31.69 48.17 32.01 48.74 33.69 48.46 34.12 46.56 33.03 45.44 34.45 46.35 40.84 47.68 40.77 47.46 38.44"/><path class="cls-1" d="M62.69,35.53l-.77-1.86-2.57,0,1.23-4.5-1.09-.39-.8,2.18a4.13,4.13,0,0,0-.68.47v4.86a21.22,21.22,0,0,1,7.58,1.22L63.74,23.26l1.49,11.47Z"/><path class="cls-1" d="M54.87,33.19c0,.45,1,.59,1,.59v.52s-2.82.64-3.64.93c-.61.22-.87,2.59-1,3.76a6.19,6.19,0,0,1,5-2.69v-3.2Z"/><path class="cls-1" d="M56.28,23.26V36.31h0c.56,0,1.12,0,1.68,0v-13Z"/><polygon class="cls-4" points="74.22 40.58 73.01 38.99 71.88 39.65 71.88 40.58 74.22 40.58"/><rect class="cls-4" x="71.88" y="42.26" width="1.75" height="4.93"/><path class="cls-3" d="M71.2,34.2H68.47v6.88l-.35-.24,0,.06H61.92l2.88,6,1.43,1.43v1.09h5.64v-9.8h0V34.2Z"/><path class="cls-3" d="M80.83,22.26l-1.86-5h0l-7.76,17h.67v5.44L73,39l1.2,1.59H71.88v1.68h1.75v4.93H71.88v1.54c.93,0,2.31,0,4.27-.11,4.27-.27,2.59-6.5,2.59-6.5l2.09-19.87Z"/><path class="cls-3" d="M90.24,36.94h0l-1.5-1.29-1.07.3.59,2.49,1.64,1.94h.45v1.06H86.5l.24.82L90.68,42s.67.61,1.27-.67S93.84,39.74,90.24,36.94Z"/><polygon class="cls-3" points="90.24 36.94 89.08 35.08 90.24 36.94 90.24 36.94 86.92 22.89 87.42 16.75 85.02 13.71 83.2 7.93 76.74 10.25 78.97 17.21 80.83 22.26 80.83 22.26 86.56 36.27 87.67 35.95 87.53 35.35 87.67 35.95 88.74 35.65 90.24 36.94"/><path class="cls-1" d="M87.59,37.68l2.65,1.7-.35,1s-1.82-.06-2.94,2.3a3.47,3.47,0,0,1-2.09-.86,3.75,3.75,0,0,1-3.76-4L83,33.41s-.21-1.49.79-2.06l.15,1.09-.27.54,1.49,1.7-.48.82A4.92,4.92,0,0,0,87.59,37.68Z"/><path class="cls-1" d="M33.49,40.77h-.25a8,8,0,1,0,.25,0Zm0,13.31a5.33,5.33,0,1,1,5.33-5.33A5.33,5.33,0,0,1,33.49,54.08Z"/><circle class="cls-3" cx="33.49" cy="48.75" r="5.33"/><circle class="cls-1" cx="33.49" cy="48.75" r="1.83"/><path class="cls-3" d="M65.59,21.34s-17-.57-18.64,0-.76,1.24-.76,1.24H64.47C66.19,22.57,65.59,21.34,65.59,21.34Z"/><path class="cls-1" d="M67.19,38.6a2.78,2.78,0,0,0-.73-.65l-2-15.38H47.64L44.84,32.8l.35-.13.25,1.79L46.56,33l0,0,2.32-9.73H63.74l1.85,14.23A21.22,21.22,0,0,0,58,36.27c-.56,0-1.12,0-1.68,0h0a6.3,6.3,0,0,0-5.76,4.28h0v0h0l-2.82.14-1.33.07.25,1.72,4.68-.38L61.74,40.9H68.1l0-.06C68.17,40.65,68.21,40,67.19,38.6Z"/><path class="cls-1" d="M57.31,40.77h-.25a8,8,0,1,0,.25,0Zm0,13.31a5.33,5.33,0,1,1,5.33-5.33A5.33,5.33,0,0,1,57.31,54.08Z"/><circle class="cls-3" cx="57.31" cy="48.75" r="5.33"/><circle class="cls-1" cx="57.31" cy="48.75" r="1.83"/></svg>