<svg id="Layer_1" data-name="Layer 1" xmlns="http://www.w3.org/2000/svg" viewBox="0 0 40 40"><defs><style>.cls-1{fill:#424142;}.cls-2{fill:#fff;stroke:#231f20;stroke-miterlimit:10;stroke-width:0.04px;}.cls-3{fill:#f8bc18;}.cls-4{fill:none;}</style></defs><title>Artboard 6</title><polygon class="cls-1" points="11.35 22.88 16.03 25.74 16.47 25.74 19.59 25.9 27.28 25.9 28.57 23.14 26.02 21.43 18.47 22.55 11.35 22.88"/><path class="cls-2" d="M5.45,25.48l0,.06,0,0Z"/><polygon class="cls-3" points="12.69 20.48 10.96 21.11 10.67 22.45 12.55 21.01 12.69 20.48"/><polygon class="cls-1" points="18.65 22.88 16.23 23.18 16.47 25.74 19.59 25.9 20.71 22.71 18.65 22.88"/><polygon class="cls-3" points="18.54 22.12 18.14 19.32 18.03 18.53 17.88 18.59 13.62 20.14 13.53 22.21 13.18 22.45 14.27 23.43 16.23 23.18 18.65 22.88 18.54 22.12"/><path class="cls-3" d="M13.27,18.19l-.58,2.29-.14.53-1.89,1.45L7.84,24.62,6.92,23,5.29,25.24l.16.11.12.07,1.31-1.77.7,1.22L5.83,26.33a7.25,7.25,0,0,1,.33,1l7-4.89.35-.25.08-2.07.07-1.83Z"/><path class="cls-1" d="M6.16,27.34a7.25,7.25,0,0,0-.33-1c-.15-.37-.29-.68-.35-.8l0-.06.05,0,.06-.09-.12-.07-.16-.11A6.14,6.14,0,0,1,3.8,23.53L3,23.74C3.14,25,1.62,28,1.62,28H6.23A2.24,2.24,0,0,0,6.16,27.34Z"/><rect class="cls-1" x="27.27" y="16.28" width="6.46" height="0.69" transform="translate(54.53 -8.45) rotate(105.18)"/><rect class="cls-1" x="29.77" y="11.31" width="4.27" height="0.29" transform="translate(51.31 -16.33) rotate(105.18)"/><rect class="cls-1" x="33.49" y="14.25" width="6.46" height="0.69" transform="translate(32.28 53.86) rotate(-105.24)"/><rect class="cls-1" x="35.99" y="19.63" width="4.27" height="0.29" transform="translate(29.07 61.76) rotate(-105.24)"/><rect class="cls-1" x="9.1" y="19.65" width="4.96" height="0.32" transform="translate(-9.6 10.97) rotate(-37.04)"/><rect class="cls-1" x="6.65" y="22.22" width="3.28" height="0.13" transform="translate(-11.76 9.49) rotate(-37.04)"/><path class="cls-4" d="M20.37,22h0Z"/><path class="cls-4" d="M20.72,21.31h0a2.72,2.72,0,0,0-.35.7A2.72,2.72,0,0,1,20.72,21.31Z"/><path class="cls-4" d="M20.37,22h0Z"/><polygon class="cls-1" points="19.03 21.07 19.42 20.53 19.81 20.68 20.59 19.1 20.41 18.75 20.95 18.61 21.4 18.9 21.53 18.75 19.79 17.54 19.68 17.7 20.14 18.01 20.14 18.53 19.88 18.53 19.64 18.1 19.34 18.24 19.59 18.98 19.47 19.17 18.63 18.69 18.14 19.32 18.54 22.12 19.13 22.09 19.03 21.07"/><path class="cls-1" d="M25.72,19.79,25.38,19H24.25l.54-2-.48-.17-.35,1a1.82,1.82,0,0,0-.3.21v2.14a9.33,9.33,0,0,1,3.33.54l-.81-6.26.66,5Z"/><path class="cls-1" d="M22.29,18.76c0,.2.46.26.46.26v.23s-1.24.28-1.6.41-.38,1.14-.42,1.65a2.72,2.72,0,0,1,2.18-1.18V18.72Z"/><path class="cls-1" d="M22.9,14.39v5.74h0l.74,0V14.39Z"/><polygon class="cls-4" points="30.79 22.01 30.26 21.31 29.76 21.6 29.76 22.01 30.79 22.01"/><rect class="cls-4" x="29.76" y="22.75" width="0.77" height="2.17"/><path class="cls-3" d="M29.46,19.2h-1.2v3l-.15-.11v0H25.38l1.27,2.65.63.63v.48h2.48V21.6h0V19.2Z"/><path class="cls-3" d="M33.69,14l-.82-2.22h0L29.46,19.2h.3V21.6l.5-.29.53.7h-1v.74h.77v2.17h-.77v.68c.41,0,1,0,1.88,0,1.88-.12,1.14-2.86,1.14-2.86L33.69,14Z"/><path class="cls-3" d="M37.83,20.41h0l-.66-.57L36.7,20,37,21.07l.72.85h.2v.47H36.19l.11.36L38,22.63s.29.27.56-.29S39.41,21.64,37.83,20.41Z"/><polygon class="cls-3" points="37.83 20.41 37.32 19.59 37.83 20.41 37.83 20.41 36.37 14.23 36.59 11.54 35.53 10.2 34.73 7.66 31.9 8.68 32.88 11.74 33.7 13.95 33.7 13.95 36.21 20.11 36.7 19.97 36.64 19.71 36.7 19.97 37.17 19.84 37.83 20.41"/><path class="cls-1" d="M36.67,20.73l1.17.75-.15.44a1.51,1.51,0,0,0-1.29,1,1.53,1.53,0,0,1-.92-.38,1.65,1.65,0,0,1-1.65-1.75l.83-1.94s-.09-.65.35-.91l.07.48-.12.24.65.75-.21.36A2.16,2.16,0,0,0,36.67,20.73Z"/><path class="cls-1" d="M12.89,22.09h-.11a3.5,3.5,0,1,0,.11,0Zm0,5.85a2.34,2.34,0,1,1,2.34-2.34A2.34,2.34,0,0,1,12.89,27.94Z"/><circle class="cls-3" cx="12.89" cy="25.6" r="2.34"/><circle class="cls-1" cx="12.89" cy="25.6" r="0.8"/><path class="cls-3" d="M27,13.55s-7.46-.25-8.19,0-.33.54-.33.54h8C27.26,14.09,27,13.55,27,13.55Z"/><path class="cls-1" d="M27.7,21.14a1.22,1.22,0,0,0-.32-.29l-.88-6.76H19.11l-1.23,4.49.15-.06.11.79.49-.62,0,0,1-4.28h6.51L27,20.65a9.33,9.33,0,0,0-3.33-.54l-.74,0h0A2.77,2.77,0,0,0,20.37,22h0l-1.24.06-.58,0,.11.76,2.06-.16,4.6-.56h2.8v0C28.13,22,28.15,21.74,27.7,21.14Z"/><path class="cls-1" d="M23.36,22.09h-.11a3.5,3.5,0,1,0,.11,0Zm0,5.85A2.34,2.34,0,1,1,25.7,25.6,2.34,2.34,0,0,1,23.36,27.94Z"/><circle class="cls-3" cx="23.36" cy="25.6" r="2.34"/><circle class="cls-1" cx="23.36" cy="25.6" r="0.8"/></svg>