<svg id="Layer_1" data-name="Layer 1" xmlns="http://www.w3.org/2000/svg" viewBox="0 0 40 40"><defs><style>.cls-1{fill:#f8bc18;}.cls-2{fill:#424142;}</style></defs><title>Artboard 6 copy 3</title><path class="cls-1" d="M30.28,16A11.15,11.15,0,1,0,15.66,30.65l1.21-.14-.32-1.22a9.56,9.56,0,1,1,4.25.61V25.21h.44l0-.38h-.33v-.56h.38v-.08l0-.3h-.3v-.56h.35l.07-.76h-3l.07.76h.35v.56h-.3l0,.3v.08h.38v.56h-.33l0,.38h.44V31.5h.89a10.9,10.9,0,0,0,4.11-.79l.14-.06A11.16,11.16,0,0,0,30.28,16Z"/><polygon class="cls-2" points="16.48 20.8 18.16 22.16 21.78 22.16 23.52 20.8 23.52 17.76 16.48 17.76 16.48 20.8"/><polygon class="cls-1" points="17.63 14.05 17.12 14.43 17.12 17.36 18.14 17.36 18.14 14.43 17.63 14.05"/><polygon class="cls-1" points="22.37 14.05 21.86 14.43 21.86 17.36 22.88 17.36 22.88 14.43 22.37 14.05"/></svg>