<svg id="Layer_1" data-name="Layer 1" xmlns="http://www.w3.org/2000/svg" viewBox="0 0 100 66"><defs><style>.cls-1{fill:#f8bc18;}.cls-2{fill:#424142;}</style></defs><title>Artboard 1 copy 3</title><path class="cls-1" d="M70.2,23.79A22.83,22.83,0,1,0,40.27,53.72l2.49-.29-.66-2.5a19.56,19.56,0,1,1,8.7,1.25v-9.6h.89l.07-.78h-.68V40.65h.78l0-.17.06-.61h-.62V38.73H52l.14-1.56h-6l.14,1.56H47v1.14h-.62l.06.61,0,.17h.78V41.8h-.68l.07.78h.89V55.45h1.82a22.32,22.32,0,0,0,8.42-1.62l.29-.12A22.86,22.86,0,0,0,70.2,23.79Z"/><polygon class="cls-2" points="41.96 33.55 45.38 36.32 52.81 36.32 56.36 33.55 56.36 27.32 41.96 27.32 41.96 33.55"/><polygon class="cls-1" points="44.31 19.72 43.27 20.51 43.27 26.5 45.35 26.5 45.35 20.51 44.31 19.72"/><polygon class="cls-1" points="54.01 19.72 52.97 20.51 52.97 26.5 55.05 26.5 55.05 20.51 54.01 19.72"/></svg>