<?xml version="1.0" encoding="utf-8"?>
<!-- Generator: Adobe Illustrator 20.1.0, SVG Export Plug-In . SVG Version: 6.00 Build 0)  -->
<svg version="1.1" id="Layer_1" xmlns="http://www.w3.org/2000/svg" xmlns:xlink="http://www.w3.org/1999/xlink" x="0px" y="0px"
	 viewBox="0 0 100 66" style="enable-background:new 0 0 100 66;" xml:space="preserve">
<style type="text/css">
	.st0{fill:#1D1D1A;}
	.st1{fill:#FFFFFF;stroke:#000000;stroke-width:9.377525e-02;stroke-miterlimit:10;}
	.st2{fill:#EC9634;}
	.st3{fill:#403834;}
	.st4{fill:#F99E37;}
	.st5{fill:#332E2A;}
	.st6{fill:#A7A9AC;}
	.st7{fill:none;}
	.st8{fill:#51524E;}
</style>
<g>
	<polygon class="st0" points="27.1,44 39.3,51.4 40.4,51.4 48.5,51.9 68.5,51.9 71.9,44.7 65.2,40.3 45.6,43.2 	"/>
	<path class="st1" d="M11.8,50.8c0,0,0,0.1,0.1,0.1l0.1-0.1C11.9,50.8,11.8,50.8,11.8,50.8z"/>
	<polygon class="st2" points="30.6,37.8 26.1,39.4 25.4,42.9 30.3,39.1 	"/>
	<polygon class="st3" points="46.1,44 39.8,44.8 40.4,51.4 48.5,51.9 51.4,43.6 	"/>
	<polygon class="st2" points="45.8,42 44.8,34.8 44.5,32.7 44.1,32.9 33,36.9 32.8,42.3 31.9,42.9 34.7,45.4 39.8,44.8 46.1,44 	"/>
	<path class="st4" d="M32.1,31.8l-1.5,5.9l-0.4,1.4l-4.9,3.8L18,48.5l-2.4-4.3l-4.2,5.8c0.1,0.1,0.3,0.2,0.4,0.3
		c0.1,0.1,0.2,0.1,0.3,0.2l3.4-4.6l1.8,3.2L12.8,53c0.3,0.8,0.6,1.8,0.8,2.6l18.2-12.7l0.9-0.6l0.2-5.4l0.2-4.7L32.1,31.8z"/>
	<path class="st5" d="M13.7,55.6c-0.2-0.9-0.5-1.8-0.8-2.6c-0.4-1-0.8-1.8-0.9-2.1c0-0.1-0.1-0.1-0.1-0.1s0.1,0,0.1,0.1l0.2-0.2
		c-0.1-0.1-0.2-0.1-0.3-0.2c-0.1-0.1-0.3-0.2-0.4-0.3c-2.2-1.5-3.9-4.4-3.9-4.4l-2.1,0.6c0.4,3.3-3.5,10.9-3.5,10.9h12
		C13.9,56.7,13.8,56.2,13.7,55.6z"/>
	
		<rect x="68.5" y="26.9" transform="matrix(-0.2619 0.9651 -0.9651 -0.2619 123.7829 -39.1086)" class="st0" width="16.8" height="1.8"/>
	
		<rect x="75" y="14" transform="matrix(-0.2619 0.9651 -0.9651 -0.2619 115.4173 -59.5836)" class="st6" width="11.1" height="0.8"/>
	
		<rect x="84.6" y="21.6" transform="matrix(-0.2629 -0.9648 0.9648 -0.2629 95.7132 118.1547)" class="st0" width="16.8" height="1.8"/>
	
		<rect x="91.1" y="35.6" transform="matrix(-0.2629 -0.9648 0.9648 -0.2629 87.3749 138.65)" class="st6" width="11.1" height="0.8"/>
	
		<rect x="21.3" y="35.6" transform="matrix(0.7982 -0.6024 0.6024 0.7982 -16.1193 23.9655)" class="st0" width="12.9" height="0.8"/>
	
		<rect x="14.9" y="42.3" transform="matrix(0.7982 -0.6024 0.6024 0.7982 -21.7196 20.1251)" class="st6" width="8.5" height="0.4"/>
	<path class="st7" d="M50.6,41.8C50.6,41.8,50.5,41.8,50.6,41.8C50.5,41.8,50.6,41.8,50.6,41.8z"/>
	<path class="st7" d="M51.5,39.9L51.5,39.9c-0.6,0.9-0.9,1.6-0.9,1.8C50.6,41.6,50.9,40.8,51.5,39.9z"/>
	<path class="st7" d="M50.5,41.8C50.5,41.8,50.5,41.8,50.5,41.8C50.5,41.8,50.5,41.8,50.5,41.8z"/>
	<polygon class="st0" points="47.1,39.3 48.1,37.9 49.1,38.3 51.1,34.2 50.6,33.3 52,32.9 53.2,33.7 53.6,33.3 49,30.1 48.8,30.6 
		49.9,31.4 49.9,32.7 49.3,32.7 48.6,31.6 47.9,32 48.5,33.9 48.2,34.4 46,33.1 44.8,34.8 45.8,42 47.3,42 	"/>
	<path class="st1" d="M50.6,41.8C50.6,41.8,50.6,41.8,50.6,41.8C50.6,41.8,50.6,41.8,50.6,41.8z"/>
	<path class="st1" d="M50.5,41.8C50.5,41.8,50.5,41.8,50.5,41.8C50.5,41.8,50.5,41.8,50.5,41.8z"/>
	<path class="st0" d="M64.4,36l-0.9-2.1l-2.9,0l1.4-5.1l-1.2-0.4l-0.9,2.5c-0.3,0.2-0.6,0.4-0.8,0.5v5.5c3.3,0,6.6,0.5,8.7,1.4
		L65.6,22l1.7,13.1L64.4,36z"/>
	<path class="st0" d="M55.5,33.3c0,0.5,1.2,0.7,1.2,0.7v0.6c0,0-3.2,0.7-4.2,1.1c-0.7,0.3-1,3-1.1,4.3c0.9-1.3,2.6-2.9,5.7-3.1v-3.7
		L55.5,33.3z"/>
	<path class="st5" d="M57.1,22v11.2v3.7c0,0,0,0,0.1,0c0.6,0,1.3,0,1.9,0v-5.5V22H57.1z"/>
	<polygon class="st7" points="77.6,41.7 76.2,39.9 74.9,40.7 74.9,41.7 	"/>
	<rect x="74.9" y="43.7" class="st7" width="2" height="5.6"/>
	<path class="st4" d="M74.2,34.5H71v7.8L70.6,42c0,0,0,0.1,0,0.1h-7.1l3.3,6.9l1.6,1.6v1.2h6.4v-0.8v-1.8v-5.6v-1.9v-1.1l0,0v-0.5
		v-5.7H74.2z"/>
	<path class="st2" d="M85.1,20.8L83,15.1l0,0l-8.9,19.4h0.8v5.7v0.5l1.3-0.8l1.4,1.8h-2.7v1.9h2v5.6h-2v1.8c1.1,0,2.6,0,4.9-0.1
		c4.9-0.3,3-7.4,3-7.4L85.1,20.8L85.1,20.8z"/>
	<path class="st2" d="M95.9,37.6L95.9,37.6l-1.7-1.5L93,36.5l0.7,2.8l1.9,2.2H96v1.2h-4.4l0.3,0.9l4.5-0.3c0,0,0.8,0.7,1.5-0.8
		C98.5,41.1,100,40.8,95.9,37.6z"/>
	<polygon class="st4" points="95.9,37.6 94.6,35.5 95.9,37.6 95.9,37.6 92.1,21.6 92.7,14.6 89.9,11.1 87.8,4.5 80.5,7.1 83,15.1 
		85.1,20.8 85.1,20.8 91.7,36.8 93,36.5 92.8,35.8 93,36.5 94.2,36.1 	"/>
	<path class="st5" d="M92.9,38.4l3,1.9l-0.4,1.1c0,0-2.1-0.1-3.4,2.6c0,0-1.2,0-2.4-1c0,0-4.4-0.1-4.3-4.6l2.1-5
		c0,0-0.2-1.7,0.9-2.4l0.2,1.2l-0.3,0.6l1.7,1.9l-0.6,0.9C89.5,35.9,90.4,37.7,92.9,38.4z"/>
	<path class="st8" d="M31.1,42c-0.1,0-0.2,0-0.3,0c-4.9,0.2-8.8,4.2-8.8,9.1c0,1.2,0.2,2.3,0.6,3.3c1.3,3.4,4.6,5.8,8.5,5.8
		c4.2,0,7.7-2.9,8.8-6.7c0.2-0.8,0.3-1.6,0.3-2.4C40.2,46,36.1,42,31.1,42z M31.1,57.2c-3.4,0-6.1-2.7-6.1-6.1
		c0-3.4,2.7-6.1,6.1-6.1c3.4,0,6.1,2.7,6.1,6.1C37.2,54.4,34.5,57.2,31.1,57.2z"/>
	<circle class="st4" cx="31.1" cy="51.1" r="6.1"/>
	<circle class="st5" cx="31.1" cy="51.1" r="2.1"/>
	<path class="st2" d="M67.8,19.8c0,0-19.4-0.7-21.3,0c-1.9,0.7-0.9,1.4-0.9,1.4h1.7h19.2C68.4,21.2,67.8,19.8,67.8,19.8z"/>
	<path class="st5" d="M69.6,39.5c-0.2-0.3-0.5-0.5-0.8-0.7l-2.3-17.5H47.3l-3.2,11.7l0.4-0.1l0.3,2l1.3-1.6l0-0.1L48.7,22h8.4h2h6.5
		l2.1,16.2c-2-0.9-5.3-1.4-8.7-1.4c-0.6,0-1.3,0-1.9,0c0,0,0,0-0.1,0c-3,0.2-4.7,1.7-5.7,3.1c-0.6,0.9-0.9,1.6-0.9,1.8c0,0,0,0,0,0
		c0,0,0,0,0,0c0,0,0,0,0,0c0,0,0,0,0,0L47.3,42L45.8,42l0.3,2l5.3-0.4l11.9-1.5h0.2h7.1c0,0,0,0,0-0.1
		C70.7,41.8,70.7,41.1,69.6,39.5z"/>
	<path class="st8" d="M58.3,42c-0.1,0-0.2,0-0.3,0c-4.9,0.2-8.8,4.2-8.8,9.1c0,1.2,0.2,2.3,0.6,3.3c1.3,3.4,4.6,5.8,8.5,5.8
		c4.2,0,7.7-2.9,8.8-6.7c0.2-0.8,0.3-1.6,0.3-2.4C67.4,46,63.3,42,58.3,42z M58.3,57.2c-3.4,0-6.1-2.7-6.1-6.1
		c0-3.4,2.7-6.1,6.1-6.1c3.4,0,6.1,2.7,6.1,6.1C64.4,54.4,61.7,57.2,58.3,57.2z"/>
	<circle class="st4" cx="58.3" cy="51.1" r="6.1"/>
	<circle class="st5" cx="58.3" cy="51.1" r="2.1"/>
</g>
</svg>
