<svg id="Layer_1" data-name="Layer 1" xmlns="http://www.w3.org/2000/svg" viewBox="0 0 40 40"><defs><style>.cls-1{fill:#424142;}.cls-2{fill:#f8bc18;}.cls-3{fill:none;}</style></defs><title>Artboard 6 copy</title><path class="cls-1" d="M36.62,26l.89,1.86,1-.43L37,24.15a2.37,2.37,0,0,0-2-1.63l-19.1-3.25-.43-1c-.62.24-1.33.52-1.84.75-.7.32-1,.26-1.17.17l1,.82.25,2.18S29.26,25.12,31,25.41a3.38,3.38,0,0,1,2.87,2.26,1,1,0,0,0,1.5.52l-.62-1.37ZM17.43,22.59,19,21.3l7,1.15-1,1.37ZM27,24,28,22.56l2.09.27Zm.83.1,2.79-1.14,1.76.32-1.81,1.27Zm3.24.57,1.67-1.24,1.33.3-.74,1.66Zm2.67,1.23L34.56,24l1,1.51Z"/><path class="cls-1" d="M9.45,17.11s1-.11,1,2.47l1.6-.05a.61.61,0,0,1-.46,1c-.93.2-.88.71-.88.71l.13.76-1.57.17L10,20.36a.65.65,0,0,1-.57-.66C9.35,19.09,9.45,17.11,9.45,17.11Z"/><path class="cls-1" d="M2.7,22.13l-.48.9v1.28H3v-.64s-.17-.64.7-.64"/><path class="cls-1" d="M7.19,25.39H2.63a1.14,1.14,0,0,0-1.09,1.18v.34a1.14,1.14,0,0,0,1.09,1.18H7.19a1.14,1.14,0,0,0,1.09-1.18v-.34A1.14,1.14,0,0,0,7.19,25.39Z"/><path class="cls-2" d="M6.58,25.94a.77.77,0,0,0-.71.46H4A.77.77,0,1,0,4,27H5.87a.77.77,0,1,0,.71-1.08Z"/><rect class="cls-1" x="3.82" y="24.53" width="2.29" height="0.85"/><rect class="cls-1" x="3.82" y="22.96" width="2.29" height="0.85" transform="translate(-18.43 28.35) rotate(-90)"/><path class="cls-1" d="M21,25.39H16.41a1.14,1.14,0,0,0-1.09,1.18v.34a1.14,1.14,0,0,0,1.09,1.18H21a1.14,1.14,0,0,0,1.09-1.18v-.34A1.14,1.14,0,0,0,21,25.39Z"/><path class="cls-2" d="M20.36,25.94a.77.77,0,0,0-.71.46H17.73a.77.77,0,1,0,0,.62h1.92a.77.77,0,1,0,.71-1.08Z"/><rect class="cls-1" x="17.6" y="24.53" width="2.29" height="0.85"/><rect class="cls-1" x="17.6" y="22.96" width="2.29" height="0.85" transform="translate(-4.65 42.13) rotate(-90)"/><path class="cls-2" d="M10.85,23.8,8.28,23H6.1l2.23,2.17.56.54A1.66,1.66,0,0,0,11,25.53,1.08,1.08,0,0,0,10.85,23.8Z"/><path class="cls-3" d="M12,18.25v-.34l1.27,0,.22-2.71-4.75.15v2.44L9,18.1v1.48s-.43.36-.73.59v1.66h4.87V18.25Z"/><path class="cls-1" d="M9,19.58V18.1l-.28-.37V15.29l4.75-.15-.22,2.71-1.27,0v.34h1.15v3.59h.07l1-4.45.32-2.47c.73,0,1.3-1.32,1.3-1.32l-8.21.46.68.88v5.23C8.58,19.95,9,19.58,9,19.58Z"/><polygon class="cls-2" points="4 18.59 2.22 19.25 2.22 23.04 6.1 23.04 8.28 23.04 8.28 21.84 8.28 20.18 8.28 18.59 4 18.59"/><path class="cls-1" d="M14.15,26.27V26l2.93-2.79-4.06.1.2-1.49H8.28V23l2.57.76A1.08,1.08,0,0,1,11,25.53a1.66,1.66,0,0,1-2.08.22l-.56-.54L8.55,28h6.06v-.49l-.73-.81Z"/><path class="cls-2" d="M19.17,19.1c-1.5-.42-5-1.71-5-1.71l-1,4.45L13,23.33l4.06-.1h2.81a.36.36,0,0,0,.16,0c.14-.06.33-.25.33-.78v0c0-.38,0-.88.07-1.33s.1-1,.1-1S20.67,19.52,19.17,19.1Z"/><path class="cls-1" d="M18,16.48l.74-2.05s-.35-.17-.42-.15-.52,1.35-.75,2A.61.61,0,0,1,18,16.48Z"/><path class="cls-2" d="M17.77,15.77h-.12L17,17.28s1.55,1.91,2.12,2.77.21.85.21.85l-1.45,1.24,0,0c.31.43.26.69.18.82a19.83,19.83,0,0,1,1.81-1.51c.94-.68.24-1.29.24-1.29L18,17.12l.33-.76a.5.5,0,0,0-.07-.37A.61.61,0,0,0,17.77,15.77Z"/><path class="cls-1" d="M18.28,15.09l.1.14c.81-2.47,1.1-2.23,1.1-2.23v-.54C18.82,13,18.28,15.09,18.28,15.09Z"/></svg>