<svg id="Layer_1" data-name="Layer 1" xmlns="http://www.w3.org/2000/svg" viewBox="0 0 200 200"><defs><style>.cls-1{fill:#f8bb16;}.cls-2{fill:#16151b;}.cls-3{fill:#645b63;}.cls-4{fill:#fefefe;}</style></defs><title>icons</title><ellipse class="cls-1" cx="97.25" cy="61.77" rx="15.15" ry="25.07" transform="translate(-16.36 42.68) rotate(-22.88)"/><path class="cls-1" d="M109.49,70c.7.8,1.46,1.65.93,2.79-.66,1.44,2.18.79,1.35,2.45-.2.41,1.1.94,1.63,1.56,1.08,1.25-2,.38-.64,1.49-1.88,2-.62,4.48-1,6.71-1.58.8-1-1.28-1.93-1.42,0-.73.26-1.54-.88-1.73-.7-.11-1.26-.21-1.72.54a13.66,13.66,0,0,1-1.45,1.7l-.5.5-.48.07v0c0-1.47-1.06-1.23-2-1.48-3.14-.82-6.24,0-9.36,0-2.79,0-2.79,0-2.57,2.93v3.57c4.17-.4,4.29-.56,2.8-3.67,3.65.21,7.13-1.32,10.79-1,.19.37.88.27.83.88-.65.3-.27.94-.45,1.39l-6.75.56c-1-.85-1.7.07-2.68.34.77.47,1.49.89,1.25,1.88l-1.3.46c-.46-.14-.87-.6-1.41-.18s-.1.78,0,1.17c-1.27.18-1.72,1.78-3.1,1.77-.95-1.85-1.83-.29-2.67.09-1.27.57-2.33,2.2-3.93.64.47-2.35,2.25-2.41,4.1-2.36s.75-1.34.81-2.13q0-.57-.06-1.14a56.78,56.78,0,0,0,.47-13c-.94,1.17-.46,2.06-.72,2.83-3.42,1-4.14,2.27-3.19,5.62,1.12-.53,1.6-2.15,3.17-1.91v2.22l-5,1.93V73.91c-1.22,2-.68,3.62-.87,5.14-.06.46.23,1.22-.63,1.16-.51,0-.6-.58-.7-1s.41-1.62-.58-1.68c-.79-.05-1.17.87-1.48,1.57q-1.36,3.12-2.68,6.27c-.56,1.34-1.54,2.64,1.37,2.3,1.38-.16,2.31-.88,3.48-1.22a3.19,3.19,0,0,0,.64-.43c1.49,1.87,3.53.48,5.25.91a2,2,0,0,0,.08,1.44,1.73,1.73,0,0,1-2,.89c-1-.64-2-1.09-2.76.32l-.9,0c-.08-.52-.33-.83-.9-.77-4.71.55-9.41,1.15-14.16,1.29-.78,0-1.37.15-1.23,1.13-1.14,0,0-2.12-1.64-1.74-.93.21-.83.91-1,1.52,0,0-.11.09-.11.13a1.72,1.72,0,0,0,.11.3l.13.45-3.09-1.81c.74,0,1.63.07,1.65-1a.66.66,0,0,0-.79-.63c-.78.24-1.35.72-.85,1.67C56.9,89.85,55.3,93,52.62,94c-.16.06-.11.69-.15,1.06l0,0c-1.36-.31-2.38.76-3.64.9-.06-.49.11-1-.43-1.39,0-.52-.14-1.1.5-1.4.3,0,.67.12.89,0,4.21-2.58,8-5.79,12.32-8.23.93-.52.94-1.64.9-2.65.13-1,.13-1-.95-1.81l.52,1.32-1-.07a1,1,0,0,0-.92-.36c.46-1.35-.35-1.75-1.45-1.94l-.4-.34h-.87c-.13-.25-.28-.29-.45,0l-.51,0-.41.52a.72.72,0,0,0,.06.29l-.07,1q0,.19,0,.39l-.09.1c-.72-.07-1.6.08-1.55-1.1,0-.3,1.1-.52.12-.81-.34-.1-1.16,0-1.05.81.07.52.19,1,.28,1.55l-1.45,0c-.21-.37-.33-.9-.65-1.08s-.6.25-.68.62a19.72,19.72,0,0,0-.41,2.18c0,.46.25,1,.71.87s.19-.79.29-1.2c.54-.76,2.06.07,2.2-1.34a4.19,4.19,0,0,1,.65,0c.5.1.27.29.11.58-.66,1.17.18,1.18,1,1.21,0,.6,1.6.15.83.64-2.89,1.83-4.62,4.9-7.53,6.63.38-.75.72-1.48-.12-2.17-.28-.23-.57-.66-.93-.36-.68.56-.3,1.38-.33,2.09a6.25,6.25,0,0,0,.09.89c-.78,0-1.7.33-2.07-.81-.09-.29-.57-.57-.69-.35-.66,1.24-2.55.9-3.16,2.39,1,.31,1.94-.56,2.71.24,0,.24-.11.58.36.44l-.05-.06c.34,1.26-1.17,2-.92,3.22l0,0c-.32-.48-.62-.2-.78.09s-.19.69.3.82.44,1,1,.61c.79-.48,1-.26.73.52-.35,1-3.29,2.52-4.38,2.24a18,18,0,0,0,.42,2.14c.11.36.11.57-.21.71s-.7-.06-.65-.37c.21-1.45-1.52-2.06-1.43-3.43l2.32-1.13.4-.35v0a1.76,1.76,0,0,0,0-2.78h0c-.51-1-1.07-.75-1.64-.05a4.41,4.41,0,0,1-2,1.43l-.87,0-.89-.05-.71-.55-.1-.09-.14-.72c-1.6-4.69-5.4-7.72-8.5-11.27a3.22,3.22,0,0,0-2.45-1.49c-1-1.54-2.65-2.18-4-3.19a21.86,21.86,0,0,0-1.11-2.42c-.84-1.38-1-2.5.84-3.13a1.43,1.43,0,0,0,.9-1.63c1.34-.89,2.85-.51,4.3-.58-.25.7-1.43,1.16-.59,2.15s4.22,1.49,5.18.65c1.22-1.07,2.72-1.28,4.11-1.83a4.2,4.2,0,0,0,2-1c1.75-2.24,4.4-3.37,6.49-5.23,2.71-2.4,6.46-3.36,9.48-5.77,2.21-1.77,4.63-3.93,7.57-4.9l.19.11-.2-.1a5.68,5.68,0,0,0,3.53-4.9c1.24.49.59,1.67,1.11,2.33,3.54-3.36,8.68-4.45,11.37-8.73,1.15,0,1.87-1.07,3-1.25,1.39.25,2.36-.8,1.87-1.68-.74-1.32-.1-3.36-2.05-4-.61-.21-.51-.84-.52-1.36h0a.94.94,0,0,0,.44-1l.47-.19c.4.91.87.87,1.4.11l2.23.65c.06.81-1.29,1.6.11,2.47s5.62.22,6.79-1.18c.84-.42,1.22-1.89,2.58-1.13-.73,1.22,1.05,1.09,1,1.92.33,1.87,1.6,2.64,3.33,2.88,1.5.56,3,1,3.67,2.8a6.72,6.72,0,0,0,2.64,3.3c1.71,1.12,1.65,3.29,2.94,4.68.44.48-.48,1.32-.72,2l-1.34-.5c-1.19-.92-1.64.4-2.4.78l-1.37.94-.53.36c-.33.14-.92.3-.68.67.38.57.7-.09,1-.3l.5-.38a2.36,2.36,0,0,0,1.35-.92l1.1-.19a33.1,33.1,0,0,1-9.31,6.13c-.74.35-1.88.66-2,1.18-.59,1.89-2.32,2.09-3.63,2.94a13.08,13.08,0,0,0-3.43,2.45c-.54.07-.82.24-.23.69l.13.76c.16.35.25.8.81.5l-.06,0c-.36.4.14.9.2.91a1.36,1.36,0,0,0,1.29-.9l0,0a1,1,0,0,0,1-.47l.38-.24.9-.67c1.11-.27,1.47-1.71,2.73-1.76.79,1.07-1.5,1.11-.61,2.33.26-.81,1.06-1,1.54-1.5a1.23,1.23,0,0,0,1.38-.92l0,0a1.2,1.2,0,0,0,1.4-.93l0,0a.83.83,0,0,0,1-.41l.44-.52c1-.28,2.63.78,2.69-1.35l0,0c2-.59,3.71-2,5.82-2.43.42-.09,2.94-.36,1.34-2.28.25-.35.59-.7-.2-.83s-.13-.56-.12-.86c2.22-.15,3.54,2.25,2.76,5-1.24.4-1.43,2-2.81,2.35a8,8,0,0,0-3.22,2.32,50.15,50.15,0,0,1-6.5,5.33c-2.41,1.65-6.29,2.65-4.87,7.08.15.47-.24,1.15.42,1.39.49.18.77-.35,1.13-.6q7.34-5.06,14.69-10.12c.83-.57,1.33-.73,1.27.6C108.73,69.46,109.23,69.72,109.49,70ZM70.72,80.5a.46.46,0,0,0,.82-.25c0-.63-.52-.23-.83-.25l0-.51q0-.17,0-.33l0-.52c.5.27.71.14.59-.44a.79.79,0,0,0,.4-.06c.53.37.95.54.81-.41h.95c.72,0,.72-.35.44-.85.26-.18,1.19.25.52-.76-.56-.85-1.14.69-1.52-.17a4.41,4.41,0,0,1-.1-1c.05-.4.45-.9-.34-.91s-.8.44-.54,1a3.69,3.69,0,0,1,.15.86l-.39.43c-.93-1.44-.93-1.44-1.79-.47l-.66.1c-.4.37-1.44.56-.38,1.35l.48,1.36,0,.5c-1.71-.08.17,1-.39,1.24l.18.31.21-.28h0l.62.09c.06.5.39.59.78.44.21-.08.3-.3,0-.48Zm11.87-9.66c.36.21.73.51,1.09,0a1.64,1.64,0,0,0,.15-.56l-1.27.12c-.71.1-.86-.61-1.3-.91-.63-.28,1-1.36-.5-1.38-.86,0-1.17.34-1.33,1.15-.21,1,.81,1.59.84,2.5-1.41.41-1.81-1.07-2.77-1.55-1.53-.76-.67.4-.79.77s-1,.44-.82,1.12c0,.08.28.18.38.14A1,1,0,0,0,77,71a2.48,2.48,0,0,1,1.7,1.69c.24.56.51.87,1.16.74.85-.17.3-.88.53-1.28.83.38.53-.57.89-.75C81.76,71.39,82.28,71.38,82.59,70.84ZM37.51,96c.76-1.46,4.17-.72,3.13-3.65,1.53-.61.31-1.3,0-1.89a.85.85,0,0,0-1.21-.23,1.93,1.93,0,0,0-1.09,1.85A5.66,5.66,0,0,1,37.51,96ZM75,69.64c.12.05.26.17.34.13s.11-.21.16-.33c-.12-.05-.26-.17-.34-.13S75.06,69.52,75,69.64ZM48.49,86.9l-.34-.19a1.84,1.84,0,0,0,0,.36s.15.1.17.09A1.62,1.62,0,0,0,48.49,86.9Zm26.61-.18c-.05,0-.13,0-.15,0a.47.47,0,0,0,0,.18l.26-.05Zm-2.83-37.1.09-.3-.17,0Z"/><path class="cls-2" d="M131.34,134.23c-1.06.57-2.48-.88-3.09.11-.5.82-.06,2.21,0,3.34a14.61,14.61,0,0,1-3.57,10c-3,3.52-7.08,3.26-11,3.94-3.49.6-6-1-8.38-3a3.42,3.42,0,0,1-.94-1.78c-.45-1.41-.9-2.82-1.5-4.69a31.11,31.11,0,0,1-3.36,6.08c-1.51,2.39-3.62,4.21-6.5,4.52-4.39.47-8.79.54-13.06-.94-2-.69-4.87-5.16-4.76-8,.08-2.1-.35-2.92-2.66-2.77a5.82,5.82,0,0,1-5.73-3.38c-.9-1.69-2.09-1.66-3-.1a13.78,13.78,0,0,1-14,6.43c-2.57-.44-7.57-5-7.89-7.53-.45-3.59-1.67-6.08-5.87-6-1.23,0-2.5-1-3.72-.9-2.78.18-2.81-1.28-2.54-3.33.15-1.13.77-2.75-1.42-2.81-2-2.73-2.56-6-3.31-9.2a2.64,2.64,0,0,0-.8-1.77,5.05,5.05,0,0,1-.52-3l1.87,1.47.67.67a41.9,41.9,0,0,1,5.24,7.79c.41,3.88,3.6.2,4.92,1.79a1,1,0,0,0,1.36-.32,6.12,6.12,0,0,0,.35-1.29l.55-.52c-.36-.35-.62-.07-.89.14-1.49-.56-1.34-1.58-.37-2.34a4.29,4.29,0,0,1,2.77-1.17c1.54,0,3.21.24,4.67-.61l.31.45c-.49,2.17.79,3.2,2.54,3.94l1.43,2.37c.39,1.18.91,2.21,2.4,2.18.21.87-2.31,2.27.22,2.55a38.9,38.9,0,0,1,7.2,1c2.27-1,1.22-2.92,1.25-4.52,0-.48-.47-.47-.86-.48s-.87.11-.9.71c-.05.83-.15,1.65-.22,2.47-1.8.19-1-1.09-.87-1.75.28-1.14,0-1.44-1.16-1.44a5.57,5.57,0,0,0-2.36.17c-.8-.49-1-1.09-.3-1.82l-.07-.09.43-.09a.37.37,0,0,0,.51-.27l1.41-1,0,0,1.53-1.06h0c.42-1.79-.75-3.69.36-5.44a8.84,8.84,0,0,1,1.94-2.28c.94-1,1.69-.06,2.39.11,1.92.46-.22-2.08,1.36-1.68a6.43,6.43,0,0,0,.65.1C65,109,67,110.84,66.8,107.75c0-.38.85-.45,1.31,0a2.48,2.48,0,0,1,.8,1.57c.1,1.1,1.07.49,1.57.8a.54.54,0,0,0,.9-.48c-.38-1.15,1-1.58.94-2.57h0c1,.68,1.47-.83,2.33-.7l1.14,6.48c-1.27.76-2.6-.45-3.88.15.19,2,.55,3.58,3.34,3.34a2.92,2.92,0,0,1,3.21,2.76c-1.13.28-2.29-.2-3.67.5l5.43.59.1,1.81c-.34.09-.77.06-.74.59,0,.06.09.15.15.16.53,0,.48-.44.58-.76l.86.11a.28.28,0,0,0,.5,0c1.51-.3,3.13.46,4.56-.51,2.88.85,5.81.26,8.72.37l6.19-.06h8.46l5.28.06c2.78-.18,5.59.33,8.34-.45a33.31,33.31,0,0,1,3.76.11c1.63.22,1.86-.58,1.65-1.87,1.18,1.17-.14,2.82.77,4C129.18,127.41,130.22,130.83,131.34,134.23Zm-58-13.62c0-.35.29-.8-.39-.82s-1.74-.58-1.9.8c-.86.36-1.51,1.17-2.52,1.23l-.23-.74c.6-.09,1-.32.79-1-.63-2-1.79-.17-2.65-.39a1,1,0,0,0-1.25.64c-.05.56.67.6,1.1.8l.05.56-.06.18-1.09.19a.51.51,0,0,0-.33-.15c-.41-.47-1-.21-1.49-.35a1,1,0,0,0-.13-.12s-.06,0-.1,0l.26.07c.23,1.89.3,3.9,3,3.88l1.06,1.21c1.19,1.61,2.65.8,4.19.67-.44-1-1.35-.55-1.82-1l.36-.13c2.1.56,3-.25,2.86-2.4a12.45,12.45,0,0,1,.24-2.19ZM51,129.21c1.28-.44,2.82,1.39,4-.63-1.45.6-2.15-1.81-3.7-.68-.76-1-1.8-.84-2.84-.74-1.31-.69-2.77-.4-4.15-.64-.89-.4-1.78-.84-2.68,0-1-1.29-2.66-.53-3.85-1.24-.36-.07-.73-.16-1.09-.2s-1.05-.43-1.19.44.32,1.06,1,1.09l1.33,0a5.36,5.36,0,0,0,3.76.77,3.93,3.93,0,0,0,2.58.55l4.3.75Zm69.81,17.28c1.3.14,1.84-.9,2.35-1.72.3-.5-.88-.34-1-.93l.88-1.71a6.78,6.78,0,0,0,1-4.6c.57-1.84-.88-3-1.43-4.53-1.83-2.92-3.6-3.73-7.64-1.67-.81,1.32-2.51,1.68-3.21,3.25-1.65,3.74-.24,6.93,1.45,10.13-.15,2.17,1.21,3.16,4.12,3A5.55,5.55,0,0,0,120.81,146.49ZM96.37,145c.41,0,.51-.29.61-.59,1.51-1.77,1.08-3.87,1-5.91.38-2.16-.07-4-2.16-5.08-2.18-2.56-6.28-2.42-9.18.31a5,5,0,0,0-1.9,3.32c-.22.42-.54.86.29,1l0,0c-1,0-.82.7-.89,1.28a3.49,3.49,0,0,0,0,2.37l.29,1.31a3.67,3.67,0,0,0,1.06,2.35l.29.83c-.14,2.12,1.41,3,3,3.46,2.3.65,4.67.53,6.56-1.29.71-.69,1.82-1.32.91-2.61l.15-.65Zm-.56-18,0,0-.9-.44c-.24-.31-.52-.51-1.11-.15l1.13.13c-.59.87-1.49.45-2.26.5a1.15,1.15,0,0,0-1.13,1.17c0,.8.76.47,1.21.52s1.19-.08,1.73.31,1.43,1,1.88.08C96.61,128.56,96.91,127.49,95.81,127Zm-37.12,3.46a9.76,9.76,0,0,0,3.34.57c.55-.07,1.2.26,1.61-.48,1-1.74,1.38-1.72,2.56-.17.54.71,1.61,2,2,1.58,1.05-1.28.93.08,1,.35.19.53.4,1.49-.5,1.33-1.05-.2-1.41.67-2.25.87,2.39,2,5.09.94,7.63,1,.62,0,2.28-4.29,1.93-4.78-.23-.32-.53-.1-.81-.11l-7.29-.22c-.83,0-1.66,0-1.45-1.3.17-1-.52-1.2-1.41-1.22-2.16,0-4.31-.12-6.3,1a15.93,15.93,0,0,1-2-.19c-.47-.1-1-.67-1.13.29-.1.63-.11,1.2.81,1.23C57.21,130.25,58,130.39,58.69,130.49Zm20.22-8a4.71,4.71,0,0,0-3.19-1.28c-.87-.12-.85.62-.88,1.22s.33.73.85.55C76.66,122.66,77.75,123.28,78.91,122.5Zm-41.17,1,.12-.44c-.88-.34-1.76-.69-2.65-1a.72.72,0,0,0-1,.53c-.17.72.25.92.88.91C35.95,123.52,36.84,123.53,37.74,123.53Zm35.81-13.86c-.64,0-1,.23-1,.9s.31,1,.94,1,.87-.22.9-.77S74.26,109.72,73.56,109.67ZM40.45,117c0-.35-.29-.45-.58-.5s-.82,0-1,.37.21.66.62.64S40.3,117.5,40.45,117Z"/><path class="cls-3" d="M44.79,115c-1.47.85-3.13.61-4.67.61a4.29,4.29,0,0,0-2.77,1.17c-1,.76-1.11,1.78.37,2.34l.34.38a6.22,6.22,0,0,1-.35,1.29,1,1,0,0,1-1.36.32c-1.32-1.59-4.51,2.09-4.92-1.79.64-.5,1.25-1.06,1.93-1.5,1.55-1,.79-2.12.09-3.07s-2.89-1.25-1.84-3.35c.14-.27-.62-.23-.91-.4-1.65-1-3,.81-4.51.54l-.67-.67c.27-.84.27-.83,1.63-1.17.12,0,.18-.32.25-.49.25-.62.8-1.39.18-1.88-1.18-.95-2.49-.12-3.66.22-1,.29-.66,1.16-.27,1.85a5.05,5.05,0,0,0,.52,3c-.13.59-.6,1.14-.25,1.8-1.61-.16-1.27-1.66-1.77-2.58-.22-.39-.35-.86-.89-.94s-.59.28-.78.64c-1.86,3.54-.43,6.81,3.53,8,.4-.72-.21-1.71.62-2.31l.85,6.66c-.92.31-.5,1.06-.54,1.66l.14.8a1.86,1.86,0,0,1-2.7.68c-1.08-.68-2.52-.48-2.93-2.55-.84-4.28-1.38-8.59-2-12.88-.11-.75-.2-1.59.84-1.81,1.82-.39,1.43-1.76,1.18-2.88a13.52,13.52,0,0,0-2.52-5.29C15,98.95,14.23,96,12.6,93.48c-.18-.27-.28-.53.06-.76.71,0,1.53-.9,2.12.38a1.18,1.18,0,0,0,1.75.41c.71-.58-.25-1-.41-1.45a7.33,7.33,0,0,1-.18-1.53c.52-1.68-.29-3.36,0-5l.89-1.85c2.28.47,5,0,6.7,1.71,1.4,1.46,3.29,2.2,4.52,3.78.4.51.88,1.12,1.72.68l.07.12c.55,1.61,1.14,3.18,3,3.78l1.77,1.92c.14.66.44,1,1.13.59l.1.1c-.36.37-.93.83-.43,1.3,1.08,1,1.46,2.61,2.76,3.45a17.81,17.81,0,0,0,2.9,4.26c1.42,1.4,1.64,4,2.38,6.08C43.31,112.83,44.25,113.83,44.79,115Z"/><path class="cls-1" d="M120.93,90c1.26,2.18,3,4.12,3.63,6.62.22.8.89.66,1.43.83.06.77-.67,1.17-.86,1.77s-.46,1.83.71,1.66,3.1.13,2.54-2.17c-.19-.8.24-.93.84-.94.83,0,1.67,0,2.5,0,2.18,0,4.39.3,6.52-.49-1.24,2-2.51,4-3.72,6.07a3.5,3.5,0,0,0-.52,3.45c1.73-3.42,2-3.76,3.6-4-1.37,2.57-1.36,4.5.23,5.66a13.91,13.91,0,0,1,2.56,2.24c2.36,2.82,6.45,1.73,9,4.1.65.6.92-.51,1.42-.73a.56.56,0,0,1,.39.06c.19,2.45,2.35,1.36,3.55,2a13.79,13.79,0,0,1-1.49,4.06l-.23-.5c-.47.22-.07.56-.11.84a4,4,0,0,1-4.68,2.82c-.35-1-.11-2.4-1.82-2.27h0c-2.29-.2-2.57.17-1.78,2.3l-.17,1.34-2.16-.11a28.56,28.56,0,0,1-4.31-2.67,1.87,1.87,0,0,1-.54-2.71c2.14.58,3.48.33,2.59-2.4a5.41,5.41,0,0,1,0-1.57c.46-.48.78-1.19.23-1.58a2,2,0,0,0-2.5.1c-.7-.25-1.54-1-1.81.45-.54.29-1.21.28-1.69.51-2.21,1-2.59,0-3.51-1.9-.83-1.68-.57-3.55-1.67-5.47-.32,1.78-1.38,2-2.58,1.89l.64-2.15c1-.33,1.29-1,.71-1.85-.4-.57-.21-1,.26-.92,2.43.32,2.2-1.83,3.2-3.08a5.87,5.87,0,0,0-4.73,4.41,20.37,20.37,0,0,0-1.91,4.25c-.74,1.85.09,3.92-1.09,5.63-.72-1.09-1.5-1-2,.09a19,19,0,0,1-3,3.92c-1.22.43-3.24-1-3.55,1.52-.18-.89-.83-.93-1.55-.92-1.28,0-2.57,0-3.85,0,0-.71-.43-1-1.07-1.06,1-.87.44-2,.44-3l.91-.13c0,.5.08,1,.05,1.51-.09,1.64.68.67,1.22.42,2.47,1.36,3.92-.17,5.34-1.85a1.37,1.37,0,0,1,1.21-.48c0,.36-.29.81.24,1.06l.37-.93c.25-.15.59-.24.74-.47a24.11,24.11,0,0,0,3.88-17.19,9.79,9.79,0,0,0-2.21-5.53A2.63,2.63,0,0,1,120,90Z"/><path class="cls-1" d="M154.79,116.13c-1.2-.63-3.36.46-3.55-2a.56.56,0,0,0-.39-.06c-.5.22-.77,1.32-1.42.73-2.58-2.36-6.67-1.28-9-4.1a13.91,13.91,0,0,0-2.56-2.24c-1.59-1.16-1.6-3.09-.23-5.66-1.55.26-1.87.6-3.6,4a3.5,3.5,0,0,1,.52-3.45c1.21-2,2.47-4,3.72-6.07,1.65-1.29,3.68-2.37,5.55-1.64,1.54.6,3.23-.65,4.47.77.15,1.08,1.26,1.17,1.84,1.81,1.59,3,1.59,3,4.81,1.27-.52-.48-1.68-.15-1.63-1.25,1.62.12,1.9-.88,1.82-2.19-.24-4.1.58-8.19,0-12.3-.06-.47.29-1,.44-1.49,1.24.11,1.37,1,1.36,2,0,3.95-.06,7.9,0,11.84,0,1.42-1.32,2.42-1,3.87V101l-.4.42,0,.48-.42.48.43,1.31a6.1,6.1,0,0,0-.44.71c-1.2,2.66.52,5.27.16,7.92-.07,1.23-.43,2.48.22,3.67Z"/><path class="cls-3" d="M178.54,113.29c1.93.63,1.58,2.38,1.79,3.8.25,1.75-.24,3.56.35,5.3a2.07,2.07,0,0,0,2.26,1c.87-.25,2.25.43,2.63-1.05a2,2,0,0,1,1.68-1.23c1.13,1.42,2.26,0,3.39,0,0,1.38-.51,3,1.74,3.18.29,0,.61.17.57.56a.81.81,0,0,1-.74.74c-1.42.08-1.51,1-1.44,2.08.1,1.44-.62,1.65-1.82,1.41-2.83-.57-5.54.33-8.28.78a1.3,1.3,0,0,0-1.26,1.34c0,2.27,0,4.54-.07,6.81,0,.88.86,1.16,1.24,1.79a2.87,2.87,0,0,1-2.55.63c0-2.84,0-5.7,0-8.55,0-1.1-.08-2.06-1.6-1.59a6.09,6.09,0,0,0-2.67.11c-.66.21-1.13.35-.79-.7.17-.53-.38-.72-.9-.57s-1.06.32-.83.82c.71,1.52-.34,1.18-1.15,1.25-1.18.1-2.35.27-3.53.41.13-.6.79-1.33.11-1.77a2.54,2.54,0,0,0-1.89,0c-.82.28-.3,1.18-.56,1.75l-6.84.41a2.52,2.52,0,0,0-.07-.42c.2-.9.24-1.91-1-1.54s-3.31-1.22-3.37,1.54c-2.42,1.13-5,.47-7.45.45l.06-1.78c.75,0,1.51,0,2.26,0,2.87.1,3.15-.18,2.59-3-.14-.71,0-1.45.59-1.37,2,.26,3.68-1.17,5.69-.69,1.45.35,2-.55,2.07-1.93a16.85,16.85,0,0,1,.1-4.06l.15-.08-.15-.22-.05-1c.31.16.82.2.75.67-.33,2.06.89,2.27,2.45,2.1-.2.39-.37.8-.6,1.18-1.32,2.25-.71,3.42,1.88,3.49,1.43,0,2.87,0,4.31,0,1.12,0,2.31.19,3.05-1,1,.21,2,.69,3.1.4,1.24.31,2.37-.33,3.57-.39a1.09,1.09,0,0,0,1.06-1.58c-.64-2,.08-4-.14-6C178.1,115.69,177.54,114.32,178.54,113.29Z"/><path class="cls-1" d="M117.71,115.6a1.37,1.37,0,0,0-1.21.48c-1.41,1.69-2.87,3.22-5.34,1.85,0-1.63.33-3.28-.21-5.2A5.65,5.65,0,0,0,109.9,116l-.91.13c-.29-.52-.62-1-.86-1.57-1.16-2.66-.47-7.1,1.32-8.76,1,.86.34,2,.48,3,.09.61-.3,1.57.67,1.64s.71-.95.73-1.52c0-1.27,0-2.55,0-3.82,1.43.22,2.77-1.51,4.25-.21-.12,1.74-1.91,3.18-.64,5.22l1.39-5.15c.3-1.37,1.65-2.39,1.33-4a10.86,10.86,0,0,0-.94-4.13c-.41-1.17-1.46-1.37-2.6-1.3-.77,0-1.85.1-1.71,1,.27,1.71-1.1,2.91-1,4.49l-.68-.72c-.77.67.71,2.18-1.1,2.49l0-5.37c.24-.19.24-.38,0-.58l0-3.08c0-.06.13-.13.12-.17a2.09,2.09,0,0,0-.17-.35c-.16-1.52.33-3.11-.42-4.58.94-.52,2.29-.73,1.77-2.36,1.06-.6,2.13.66,3.2,0l.9,0,.94-.47a1,1,0,0,0,.88.59c0,1.66-.08,3.32-.08,5,0,.51-.07,1.19.64,1.26,1,.1.74-.74.83-1.28a6.32,6.32,0,0,0,0-.91c0-.53-.08-1.21.49-1.4.73-.25,1,.5,1.34.95a2.63,2.63,0,0,0,.73,2.49,9.79,9.79,0,0,1,2.21,5.53,24.11,24.11,0,0,1-3.88,17.19c-.15.22-.49.31-.74.47l-.21-.18.06-.86a.59.59,0,0,0,.17-.09s0-.09,0-.14l-.19.22c-.45.16-.51.52-.46.93Z"/><path class="cls-2" d="M156,101V100a2.17,2.17,0,0,1,2.22-.79c3.27.23,6.67-.34,9.66,1.71.53.36,1.48.11,2.24.11,2.86,0,3.71,1.4,2.44,4-.13.27-.23.55-.35.82-.85.48-2.57-.63-2.64.82-.12,2.45-.94,4.74-1.16,7.14-.88-.1-2,.87-2.1.78-2.37-1.47-4.93-.24-7.34-.66-.41-.07-1,.05-1-.59s.34-.71.81-.91c2-.85,2.44-2.55,2.12-4.47-.35-2.1-1.56-3.36-3.85-3.24-1.31-.78.42-2.52-1-3.26A.39.39,0,0,0,156,101Zm7.73,2.23c.11-1-.09-1.82-1-2-.18,0-.41.17-.61.27Z"/><path class="cls-1" d="M75.76,44.54c-2.69,4.27-7.83,5.36-11.37,8.73-.52-.66.13-1.84-1.11-2.33a5.68,5.68,0,0,1-3.53,4.9h0c-2.94,1-5.36,3.13-7.57,4.9-3,2.42-6.77,3.37-9.48,5.77-2.09,1.86-4.75,3-6.49,5.23a4.2,4.2,0,0,1-2,1c-1.39.55-2.9.76-4.11,1.83-1,.84-4.4.26-5.18-.65s.34-1.45.59-2.15c3,1.55,4.49-1.11,6.39-2.45,2.21-1.55,4.26-3.37,7-4,.52-.12.92-.38,1-.82.17-1.88,1.7-2.13,3-2.14,2.39,0,4.06-2.06,6.42-2,1.28-.91,2.5-1.93,3.86-2.71,1.79-1,3.74-1.81,5.28-3.24.93-1.14,2.4-1.58,3.36-2.79.79-1,.66-1.49-.16-2.15.17-.82.37-1.62,1.32-1.89a2.61,2.61,0,0,1,1.41,2.28l-.18.21s.1,0,.12,0a.67.67,0,0,0,.06-.17c1.21.31,2-.55,2.76-1.15,2.4-1.81,5.55-2.28,7.8-4.37ZM65.82,51c-.13-.07-.25-.18-.37-.17s-.23.12-.35.19c.12.06.24.18.36.18S65.69,51.11,65.82,51Z"/><path class="cls-1" d="M109.49,70c-.26-.26-.76-.52-.75-.77.06-1.33-.44-1.18-1.27-.6q-7.34,5.07-14.69,10.12c-.36.25-.63.78-1.13.6-.66-.24-.27-.93-.42-1.39-1.42-4.43,2.46-5.43,4.87-7.08a50.15,50.15,0,0,0,6.5-5.33,8,8,0,0,1,3.22-2.32c1.38-.38,1.57-2,2.81-2.35q0,.67,0,1.35a.85.85,0,0,0,.82,1C108.57,65.46,109.89,67.71,109.49,70Z"/><path class="cls-1" d="M58.39,54.44c-1.55,1.43-3.49,2.21-5.28,3.24-1.36.78-2.58,1.8-3.86,2.71-.35-1.41,1.21-1.83,1.51-2.87,1.55-5.35,5.87-8.76,9-13a20,20,0,0,1,5.94-5.81c1.06-.62,2.41-.46,3.24-1.46l-.08.41a11,11,0,0,1-.18,1.7c-2,.07-1,1.52-1.18,2.4-1.7,1.82-2.67,4.21-4.61,5.84-1,.27-1.16,1.07-1.32,1.89a7.46,7.46,0,0,0-3.79,4C57.5,54.18,57.6,54.49,58.39,54.44Z"/><path class="cls-1" d="M157,104.71c2.29-.11,3.49,1.14,3.85,3.24.32,1.93-.11,3.63-2.12,4.47-.47.2-.85.38-.81.91s.62.52,1,.59c2.41.42,5-.82,7.34.66.15.09,1.22-.88,2.1-.78l3.89-.13c.06,1.94.23,3.89.14,5.83-.07,1.53.43,2.25,2,2.13-.12.25-.18.59-.38.74-.51.39-1.57-.34-1.72.91s1.15.75,1.39,1.43c-1.09.3-2.08-.19-3.1-.4a25,25,0,0,1-.36-6.43c.26-1.11.23-1-.33-1.16a12.7,12.7,0,0,0-6.47.21c-1.24-.78-2-.81-2,1,0,1,.48,1.77.49,2.7-1.56.17-2.77,0-2.45-2.1.07-.47-.44-.51-.75-.67.34-2.42-1.66-1.43-2.7-1.85.18-.83,1.52-.18,1.56-1.22-2.1.27-1.6-1.17-1.54-2.32,2-.07,2.46-1.31,2.8-3s-1.06-2-1.51-3C157.79,105.78,157.34,105.26,157,104.71Z"/><path class="cls-3" d="M105.87,55.83c0,.29-.79.71.12.86s.45.48.2.83c-3.66,1.79-7.53,3.18-10.86,5.61l-1.16.9L93,64.41c-.24-.3-.32-.09-.39.13l0,0c-.46,0-.85.1-.91.65l-.49.35c-1.26,0-1.62,1.48-2.73,1.76-.4.09-.89.06-.9.67l-.38.24c-.42,0-.86-.1-1,.47l0,0H84.78l.06,0c-.12-.41-.44-.49-.81-.5l-.13-.76.23-.69a13.08,13.08,0,0,1,3.43-2.45c1.3-.86,3-1.06,3.63-2.94.16-.52,1.3-.83,2-1.18A33.1,33.1,0,0,0,102.55,54a1.74,1.74,0,0,0,1-1l1.34.5.61.63.28.7Z"/><path class="cls-3" d="M142.33,124.61l2.16.11c1.26.73,3,0,4.16,1.18-.78.89-1.75.56-2.6.65-3.49.38-7-.41-10.51.51l-1.9.32a1.63,1.63,0,0,0-1.36-.71c-.94,0-1.89-.13-1.81,1.31,0,1,0,2,1.44,1.35.6-.26.74.84,1.35.37l1.23,0c2.1,1.15,4.42.11,6.58.64L141,132a1.47,1.47,0,0,0-.05.38c-1.19,0-2.38,0-3.57,0-2.24-.1-4.47-.25-6,1.84-1.12-3.4-2.17-6.82-1.92-10.48l.14.43c.06,1.45,1.17,1.36,2.12,1.39,2.63.07,5.26.12,7.88.08.92,0,2,.4,2.76-.49Z"/><path class="cls-1" d="M155.59,82.29c-.16.5-.51,1-.44,1.49.54,4.11-.28,8.2,0,12.3.08,1.3-.19,2.3-1.82,2.19h0a1.14,1.14,0,0,0-.57-1.07c0-3.55-.07-7.1.08-10.64.1-2.2-.21-3.89-2.73-4.31a14.89,14.89,0,0,0,3-3.16c.53-.83,1.64-.52,2.51-.33a1.43,1.43,0,0,1,1.07,1.31c.1.73-.5.78-1,.87C153.81,81.27,155.42,81.83,155.59,82.29Z"/><path class="cls-1" d="M150.07,82.25c2.52.42,2.83,2.12,2.73,4.31-.15,3.54-.07,7.09-.08,10.64l-1,.57-1.65.48c-.58-.64-1.69-.73-1.84-1.81,1.61.8,1.37-.49,1.37-1.3,0-3.53,0-7.06,0-10.59C149.64,83.78,149.27,82.89,150.07,82.25Z"/><path class="cls-3" d="M21.24,72.38a1.43,1.43,0,0,1-.9,1.63c-1.88.63-1.68,1.75-.84,3.13a21.85,21.85,0,0,1,1.11,2.42c-1.38-.49-2.6.8-4,.33-.14-1.52-2-2.33-1.7-4,1.49-1.31.7-2.65-.08-3.84-1.36-2.08-1.42-2,1.11-2.94a4.64,4.64,0,0,1,1.29,2.07c.4,2.2,1.32,2.53,3.28,1.15Zm-3.1,2.28c0-.47-.06-.94-.66-1s-1.06.17-1,.88c.05.39-.2,1,.41,1.08A1,1,0,0,0,18.14,74.66Z"/><path class="cls-1" d="M78,36.21c0,.52-.09,1.15.52,1.36,2,.68,1.32,2.72,2.05,4,.49.87-.49,1.93-1.87,1.68a4.45,4.45,0,0,0-1.23-4.39c-.91-.84-1.71.83-2.71,1-1.66-.87-3.06-2.55-5.29-1.71-.1,0-.18-.57-.59-.53l.08-.41c1.75-1.26,3.36-3,5.84-1.53.21.41.44.92,1,.75s.12-.63.15-1a6.74,6.74,0,0,1,.27-1.1l.94,0c-.05,1,.7.82,1.3.83a.94.94,0,0,1-.44,1c-.16-.19-.26-.6-.6-.17Z"/><path class="cls-2" d="M173.71,124.71c-.24-.68-1.53-.29-1.39-1.43s1.21-.53,1.72-.91c.2-.15.26-.49.38-.74,1.94-1.07,1.64-3.23,1.89-4.84a14.76,14.76,0,0,1,2.6-7.06l0-.07c-.77,1.14.35,2.49-.4,3.64-1,1-.44,2.4-.33,3.42.21,2-.5,4,.14,6a1.09,1.09,0,0,1-1.06,1.58C176.08,124.37,174.95,125,173.71,124.71Z"/><path class="cls-1" d="M172.29,113.67l-3.89.13c.22-2.4,1-4.69,1.16-7.14.07-1.45,1.79-.35,2.64-.82C173.05,108.44,172.2,111.06,172.29,113.67Z"/><path class="cls-1" d="M23.91,114.19c-.35-.66.12-1.2.25-1.8a2.64,2.64,0,0,1,.8,1.77c.75,3.2,1.27,6.47,3.31,9.2-1,.87,1.4,1.43.26,2.16s-1.25-1.22-2.29-1.14c-.23,0-.51-.49-.76-.75L24.63,117A7.64,7.64,0,0,0,23.91,114.19Z"/><path class="cls-1" d="M120,90c-.36-.45-.61-1.2-1.34-.95-.56.2-.48.88-.49,1.4a6.32,6.32,0,0,1,0,.91c-.09.54.13,1.37-.83,1.28-.72-.07-.64-.75-.64-1.26,0-1.66.05-3.32.08-5,.25-2.79-.23-5.63.6-8.4a72.26,72.26,0,0,1,.33,7.81c0,.76-.36,1.78.94,1.95.86.63,2.18.78,2.29,2.19Z"/><path class="cls-1" d="M15.94,90.53a7.34,7.34,0,0,0,.18,1.53c.16.49,1.12.87.41,1.45a1.18,1.18,0,0,1-1.75-.41c-.59-1.29-1.41-.35-2.12-.38-.39-1.32-1.86-2.54-.38-4h1.4c.74,0,.32-1.36,1.38-1.15C15.28,88.53,14.07,90,15.94,90.53Z"/><path class="cls-1" d="M14.93,75.87c-.28,1.7,1.56,2.5,1.7,4l-.22.55c-1.69.11-2.6,1.75-4.15,2.13,0-.71.2-1.47-.39-2.07C12.2,79.35,14,78.76,13,77,12.82,76.58,14,75.79,14.93,75.87Z"/><path class="cls-1" d="M118.64,87.81c-1.3-.17-.93-1.19-.94-1.95a72.26,72.26,0,0,0-.33-7.81c-.84,2.77-.35,5.61-.6,8.4a1,1,0,0,1-.88-.59c-.26-1.32.5-2.78-.54-4,0-1.86-.14-3.76,1.43-5.26.74.47,1.47.9,1.45,2A54.75,54.75,0,0,0,118.64,87.81Z"/><path class="cls-1" d="M20.53,72.31c-2,1.38-2.88,1.05-3.28-1.15A4.64,4.64,0,0,0,16,69.09C19.08,68.29,20,68.94,20.53,72.31Z"/><path class="cls-2" d="M176.44,130.24c1.52-.46,1.61.5,1.6,1.59,0,2.85,0,5.71,0,8.55.11.21.19.21.21,0a.5.5,0,0,0-.17,0,4.62,4.62,0,0,1-2.53-.62C177.74,136.68,177.28,133.48,176.44,130.24Z"/><path class="cls-1" d="M131.73,97.8c-.83,0-1.67,0-2.5,0-.6,0-1,.14-.84.94.55,2.3-1.43,2-2.54,2.17s-.92-1-.71-1.66.93-1,.86-1.77C127.91,97.59,129.86,96.94,131.73,97.8Z"/><path class="cls-1" d="M140.94,132.41A1.47,1.47,0,0,1,141,132l4.48,0c2.49,0,5,.68,7.45-.45h4.42a2.52,2.52,0,0,1,.07.42C151.94,132.94,146.43,132.47,140.94,132.41Z"/><path class="cls-1" d="M114,86.28c-1.06.68-2.13-.58-3.2,0l-2.3.15-.47-.47c-.17-1.12,1.41-.92,1.42-1.9l.39-.52c.89.13.35,2.22,1.93,1.42l1,.06C113.59,85.07,113.74,85.75,114,86.28Z"/><path class="cls-1" d="M11.89,87.8l-.07-1.13c.09-.58.19-1.16-.34-1.62-.91-.82.51-1.17.36-1.84l.78-.06c.17,1.45,1.28,2,2.41,2.5-.3.78-1.3,0-1.62.72C12.35,86.23,13.18,88.15,11.89,87.8Z"/><path class="cls-1" d="M96.38,40.79c-1.73-.24-3-1-3.33-2.88.53,0,1.28.34,1.1-.77-.11-.64.31-.92.92-.94C95.29,37.79,95.18,39.48,96.38,40.79Z"/><path class="cls-1" d="M164.24,131.57c.26-.57-.26-1.47.56-1.75a2.54,2.54,0,0,1,1.89,0c.68.43,0,1.17-.11,1.77A4.85,4.85,0,0,0,164.24,131.57Z"/><path class="cls-3" d="M12.64,83.14l-.78.06a1.2,1.2,0,0,1-.39-.09l.79-.54c1.55-.38,2.46-2,4.15-2.13.17,1.41-1.52,1.28-1.87,2.25C14,83.32,13.3,83.14,12.64,83.14Z"/><path class="cls-1" d="M112.8,85l-1-.06c.34-2.24-.92-4.7,1-6.71.33,0,.67.13.37.52C111.61,80.8,112.13,82.91,112.8,85Z"/><path class="cls-1" d="M115.35,81.85c1,1.22.28,2.68.54,4l-.94.47C115.16,84.84,114.58,83.28,115.35,81.85Z"/><path class="cls-2" d="M190.64,121.05c-1.13,0-2.25,1.43-3.39,0C188.8,119.82,189.74,119.82,190.64,121.05Z"/><path class="cls-1" d="M12.26,82.57l-.79.54c-.8.23-1-.22-.94-.88q0-.4,0-.8a1.66,1.66,0,0,0,1.33-.94C12.46,81.11,12.23,81.86,12.26,82.57Z"/><path class="cls-2" d="M185.57,122.29c-.38,1.49-1.76.8-2.63,1.05a2.07,2.07,0,0,1-2.26-1Z"/><path class="cls-3" d="M11.89,87.8c1.28.35.46-1.57,1.54-1.43l.24,2.31h-1.4Z"/><path class="cls-1" d="M105.79,54.91l-.28-.7c.48-.08,1.21-.46,1.35.13C107.06,55.17,106.2,54.78,105.79,54.91Z"/><path class="cls-1" d="M10.53,81.44q0,.4,0,.8c-.31,0-.71.58-.89,0S9.95,81.42,10.53,81.44Z"/><path class="cls-1" d="M25.07,126.09l-.14-.8c.33-.06.77-.22.85.26S25.41,126,25.07,126.09Z"/><path class="cls-1" d="M109.43,63.19a.85.85,0,0,1-.82-1A.79.79,0,0,1,109.43,63.19Z"/><path class="cls-3" d="M11.49,85c.52.45.43,1,.34,1.62C11.11,86.25,11.33,85.64,11.49,85Z"/><path class="cls-2" d="M178.91,109.72l0-.09.08,0Z"/><path class="cls-1" d="M43.43,111.42c-.74-2.08-1-4.69-2.38-6.08a17.78,17.78,0,0,1-2.9-4.26l.63-1.47.47.13c-.09,1.37,1.63,2,1.43,3.43,0,.3.31.51.65.37s.32-.35.21-.71a18,18,0,0,1-.42-2.14c1.09.28,4-1.2,4.38-2.24.26-.78.06-1-.73-.52-.57.35-.6-.52-1-.61.11-.33.63-.44.49-.91l0,0c1-.86,2.15-1.71.92-3.22l.05.06-.36-.44c-.77-.8-1.71.07-2.71-.24.61-1.49,2.5-1.15,3.16-2.39.12-.22.59.06.69.35.37,1.14,1.29.77,2.07.81h.18l.17.06a2.79,2.79,0,0,1,.5,1.78c-.64.3-.48.88-.5,1.4l-.06.06c-1.2.3-1.18,1.47-1.62,2.31,0,0,.32.33.48.33A1.93,1.93,0,0,0,48.8,96h0c1.25-.13,2.27-1.21,3.64-.9l.21.18-.19-.2c0-.36,0-1,.15-1.06,2.68-1,4.28-4.16,7.6-3.95h0l3.09,1.81a1.5,1.5,0,0,0,2.06.83c3.2-1.25,6.55-1.18,9.88-1.35a7.4,7.4,0,0,0,.53,3.05.26.26,0,0,1-.26.25c-.78-.17-1.87.4-2.33-.43-.93-1.68-1.69-.8-2.67-.12C64,98.54,57.51,103,51,107.39c-.36-.08-.95-.05-1.05-.26-1.07-2.14-1.63-.77-2.39.25C46.41,108.93,45.75,111,43.43,111.42Z"/><path class="cls-1" d="M75.51,94.64a.26.26,0,0,0,.26-.25c2-.4,2.73-2.5,4.43-3.22-.66-.45-1.56.13-2.1-.64,1.2.39,2.06-.74,3.18-.73,1.86,1.47-1.19,2-.56,3.33,1.34-.51,2.3.76,3.58.86,1.61,1.56,2.66-.07,3.93-.64.84-.38,1.73-1.94,2.67-.09-1.28.89-2.64,1.68-3.83,2.68-2.72,2.29-2.05,5.55-2.28,8.54-.69-1-.19-2.05-.32-3.07-.07-.49.17-1.2-.62-1.21-.52,0-.68.53-.69,1q-.08,4.09-.13,8.17a.86.86,0,0,0,.75,1c.56.09.54-.37.62-.72,1.88,0,3.75.08,5.63.07,1.13,0,1.46.59,1.3,1.58s-1,1.77-1.87,1.14c-1.16-.83-1.58,0-2.24.52l-1,.39c-.37-1.26-1.13-1.51-2.24-.87-2.25-1-2-3.45-2.69-5.24-1.34-3.52-.29-7.15.42-10.69a2.92,2.92,0,0,0-.79-3c-.18,2.83-2.12,4.79-1.9,7.3a34.52,34.52,0,0,0,1.35,7.51c.7,2.17,1.13,4.61,3.15,6.15.81.12,1.07-1.79,2.17-.58,0,.78,1.21,1.22.79,1.93s-1.06,0-1.59-.22a.81.81,0,0,0-1.06-.52c-.64,1.62.09,2.48,1.59,3,.78.27,2,.17,1.71,1.63l-.88.9c-1.27-.93-2.82-.14-4.15-.67.23-.66,1.4-1.5-.06-1.93-2.43-.72-3.42-2.53-4-4.72a7,7,0,0,0-1.53-3c-.45,1,1,2.2-.74,2.57l-1.14-6.48c-.86-.12-1.28,1.38-2.33.7l-.26-.59,0,0c.42-1.05-1.71-1.09-.92-2.3.15.33.3.46.45,0,.22,0,.56.09.53-.31,0-.06-.35-.09-.54-.14.34-1.23,1.82-2.15,2.36-1.92,1.52.65,1.26-.24,1.29-1s0-1.3,0-1.93c-1.49-.5-2,1.6-3.42,1.25-.59-2.17-.33-3.84,2.38-4.12C75,95.93,75.29,95.3,75.51,94.64Z"/><path class="cls-1" d="M87.68,86.88c-1.72-.44-3.76,1-5.25-.91a3.19,3.19,0,0,1-.64.43c-1.17.35-2.1,1.06-3.48,1.22-2.92.34-1.94-1-1.37-2.3q1.32-3.14,2.68-6.27c.3-.7.68-1.62,1.48-1.57,1,.06.46,1.08.58,1.68s.19,1,.7,1c.86.06.57-.71.63-1.16.19-1.52-.35-3.15.87-5.14V86l5-1.93C88.55,85.05,89.16,86.41,87.68,86.88Z"/><path class="cls-3" d="M48.88,93.2a2.79,2.79,0,0,0-.5-1.78c.38,0,.77-.06.94-.49,2.92-1.73,4.65-4.81,7.53-6.63.77-.49-.82,0-.83-.64a1.79,1.79,0,0,1,1-1,1.4,1.4,0,0,0,1.92,0,1.59,1.59,0,0,0,1.75-.45l.94-.45,1,.07.43.49c0,1,0,2.12-.9,2.65C57.77,87.4,54,90.61,49.77,93.18,49.55,93.32,49.18,93.2,48.88,93.2Z"/><path class="cls-1" d="M14.53,82.69c.36-1,2-.84,1.87-2.25l.22-.55c1.37.47,2.6-.82,4-.33,1.38,1,3.06,1.65,4,3.19-1.7.39-.47,1-.07,1.43a30.07,30.07,0,0,1,5.21,5.64c-.84.44-1.32-.17-1.72-.68-1.23-1.58-3.12-2.32-4.52-3.78-1.66-1.73-4.42-1.24-6.7-1.71,0-.6.49-1.7-1-1.06A4.08,4.08,0,0,1,14.53,82.69Z"/><path class="cls-1" d="M90.91,86.15c-.22-2.92-.22-2.92,2.57-2.93,3.12,0,6.22-.86,9.36,0,.95.25,2,0,2,1.48l-.35.36c-3.66-.29-7.14,1.24-10.79,1Z"/><path class="cls-1" d="M29.78,89.82a30.07,30.07,0,0,0-5.21-5.64c-.41-.38-1.63-1,.07-1.43a3.22,3.22,0,0,1,2.45,1.49c3.1,3.55,6.91,6.58,8.5,11.27l-1,.12-1.77-1.92a6.61,6.61,0,0,0-3-3.78Z"/><path class="cls-3" d="M84.28,94c-1.28-.11-2.24-1.37-3.58-.86-.64-1.35,2.42-1.86.56-3.33l.85-.25.9,0a4.26,4.26,0,0,0,2.76-.32,1.73,1.73,0,0,0,2-.89l1.36,0,.06,1.14c-1.32.31-1.12,1.2-.81,2.13C86.53,91.59,84.75,91.64,84.28,94Z"/><path class="cls-1" d="M74.77,39.91c1-.18,1.8-1.85,2.71-1a4.45,4.45,0,0,1,1.23,4.39c-1.09.17-1.8,1.22-3,1.25l-.88-.16c.12-.86-.48-1.33-1-1.85l-.49-.37,0,0C72.82,40.81,74.76,40.93,74.77,39.91Z"/><path class="cls-1" d="M95.33,63.13c3.33-2.43,7.2-3.82,10.86-5.61,1.61,1.92-.92,2.19-1.34,2.28-2.11.47-3.8,1.84-5.82,2.43,0-.63-.33-.5-.69-.27l-.61.52c.36.27.64.17.86-.19a1.39,1.39,0,0,1,.4,0c-.05,2.13-1.71,1.06-2.69,1.35l-.54-.1Z"/><path class="cls-3" d="M75.23,91.34c-3.33.17-6.68.1-9.88,1.35a1.5,1.5,0,0,1-2.06-.83l-.13-.45a.36.36,0,0,0,0-.43c.19-.6.09-1.3,1-1.52,1.66-.38.5,1.74,1.64,1.74,3.9,0,7.74-1.05,11.66-.67C76.94,91.38,75.86,90.74,75.23,91.34Z"/><path class="cls-1" d="M77.49,90.53c-3.92-.38-7.76.67-11.66.67-.15-1,.44-1.11,1.23-1.13,4.75-.13,9.45-.74,14.16-1.29.57-.07.83.25.9.77l-.85.25c-1.12,0-2,1.12-3.18.73Z"/><path class="cls-1" d="M88.86,81.88c-1.57-.24-2,1.37-3.17,1.91-.95-3.35-.23-4.6,3.19-5.62Q88.87,80,88.86,81.88Z"/><path class="cls-2" d="M90.91,86.15l2.8-.1c1.48,3.11,1.36,3.27-2.8,3.67Z"/><path class="cls-1" d="M37.51,96a5.66,5.66,0,0,0,.83-3.92,1.93,1.93,0,0,1,1.09-1.85.85.85,0,0,1,1.21.23c.31.58,1.53,1.27,0,1.89C41.68,95.31,38.27,94.57,37.51,96Z"/><path class="cls-1" d="M88.86,81.88q0-1.86,0-3.71c.26-.77-.22-1.66.72-2.83a56.78,56.78,0,0,1-.47,13l-1.37,0a2,2,0,0,1-.08-1.44c1.48-.47.87-1.82,1.18-2.79Q88.86,83,88.86,81.88Z"/><path class="cls-3" d="M39.24,99.74l-.47-.13a4.07,4.07,0,0,1-.48-2.73,4.41,4.41,0,0,0,2-1.43l1.64.06h0q0,1.39,0,2.78v0l-.41.35Z"/><path class="cls-1" d="M58.89,82.64a1.4,1.4,0,0,1-1.92,0l-.49-1.25.09-.09.18-.1-.18-.29.07-1c.39.07.73,0,.9-.41l.41-.4h.87l.4.34c1.1.19,1.91.59,1.45,1.94h0C59.64,81.19,59.26,81.91,58.89,82.64Z"/><path class="cls-1" d="M38.3,96.89a4.07,4.07,0,0,0,.48,2.73l-.63,1.47c-1.3-.84-1.68-2.42-2.76-3.45-.5-.47.07-.93.43-1.3l.72.55c.25.73.57.52.89.05Z"/><path class="cls-4" d="M109.89,83.56l-.39.52h-3.65a13.66,13.66,0,0,0,1.45-1.7c.46-.75,1-.65,1.72-.54C110.16,82,109.9,82.83,109.89,83.56Z"/><path class="cls-3" d="M105.85,84.08h3.65c0,1-1.59.78-1.42,1.9-.93.33-1.83-.11-2.75-.08.06-.61-.64-.5-.83-.88l.35-.36,0,0,.39.29.1-.36Z"/><path class="cls-2" d="M105.33,85.9c.92,0,1.82.41,2.75.08l.47.47c-.41,2.61-2.37.83-3.54,1.25a1.44,1.44,0,0,0-.13-.41C105.06,86.84,104.68,86.2,105.33,85.9Z"/><path class="cls-2" d="M80.26,71.8c0-.91-1-1.46-.84-2.5.16-.82.48-1.16,1.33-1.15,1.52,0-.13,1.09.5,1.38l0,1.84c-.36.18-.06,1.13-.89.75A.26.26,0,0,0,80.26,71.8Z"/><path class="cls-4" d="M56.48,81.4,57,82.65a1.79,1.79,0,0,0-1,1c-.79,0-1.63,0-1-1.21.16-.28.39-.48-.11-.58a4.19,4.19,0,0,0-.65,0h0c-.1-.52-.22-1-.28-1.55-.1-.84.72-.91,1.05-.81,1,.29-.11.51-.12.81C54.89,81.48,55.76,81.32,56.48,81.4Z"/><path class="cls-1" d="M99.06,88.58c-.69.65-1.27,1.46-2.36,1.48.24-1-.48-1.4-1.25-1.88,1-.27,1.72-1.19,2.68-.34Z"/><path class="cls-2" d="M49.31,90.93c-.17.43-.56.45-.94.49l-.17-.06H48a6.25,6.25,0,0,1-.09-.89c0-.71-.35-1.53.33-2.09.36-.3.64.13.93.36C50,89.45,49.69,90.18,49.31,90.93Z"/><path class="cls-1" d="M99.06,88.58l-.93-.74,6.75-.56a1.44,1.44,0,0,1,.13.41,2.54,2.54,0,0,0,0,.44C103,88.59,101,87.92,99.06,88.58Z"/><path class="cls-1" d="M80.26,71.8a.26.26,0,0,1,.08.31c-.23.4.32,1.11-.53,1.28-.65.13-.92-.18-1.16-.74A2.48,2.48,0,0,0,77,71a.25.25,0,0,1-.25.06c.13-.37-.73-1.53.79-.77C78.45,70.72,78.85,72.21,80.26,71.8Z"/><path class="cls-1" d="M91.23,65.52l.49-.35.91-.65,0,0a.54.54,0,0,0,.39-.13L94.17,64l.7,0,0,.49,0,0a1.16,1.16,0,0,0-1.4.93l0,0a1.13,1.13,0,0,0-1.38.92c-.47.55-1.27.69-1.54,1.5C89.73,66.62,92,66.59,91.23,65.52Z"/><path class="cls-3" d="M52.08,83.19c-.1.41.21,1.06-.29,1.2s-.76-.41-.71-.87a19.72,19.72,0,0,1,.41-2.18c.08-.36.26-.85.68-.62s.44.7.65,1.08C51.85,81.87,52,82.57,52.08,83.19Z"/><path class="cls-1" d="M60.22,90.06c-.49-1,.07-1.43.85-1.67a.66.66,0,0,1,.79.63c0,1.1-.91,1-1.65,1Z"/><path class="cls-1" d="M85.78,89.21a4.26,4.26,0,0,1-2.76.32C83.79,88.12,84.77,88.57,85.78,89.21Z"/><path class="cls-1" d="M88.38,91.64c-.32-.93-.52-1.82.81-2.13C89.13,90.29,90.33,91.56,88.38,91.64Z"/><path class="cls-3" d="M69.33,78.68l-.48-1.36.86-.54h.64l.16,0,.11.47-.36.66-.09.75-.62,0Z"/><path class="cls-4" d="M52.08,83.19c0-.62-.22-1.32.76-1.39l1.45,0h0C54.13,83.26,52.62,82.43,52.08,83.19Z"/><path class="cls-2" d="M73.46,77.74H73l-.55-1.8h.49c.39.87,1-.68,1.52.17.67,1-.26.58-.52.76C73.22,76.9,73.55,77.42,73.46,77.74Z"/><path class="cls-1" d="M103.56,53.08a1.74,1.74,0,0,1-1,1l-1.1.19-.29-.36C101.92,53.48,102.38,52.16,103.56,53.08Z"/><path class="cls-2" d="M42,98.28q0-1.39,0-2.78A1.76,1.76,0,0,1,42,98.28Z"/><path class="cls-2" d="M70.51,76.81l-.16,0c-.05-.35,0-.77-.46-.9.86-1,.86-1,1.79.47l-.06.48h0C71.26,76.89,70.89,75.84,70.51,76.81Z"/><path class="cls-2" d="M45.12,93.22c1.23,1.51.12,2.36-.92,3.22C44,95.21,45.46,94.48,45.12,93.22Z"/><path class="cls-3" d="M72.9,76h-.49a.48.48,0,0,1-.33,0,3.69,3.69,0,0,0-.15-.86c-.26-.6-.2-1,.54-1s.39.51.34.91A4.41,4.41,0,0,0,72.9,76Z"/><path class="cls-1" d="M81.23,71.36l0-1.84c.44.3.59,1,1.3.91a.93.93,0,0,1,0,.41C82.28,71.38,81.76,71.39,81.23,71.36Z"/><path class="cls-1" d="M95.4,90.52a1.66,1.66,0,0,1-1.41,1c-.1-.39-.51-.77,0-1.16S94.94,90.38,95.4,90.52Z"/><path class="cls-1" d="M69.33,78.68l.22,0c.31.37.21,1.29,1.13.84l0,.51v.5h0l-.81,0-.62-.09V79.18Z"/><path class="cls-2" d="M63,82.31l-.43-.49L62,80.5C63.11,81.28,63.11,81.28,63,82.31Z"/><path class="cls-1" d="M72.08,75.91a.48.48,0,0,0,.33,0l.55,1.8h-.45l-.89-.92.06-.48Z"/><path class="cls-2" d="M84.78,68.64h1.48a1.36,1.36,0,0,1-1.29.9C84.92,69.54,84.42,69,84.78,68.64Z"/><path class="cls-2" d="M82.59,70.84a.93.93,0,0,0,0-.41l1.27-.12a1.64,1.64,0,0,1-.15.56C83.33,71.35,83,71.05,82.59,70.84Z"/><path class="cls-2" d="M69.71,76.78l-.86.54c-1.06-.79,0-1,.38-1.35Z"/><path class="cls-2" d="M42,95.51l-1.64-.06C40.92,94.76,41.47,94.49,42,95.51Z"/><path class="cls-2" d="M76.7,71A.25.25,0,0,0,77,71a1,1,0,0,1-.69,1.32c-.1,0-.36-.06-.38-.14C75.72,71.47,76.53,71.47,76.7,71Z"/><path class="cls-2" d="M71.62,76.82l.89.92c.14.95-.29.78-.81.41l-.15-.84.08-.5Z"/><path class="cls-3" d="M92.17,66.34a1.13,1.13,0,0,1,1.38-.92A1.23,1.23,0,0,1,92.17,66.34Z"/><path class="cls-1" d="M34.59,95.63l1-.12.14.72C35,96.62,34.72,96.29,34.59,95.63Z"/><path class="cls-2" d="M69.3,79.18v1.25h0a.36.36,0,0,1-.39,0C69.47,80.14,67.59,79.1,69.3,79.18Z"/><path class="cls-3" d="M93.52,65.44a1.16,1.16,0,0,1,1.4-.93A1.2,1.2,0,0,1,93.52,65.44Z"/><path class="cls-1" d="M101.45,54.23a2.35,2.35,0,0,1-1.35.92l-.31-.34,1.37-.94Z"/><path class="cls-1" d="M75,69.64c.05-.12.08-.29.16-.33s.22.08.34.13c-.05.12-.08.29-.16.33S75.12,69.69,75,69.64Z"/><path class="cls-2" d="M70.26,77.93l.36-.66.49.5.19.44c.12.58-.09.7-.59.44Z"/><path class="cls-1" d="M48.49,86.9a1.62,1.62,0,0,1-.19.26s-.16,0-.17-.09a1.84,1.84,0,0,1,0-.36Z"/><path class="cls-1" d="M48.38,94.6c.54.34.37.9.43,1.39h0c-.5-.32-.44-.85-.49-1.33Z"/><path class="cls-2" d="M44.23,96.41c.15.47-.37.58-.49.91-.48-.13-.46-.52-.3-.82S43.92,95.93,44.23,96.41Z"/><path class="cls-1" d="M99.6,55.53c-.32.21-.64.87-1,.3-.24-.37.35-.53.68-.67Z"/><path class="cls-2" d="M70.67,79.5c-.92.45-.82-.47-1.13-.84l.62,0,.51.48Q70.67,79.33,70.67,79.5Z"/><path class="cls-1" d="M69.71,76.78,69.23,76l.66-.1c.48.13.41.55.46.9Z"/><path class="cls-1" d="M57.54,79.51c-.16.43-.51.48-.9.41a.72.72,0,0,1-.06-.29l.41-.52.51,0A2.85,2.85,0,0,0,57.54,79.51Z"/><path class="cls-3" d="M69.93,80.53l.81,0c.27.18.18.4,0,.48C70.31,81.12,70,81,69.93,80.53Z"/><path class="cls-1" d="M61.58,81.75l-.94.45,0-.81h0A1,1,0,0,1,61.58,81.75Z"/><path class="cls-4" d="M73.46,77.74c.08-.32-.24-.84.44-.85C74.19,77.39,74.19,77.75,73.46,77.74Z"/><path class="cls-3" d="M70.72,80.5V80c.31,0,.81-.38.83.25A.46.46,0,0,1,70.72,80.5Z"/><path class="cls-1" d="M75.1,86.72l.07.17-.26.05a.47.47,0,0,1,0-.18S75,86.73,75.1,86.72Z"/><path class="cls-2" d="M86.23,68.66c.13-.57.57-.51,1-.47A1,1,0,0,1,86.23,68.66Z"/><path class="cls-1" d="M71.31,78.21l-.19-.44.43-.45.15.84A.79.79,0,0,1,71.31,78.21Z"/><path class="cls-1" d="M37.43,96.93c-.33.46-.64.68-.89-.05Z"/><path class="cls-2" d="M84,68.18c.36,0,.69.09.81.5C84.29,69,84.19,68.53,84,68.18Z"/><path class="cls-4" d="M57.54,79.51a2.85,2.85,0,0,1,0-.44c.17-.24.32-.21.45,0Z"/><path class="cls-1" d="M70.68,79.17l-.51-.48.09-.75.45.71Z"/><path class="cls-3" d="M94.9,64.53l0-.49.63-.3.37.37A.83.83,0,0,1,94.9,64.53Z"/><path class="cls-1" d="M72.27,49.62l-.07-.25.17,0Z"/><path class="cls-2" d="M87.6,67.94c0-.61.5-.58.9-.67Z"/><path class="cls-4" d="M59.22,79.45l-.4-.34Z"/><path class="cls-4" d="M57,79.11l-.41.52Z"/><path class="cls-1" d="M68.91,80.42a.36.36,0,0,0,.39,0l-.21.28Z"/><path class="cls-1" d="M59.75,55.84l.2.1-.19-.11Z"/><path class="cls-1" d="M99.26,55.16l.53-.36.31.34-.5.38Z"/><path class="cls-2" d="M41.57,98.61l.41-.35Z"/><path class="cls-2" d="M84.14,66.73l-.23.69C83.32,67,83.6,66.81,84.14,66.73Z"/><path class="cls-2" d="M44.82,92.84l.36.44C44.71,93.42,44.82,93.09,44.82,92.84Z"/><path class="cls-1" d="M63.16,91a.36.36,0,0,1,0,.43,1.7,1.7,0,0,1-.11-.3S63.12,91,63.16,91Z"/><path class="cls-1" d="M105.35,84.57l-.1.36-.39-.29Z"/><path class="cls-3" d="M95.76,63.49l.54.1-.44.52-.37-.37A1.58,1.58,0,0,1,95.76,63.49Z"/><path class="cls-4" d="M56.57,80.92l.18.29-.18.1C56.57,81.18,56.57,81,56.57,80.92Z"/><path class="cls-1" d="M142.33,124.61q0,.27,0,.55c-3-.09-6-.78-9-.47a8.52,8.52,0,0,1-3.76-.51l-.14-.43c-.92-1.22.41-2.87-.77-4-.77-.09-1.67.41-2.28-.48a12.63,12.63,0,0,1,.13-10c1.2.08,2.26-.11,2.58-1.89,1.1,1.92.84,3.79,1.67,5.47.92,1.88,1.3,2.95,3.51,1.9.48-.23,1.16-.22,1.69-.51l1.52,5a1.87,1.87,0,0,0,.54,2.71A28.56,28.56,0,0,0,142.33,124.61Z"/><path class="cls-1" d="M113.26,144.69c-1.69-3.2-3.1-6.39-1.45-10.13.69-1.57,2.4-1.92,3.21-3.25,0,.58.26.79.77.55s1-.43,1.47.17c-.21,1-1.15,2.12.67,2.55a1.87,1.87,0,0,1,.72,1.27c-.57-.28-1.36.48-1.81-.34-.72-1.31-1.57.66-2.3-.11.61,1.12-1.13,1.52-.74,2.79a2.1,2.1,0,0,0,2.42,1.62,2.74,2.74,0,0,0,2.91-2.23l.84.38h1.89a1.85,1.85,0,0,1,0,.42,13.06,13.06,0,0,1-.1,2.45c-.29,1.28.43,1.33,1.32,1.31l-.88,1.71-1.26,1.06c-1.33.24-2.31,1.47-3.77,1.36C115.64,146.32,114.54,145.28,113.26,144.69Z"/><path class="cls-3" d="M71.17,104.19c-.8,1.21,1.33,1.25.92,2.3-.84-.8-1.69-1.21-2.7-.23-.32.31-.7.66-1.2.53-2.18-.6-3.29.73-4.26,2.32a6.43,6.43,0,0,1-.65-.1c-1.58-.4.56,2.14-1.36,1.68-.69-.17-1.45-1.12-2.39-.11a8.84,8.84,0,0,0-1.94,2.28c-.83,0-1.22.83-2,1-1-1.43-2.06-1.44-3.23,0C51.2,113.3,51.2,112,50.58,111c1.27.09,1.19-1,1.46-1.72a.76.76,0,0,1,.4.08c.49.66,1.21.15,1.79.37.62.82,1.2,2.79,2.11,2,1.7-1.56,4-2.34,5.33-4.31a20.38,20.38,0,0,1,3.4-2.15,11.87,11.87,0,0,0,4.27-3.2c1-.44,2.12-.7,2.52-1.92,1.42.35,1.93-1.75,3.42-1.25,0,.63,0,1.28,0,1.93s.23,1.67-1.29,1c-.54-.23-2,.69-2.36,1.92l0,0-.48.48Z"/><path class="cls-3" d="M58.79,128.89c2-1.08,4.14-1,6.3-1,.89,0,1.58.17,1.41,1.22-.21,1.29.62,1.28,1.45,1.3l7.29.22c.28,0,.58-.21.81.11.35.49-1.31,4.81-1.93,4.78-2.53-.1-5.24.91-7.63-1,.84-.19,1.2-1.06,2.25-.87.9.17.69-.8.5-1.33-.1-.27,0-1.63-1-.35-.37.45-1.44-.87-2-1.58-1.18-1.55-1.6-1.57-2.56.17-.41.74-1.06.41-1.61.48a9.76,9.76,0,0,1-3.34-.57l.11-.7,0-.57A1,1,0,0,1,58.79,128.89Z"/><path class="cls-1" d="M96.39,145l-.16.65c-1.35.73-2.34,2-3.94,2.39-2.59.62-4.52-.68-6.5-1.95l-.29-.83c.69-.25,1.63.88,2.17-.51a2.13,2.13,0,0,1,1.72-1.51c.75-.12.12-.84,0-1.29.39-.78,1.42-.18,1.85-.86l1.41-.88a5.75,5.75,0,0,0,1.23.46c.44.06,1.18.89,1.3-.22.08-.71.38-1.92-1.16-1.64l1.33-2.26.44.48,0,0a1.21,1.21,0,0,0,.06.43l.18,2.83C96,141.9,94.74,143.6,96.39,145Zm-4.7.67c-.15.12-.62-.2-.48.34l.48-.34.11-.19Zm-2.59,0-.42.44c.14.13.27.34.42.37s.62-.05.52-.45C89.6,145.95,89.33,145.87,89.11,145.73Zm4.12-.67-.33,0c.05,0,.1.11.15.12S93.17,145.09,93.23,145.05Z"/><path class="cls-3" d="M75.8,112.83c1.73-.37.3-1.61.74-2.57a7,7,0,0,1,1.53,3c.53,2.19,1.52,4,4,4.72,1.47.43.3,1.27.06,1.93l-.87,0c-.44-.29-.76-.3-.84.33l-.14-.07-5.43-.59c1.38-.7,2.54-.22,3.67-.5a2.92,2.92,0,0,0-3.21-2.76c-2.79.24-3.15-1.34-3.34-3.34C73.19,112.38,74.53,113.59,75.8,112.83Z"/><path class="cls-1" d="M55.65,113.88c.73-.19,1.12-1,2-1-1.11,1.75.05,3.64-.36,5.44L56.1,117l.11-.19-.1.19c-.94.13-1.72.06-1.28-1.46-1.85,1.24-3.07,3.76-5.44,1.47L47,112.82c1.18-.63,1.45-3.06,3.58-1.79.62.93.62,2.27,1.83,2.81v-.05l.1.85c.22.63.42,1.49,1.27.7C54.38,114.8,55.31,114.71,55.65,113.88Zm.85,1.49c-.06-.3-.18-.5-.41-.32a.73.73,0,0,0-.25.52c0,.09.28.18.43.28Z"/><path class="cls-1" d="M95.35,136.6,94,138.86c-.45.7-.93-.13-1.39,0l-1-1.36.62-.8c-.49-.25-.86-.82-1.53-.58l0,0c-1-1.11-2.1-.46-3.16-.07.1-1.06,1-1.26,1.74-1.65s1.7.07,1.88-1.05c1.67-.09,2.59,1.41,3.92,2l.64-2c2.09,1.11,2.54,2.92,2.16,5.08-1.28-.05-.34,2.25-2,1.84l-.18-2.83c.44-.21.26-.33-.06-.43l0,0-.08-.66Z"/><path class="cls-1" d="M26.19,111.51c1.55.28,2.86-1.49,4.51-.54.29.17,1,.13.91.4-1,2.1,1.08,2.31,1.84,3.35s1.46,2.07-.09,3.07c-.68.44-1.29,1-1.93,1.5A41.91,41.91,0,0,0,26.19,111.51Z"/><path class="cls-1" d="M49.39,117c2.37,2.29,3.59-.23,5.44-1.47-.44,1.52.34,1.59,1.28,1.46h0l1.14,1.32v0c-1.21-.64-1.48.05-1.53,1.07l0,0c-.78-.1-1.45-.05-1.41,1a.37.37,0,0,1-.51.27c-.23-.38-.33-.15-.43.09l.07.09a2,2,0,0,0-3.14,0,13.54,13.54,0,0,1-1.24.94l-1.43-2.37C47.36,117.95,48.53,117.58,49.39,117Z"/><path class="cls-3" d="M58.89,127.43a38.9,38.9,0,0,0-7.2-1c-2.53-.28,0-1.68-.22-2.55.84-.31,2.12.14,2.28-1.33a5.57,5.57,0,0,1,2.36-.17c1.13,0,1.44.3,1.16,1.44-.16.66-.93,1.94.87,1.75Z"/><path class="cls-3" d="M86.24,120.61l.88-.9,2.74,0,.53-.21.14-.08.67-.08,1.4,0,0,.14.11.09c.86.46,2-.33,2.76.66a2.44,2.44,0,0,1-.45,1.72c-2.91-.12-5.85.48-8.72-.37Z"/><path class="cls-3" d="M107.68,119.13h.86c.64.07,1.07.35,1.07,1.06q0,.83,0,1.67h-8.46q0-.82,0-1.63l.64-.73,3.18.13.52-.36a.47.47,0,0,0,.38-.11l.87,0Z"/><path class="cls-3" d="M85.79,146.14c2,1.27,3.91,2.57,6.5,1.95,1.61-.39,2.59-1.66,3.94-2.39.91,1.29-.2,1.92-.91,2.61-1.89,1.82-4.26,1.94-6.56,1.29C87.2,149.16,85.66,148.26,85.79,146.14Z"/><path class="cls-1" d="M63.93,109.11c1-1.6,2.08-2.92,4.26-2.32.5.14.88-.22,1.2-.53,1-1,1.86-.57,2.7.23l0,0,.26.6c.09,1-1.32,1.42-.94,2.57a.54.54,0,0,1-.9.48c-.49-.31-1.46.3-1.57-.8a2.48,2.48,0,0,0-.8-1.57c-.46-.45-1.33-.38-1.31,0C67,110.84,65,109,63.93,109.11Z"/><path class="cls-3" d="M115,121.09c.31-2.54,2.34-1.09,3.55-1.52,1.13,0,2.26.16,3.38.1s1.23.59,1.31,1.39a1.31,1.31,0,0,1,0,.41c-2.75.77-5.56.27-8.34.45Z"/><path class="cls-1" d="M43.43,111.42c2.32-.38,3-2.49,4.14-4,.76-1,1.32-2.39,2.39-.25.1.21.69.18,1,.26l-1.35,1.35h.05l-.57.47a12.61,12.61,0,0,0-4,2.76c-.21.19-.57.36-.6.58-.06.41.42.21.62.36,0,.81.91,1.1,1,1.93.14,1.29-.64.55-1.08.6l-.31-.45C44.25,113.83,43.31,112.83,43.43,111.42Z"/><path class="cls-3" d="M95.8,133.4l-.64,2c-1.33-.57-2.25-2.07-3.92-2-1.57-.4-3.06.55-4.62.3C89.52,131,93.62,130.84,95.8,133.4Z"/><path class="cls-1" d="M87.62,136.11c1.06-.38,2.13-1,3.16.07a3.69,3.69,0,0,0-2.36,1.57.41.41,0,0,0,0,.66l0,0-1.46,1c-1.42.55-.46,1.2-.14,1.9a1.71,1.71,0,0,1,.1,1.29c-.31.64-.75.16-1.08-.1-.82-.64-1,.32-1.43.56l-.29-1.31c1.6-.82.87-1.6,0-2.37.07-.58-.08-1.32.89-1.28.21.24.25.77.78.47a.22.22,0,0,0,.1-.17c-.11-.57-.56-.24-.86-.32-.83-.1-.51-.55-.29-1C85.55,136.26,87.11,137.86,87.62,136.11Z"/><path class="cls-3" d="M45.1,115.44c.44,0,1.22.69,1.08-.6-.09-.83-1-1.12-1-1.93l.87-.1h1L49.39,117c-.86.59-2,1-1.75,2.39C45.89,118.64,44.61,117.61,45.1,115.44Z"/><path class="cls-3" d="M117.25,132c-.43-.6-.92-.44-1.47-.17s-.8,0-.77-.55c4-2.06,5.81-1.25,7.64,1.67-1.61.4-.45,1.76-.89,2.56l-.88-.33-.51-.07,0-.7c1-.31,0-.67,0-1-.32-.64-.64-.81-1,0l-.86-.06C118.5,132.59,118.54,131.64,117.25,132Z"/><path class="cls-1" d="M84.45,143c.45-.24.61-1.2,1.43-.56.33.26.77.73,1.08.1a1.71,1.71,0,0,0-.1-1.29c-.33-.7-1.28-1.35.14-1.9.87.83.5,2.77,2.4,2.69.13.45.75,1.17,0,1.29a2.13,2.13,0,0,0-1.72,1.51c-.54,1.39-1.48.26-2.17.51A3.67,3.67,0,0,1,84.45,143Z"/><path class="cls-1" d="M70.25,126.1l-.36.13c-.81,0-1.67-.37-2.38.35l-1.06-1.21.13-2c1.67-1.36,3.52-1.33,4.61.07a.94.94,0,0,1-.06.38l-.41.52a1,1,0,0,1-.1.41l-.55.19.25.31Z"/><path class="cls-1" d="M53.75,122.59c-.16,1.47-1.44,1-2.28,1.33-1.49,0-2-1-2.4-2.18a13.54,13.54,0,0,0,1.24-.94,2,2,0,0,1,3.14,0C52.78,121.51,53,122.1,53.75,122.59Z"/><path class="cls-4" d="M123.24,121.48a1.3,1.3,0,0,0,0-.41c.53-.7,0-1.78.86-2.37l2.24.54c.61.89,1.51.39,2.28.48.2,1.29,0,2.1-1.65,1.87A33.31,33.31,0,0,0,123.24,121.48Z"/><path class="cls-1" d="M23.65,109.37c-.39-.7-.73-1.57.27-1.85,1.17-.33,2.47-1.17,3.66-.22.61.49.06,1.26-.18,1.88-.07.17-.13.46-.25.49-1.36.34-1.36.33-1.63,1.17Z"/><path class="cls-3" d="M94.89,126.56l.9.44c-.17.06-.52,0-.2.37l.22-.34c1.1.46.8,1.53.53,2.11-.45.94-1.26.37-1.88-.08s-1.14-.25-1.73-.31-1.23.28-1.21-.52A1.15,1.15,0,0,1,92.65,127c.77-.05,1.66.36,2.26-.5Z"/><path class="cls-1" d="M101.14,120.24v1.63l-6.19.06a2.44,2.44,0,0,0,.45-1.72A20.68,20.68,0,0,1,101.14,120.24Z"/><path class="cls-4" d="M86.24,120.61v.94c-1.43,1-3.06.21-4.56.51h-.5l-.86-.11h0l-.1-1.8.14.07.84-.33.87,0C83.42,120.48,85,119.68,86.24,120.61Z"/><path class="cls-1" d="M96,140.31c1.62.41.67-1.9,2-1.84.1,2,.53,4.14-1,5.91-.32.08-.58.21-.61.59l0,.07C94.74,143.6,96,141.9,96,140.31Z"/><path class="cls-1" d="M87.62,136.11c-.51,1.76-2.07.16-2.9.91a5,5,0,0,1,1.9-3.32c1.56.25,3-.7,4.62-.3-.19,1.12-1.25.72-1.88,1.05S87.72,135,87.62,136.11Z"/><path class="cls-1" d="M115,121.09l-.12.83-5.28-.06q0-.83,0-1.67c1.28,0,2.57,0,3.85,0C114.19,120.17,114.84,120.21,115,121.09Z"/><path class="cls-1" d="M71.13,123.84a.94.94,0,0,0,.06-.38,3.13,3.13,0,0,0,1-2.28l1.2.32a12.45,12.45,0,0,0-.24,2.19c.14,2.16-.77,3-2.86,2.4l.08-.83.3-.5a1,1,0,0,0,.1-.41Z"/><path class="cls-1" d="M121.77,135.55c.44-.8-.72-2.16.89-2.56.55,1.49,2,2.69,1.43,4.53l-.81,1-.32-2.85c-.21,2.4-.21,2.4-1.08,2.65a1.83,1.83,0,0,0,0-.42Z"/><path class="cls-1" d="M66.58,123.39l-.13,2c-2.7,0-2.77-2-3-3.88l0,0c.49.15,1.08-.12,1.49.35l0,.39.28-.25,1.09-.19Z"/><path class="cls-1" d="M121.86,138.36c.87-.25.87-.25,1.08-2.65l.32,2.85.81-1a6.78,6.78,0,0,1-1,4.6c-.89,0-1.61,0-1.32-1.31A13.06,13.06,0,0,0,121.86,138.36Z"/><path class="cls-1" d="M58.89,127.43l-.74-1.82c.08-.82.17-1.65.22-2.47,0-.6.39-.73.9-.71s.86,0,.86.48C60.1,124.52,61.16,126.45,58.89,127.43Z"/><path class="cls-3" d="M44.34,126.51c1.38.25,2.84,0,4.15.64v1.53l-4.3-.75Z"/><path class="cls-1" d="M117.18,146.26c1.46.1,2.43-1.12,3.77-1.36l-.14,1.6a5.56,5.56,0,0,1-3.43,1.18C117.39,147.19,115.63,147,117.18,146.26Z"/><path class="cls-3" d="M117.18,146.26c-1.56.7.2.94.2,1.42-2.9.17-4.27-.81-4.12-3C114.54,145.28,115.64,146.32,117.18,146.26Z"/><path class="cls-3" d="M66.34,121.09c-.44-.2-1.16-.24-1.1-.8a1,1,0,0,1,1.25-.64c.86.22,2-1.62,2.65.39.22.71-.19.95-.79,1Z"/><path class="cls-3" d="M37.8,125.23c1.19.71,2.85,0,3.85,1.24l0,.91a5.36,5.36,0,0,1-3.76-.77Z"/><path class="cls-1" d="M66.58,123.39l-.24-1.55.06-.18a2.76,2.76,0,0,0,2.18.16c1-.06,1.66-.87,2.52-1.23l1,0,.07.56a3.13,3.13,0,0,1-1,2.28C70.09,122.06,68.24,122,66.58,123.39Z"/><path class="cls-3" d="M51.32,127.9c1.54-1.13,2.25,1.28,3.7.68-1.19,2-2.73.19-4,.63Z"/><path class="cls-3" d="M78.91,122.5c-1.16.78-2.25.16-3.22.49-.52.18-.87.09-.85-.55s0-1.34.88-1.22A4.71,4.71,0,0,1,78.91,122.5Z"/><path class="cls-1" d="M51.32,127.9,51,129.21l-2.51-.52v-1.53C49.52,127.06,50.56,126.94,51.32,127.9Z"/><path class="cls-1" d="M58.79,128.89a1,1,0,0,0,0,.33c-.38.18-.48.36,0,.57l-.11.7c-.74-.09-1.48-.24-2.23-.26-.92,0-.91-.6-.81-1.23.15-1,.66-.39,1.13-.29A15.93,15.93,0,0,0,58.79,128.89Z"/><path class="cls-1" d="M41.61,127.38l0-.91c.91-.8,1.79-.36,2.68,0l-.14,1.42A3.93,3.93,0,0,1,41.61,127.38Z"/><path class="cls-3" d="M120.81,146.49l.14-1.6,1.26-1.06c.08.59,1.25.44,1,.93C122.65,145.59,122.11,146.63,120.81,146.49Z"/><path class="cls-3" d="M67.51,126.58c.7-.72,1.56-.38,2.38-.35.47.47,1.38,0,1.82,1C70.16,127.38,68.7,128.19,67.51,126.58Z"/><path class="cls-1" d="M37.8,125.23l0,1.37-1.33,0c-.69,0-1.14-.28-1-1.09s.73-.5,1.19-.44S37.44,125.16,37.8,125.23Z"/><path class="cls-1" d="M37.74,123.53c-.9,0-1.79,0-2.69,0-.64,0-1.06-.19-.88-.91a.72.72,0,0,1,1-.53c.89.31,1.77.67,2.65,1Z"/><path class="cls-3" d="M73.55,109.67c.7.05.85.53.82,1.11s-.37.78-.9.77-1-.31-.94-1S72.92,109.63,73.55,109.67Z"/><path class="cls-1" d="M84.11,139.29c.91.77,1.65,1.55,0,2.37A3.49,3.49,0,0,1,84.11,139.29Z"/><path class="cls-1" d="M68.57,121.82a2.76,2.76,0,0,1-2.18-.16l-.06-.56h2Z"/><path class="cls-3" d="M40.45,117c-.15.51-.57.48-.92.5s-.8-.15-.62-.64.57-.44,1-.37S40.45,116.64,40.45,117Z"/><path class="cls-1" d="M55.71,119.35c.05-1,.32-1.71,1.53-1.07Z"/><path class="cls-1" d="M72.07,120.63l-1,0c.17-1.38,1.15-.83,1.9-.8l-.93.84Z"/><path class="cls-1" d="M72.14,121.19l-.07-.56h0l1.32,0,0,.89Z"/><path class="cls-1" d="M54.32,120.32c0-1.05.63-1.1,1.41-1Z"/><path class="cls-3" d="M80.31,122c-.1.33,0,.77-.58.76-.05,0-.14-.1-.15-.16,0-.53.4-.51.74-.59Z"/><path class="cls-4" d="M73.38,120.61l-1.32,0,.93-.84C73.67,119.8,73.43,120.25,73.38,120.61Z"/><path class="cls-3" d="M94.91,126.54l-1.13-.13c.6-.36.87-.16,1.11.15Z"/><path class="cls-1" d="M85,138c.3.08.75-.25.86.32a.22.22,0,0,1-.1.17c-.53.3-.57-.23-.78-.47Z"/><path class="cls-3" d="M37.72,119.1c.27-.21.53-.49.89-.14l-.55.52Z"/><path class="cls-1" d="M96.37,145c0-.38.29-.51.61-.59C96.88,144.68,96.79,145,96.37,145Z"/><path class="cls-3" d="M81.18,122.07h.5A.28.28,0,0,1,81.18,122.07Z"/><path class="cls-3" d="M65.24,122l-.28.25,0-.39A.51.51,0,0,1,65.24,122Z"/><path class="cls-1" d="M63.45,121.49l-.26-.07s.07,0,.1,0a1.09,1.09,0,0,1,.13.11Z"/><path class="cls-3" d="M72.32,107.06l-.26-.6.26.59Z"/><path class="cls-1" d="M53.38,120.68c.1-.24.2-.47.43-.09Z"/><path class="cls-1" d="M23.91,114.19a7.64,7.64,0,0,1,.72,2.78c-.83.6-.22,1.59-.62,2.31-4-1.16-5.39-4.43-3.53-8,.18-.35.3-.7.78-.64s.67.55.89.94C22.64,112.53,22.3,114,23.91,114.19Z"/><path class="cls-1" d="M14.53,82.69a4.08,4.08,0,0,0,1.33-.1c1.46-.64.92.46,1,1.06L16,85.49l-.9.16c-1.14-.52-2.25-1.06-2.41-2.5C13.3,83.14,14,83.32,14.53,82.69Z"/><path class="cls-2" d="M15.05,85.65l.9-.16c-.31,1.68.51,3.36,0,5-1.87-.5-.65-2-.88-3-1.06-.22-.64,1.11-1.38,1.15l-.24-2.31C13.75,85.63,14.75,86.43,15.05,85.65Z"/><path class="cls-1" d="M29.85,89.94a6.61,6.61,0,0,1,3,3.78C31,93.12,30.4,91.55,29.85,89.94Z"/><path class="cls-2" d="M135.55,127.06c3.47-.93,7-.13,10.51-.51.85-.09,1.81.25,2.6-.65-1.2-1.19-2.91-.45-4.16-1.18l.17-1.34c1.19-2,2.41.11,3.61,0a4,4,0,0,0,4.68-2.82l.35-.34a13.79,13.79,0,0,0,1.49-4.06l.73-.12h.57c1,.41,3-.57,2.7,1.85l.05,1a.71.71,0,0,1,0,.31,16.85,16.85,0,0,0-.1,4.06c0,1.38-.62,2.28-2.07,1.93-2-.49-3.71.95-5.69.69-.64-.08-.74.65-.59,1.37.56,2.83.28,3.1-2.59,3-.75,0-1.51,0-2.26,0l-4.45.09c-2.16-.53-4.48.51-6.58-.64C135.64,129.12,136.54,128.47,135.55,127.06Z"/><path class="cls-3" d="M126.37,119.23l-2.24-.54-.54-3.13c1.18-1.71.35-3.79,1.09-5.63a20.42,20.42,0,0,1,1.91-4.25c1.07.14.48.92.55,1.44l-.64,2.15A12.62,12.62,0,0,0,126.37,119.23Z"/><path class="cls-1" d="M137.47,119.24l-1.52-5c.27-1.48,1.11-.7,1.81-.45l2.27,1.48a5.41,5.41,0,0,0,0,1.57C141,119.57,139.61,119.82,137.47,119.24Z"/><path class="cls-1" d="M123.59,115.56l.54,3.13c-.84.59-.33,1.67-.86,2.37-.08-.8-.23-1.45-1.31-1.39s-2.25-.06-3.38-.1a19,19,0,0,0,3-3.92C122.08,114.61,122.87,114.47,123.59,115.56Z"/><path class="cls-1" d="M127.14,107.12c-.07-.52.52-1.3-.55-1.44a5.87,5.87,0,0,1,4.73-4.41c-1,1.25-.77,3.4-3.2,3.08-.47-.06-.66.35-.26.92C128.43,106.1,128.13,106.79,127.14,107.12Z"/><path class="cls-1" d="M148.27,123.35c-1.2.15-2.42-2-3.61,0-.79-2.13-.5-2.5,1.78-2.3l-.1.2.11-.19C148.16,121,147.92,122.39,148.27,123.35Z"/><path class="cls-1" d="M109.9,116a5.65,5.65,0,0,1,1.06-3.27c.54,1.92.18,3.57.21,5.2-.54.25-1.31,1.22-1.22-.42C110,117,109.92,116.51,109.9,116Z"/><path class="cls-1" d="M140,115.27l-2.27-1.48a2,2,0,0,1,2.5-.1C140.81,114.08,140.5,114.79,140,115.27Z"/><path class="cls-1" d="M118.32,115.73l-.37.93c-.52-.25-.19-.7-.24-1.06l0,0a2.13,2.13,0,0,0,.41-.06Z"/><path class="cls-1" d="M153.3,120.19l-.35.34c0-.28-.35-.61.11-.84Z"/><path class="cls-2" d="M157.39,106.49c.45,1,1.83,1.41,1.51,3s-.84,3-2.8,3l-.81-.15c.35-2.65-1.36-5.26-.16-7.92a6.1,6.1,0,0,1,.44-.71C155.41,105.14,156.35,105.85,157.39,106.49Z"/><path class="cls-1" d="M150.11,98.25l1.65-.48,1.54.5h0c0,1.1,1.11.77,1.63,1.25C151.69,101.26,151.69,101.26,150.11,98.25Z"/><path class="cls-3" d="M157.39,106.49c-1-.64-2-1.35-1.82-2.78l-.43-1.31c.1-.2.95.27.42-.48l0-.48h.4c1.45.73-.27,2.48,1,3.26C157.34,105.26,157.79,105.78,157.39,106.49Z"/><path class="cls-3" d="M155.29,112.34l.81.15c-.06,1.15-.57,2.59,1.54,2.32,0,1-1.38.39-1.56,1.22h-.57C154.86,114.82,155.22,113.57,155.29,112.34Z"/><path class="cls-1" d="M155.55,101.92c.52.74-.32.28-.42.48Z"/><path class="cls-4" d="M156,101.45h-.4l.4-.42A.39.39,0,0,1,156,101.45Z"/><path class="cls-2" d="M170.25,117.87a25,25,0,0,0,.36,6.43c-.74,1.18-1.93,1-3.05,1-1.44,0-2.87.06-4.31,0-2.58-.07-3.2-1.24-1.88-3.49.22-.38.4-.79.6-1.18,0-.92-.49-1.73-.49-2.7,0-1.83.73-1.8,2-1-.41,1.26.59,1,1.15,1C166.49,117.93,168.37,117.89,170.25,117.87Zm-2.8,2c0-.44.42-1.36-.77-1.1-.42.09-1.25-.39-1.15.48.06.61.11,1.59,1.18,1.5C167.11,120.72,167.94,120.91,167.45,119.88Z"/><path class="cls-1" d="M141.08,130.32l4.45-.09-.06,1.78L141,132Z"/><path class="cls-1" d="M157.34,131.56h-4.42c.06-2.76,2.21-1.19,3.37-1.54S157.54,130.67,157.34,131.56Z"/><path class="cls-1" d="M158.84,119.18a.71.71,0,0,0,0-.31l.15.22Z"/><path class="cls-1" d="M111.32,101c-.06-1.58,1.31-2.78,1-4.49-.14-.89.94-.94,1.71-1,1.13-.07,2.19.13,2.6,1.3a10.87,10.87,0,0,1,.94,4.13c-1.95.82-4.68-.81-5.82,2.22C111.12,102.33,111.47,101.63,111.32,101Z"/><path class="cls-1" d="M111.32,101c.15.62-.2,1.31.47,2.17,1.14-3,3.87-1.41,5.82-2.22.32,1.58-1,2.6-1.33,4l-.75-.07c-1.48-1.3-2.82.43-4.25.21-.28-1.05-1-1.09-1.88-.86l.13-1.43c1.81-.31.34-1.82,1.1-2.49Z"/><path class="cls-1" d="M109.4,104.22c.86-.24,1.6-.19,1.88.86,0,1.27.09,2.55,0,3.82,0,.58.35,1.59-.73,1.52s-.58-1-.67-1.64c-.14-1,.47-2.11-.48-3C109.55,105.28,108.7,104.77,109.4,104.22Z"/><path class="cls-3" d="M105,88.14a2.54,2.54,0,0,1,0-.44c1.18-.43,3.14,1.35,3.54-1.25l2.3-.15c.53,1.62-.83,1.83-1.77,2.36Z"/><path class="cls-3" d="M115.53,104.86l.75.07-1.39,5.15C113.62,108,115.41,106.6,115.53,104.86Z"/><path class="cls-1" d="M118.11,115.56a2.13,2.13,0,0,1-.41.06c-.05-.41,0-.77.46-.93h0Z"/><path class="cls-1" d="M118.16,114.69l.19-.22s0,.11,0,.14a.59.59,0,0,1-.17.09Z"/><path class="cls-1" d="M109.58,97.42q0-.29,0-.58C109.82,97,109.81,97.23,109.58,97.42Z"/><path class="cls-1" d="M109.56,93.75l0-.52a2.09,2.09,0,0,1,.17.35S109.6,93.7,109.56,93.75Z"/><path class="cls-3" d="M163.7,103.25,162,101.51c.21-.09.43-.3.61-.27C163.61,101.42,163.8,102.22,163.7,103.25Z"/><path class="cls-4" d="M73.89,42.52c.51.52,1.11,1,1,1.85-2.25,2.08-5.4,2.55-7.8,4.37-.8.61-1.56,1.46-2.76,1.15h0a2.61,2.61,0,0,0-1.41-2.28c1.94-1.63,2.9-4,4.61-5.84a15.29,15.29,0,0,1,5.9.42l0,0C73.27,42.68,73.63,42.53,73.89,42.52Z"/><path class="cls-4" d="M58.39,54.44c-.79,0-.89-.26-.59-1a7.46,7.46,0,0,1,3.79-4c.82.66.94,1.16.16,2.15C60.79,52.86,59.32,53.3,58.39,54.44Z"/><path class="cls-1" d="M65.82,51c-.13.08-.25.19-.36.19s-.24-.11-.36-.18c.12-.07.23-.19.35-.19S65.69,51,65.82,51Z"/><path class="cls-1" d="M64.32,49.89a.67.67,0,0,1-.06.17s-.08,0-.12,0l.18-.21Z"/><path class="cls-3" d="M73.42,42.19a15.29,15.29,0,0,0-5.9-.42c.2-.87-.77-2.33,1.18-2.4a11,11,0,0,0,.18-1.7c.41,0,.49.56.59.53,2.23-.84,3.63.84,5.29,1.71C74.76,40.93,72.82,40.81,73.42,42.19Z"/><path class="cls-1" d="M170.25,117.87c-1.88,0-3.76.05-5.64,0-.56,0-1.56.3-1.15-1a12.7,12.7,0,0,1,6.47-.21C170.48,116.87,170.51,116.76,170.25,117.87Z"/><path class="cls-1" d="M95.76,63.49a1.58,1.58,0,0,0-.26.25l-.63.3-.7,0,1.16-.9Z"/><path class="cls-2" d="M92.63,64.51l-.91.65C91.79,64.61,92.18,64.51,92.63,64.51Z"/><path class="cls-2" d="M93,64.41a.54.54,0,0,1-.39.13C92.69,64.32,92.77,64.11,93,64.41Z"/><path class="cls-2" d="M129.57,124.18a8.52,8.52,0,0,0,3.76.51c3-.3,6,.38,9,.47-.79.89-1.83.48-2.76.49-2.63,0-5.26,0-7.88-.08C130.74,125.54,129.63,125.63,129.57,124.18Z"/><path class="cls-2" d="M133.27,129.71c-.61.47-.75-.63-1.35-.37-1.45.63-1.39-.37-1.44-1.35-.07-1.44.87-1.33,1.81-1.31a1.62,1.62,0,0,1,1.36.71C132.79,128,133.29,128.92,133.27,129.71Z"/><path class="cls-1" d="M133.27,129.71c0-.79-.49-1.67.38-2.33l1.9-.32c1,1.41.09,2.06-1,2.62Z"/><path class="cls-1" d="M153.3,98.27l-1.54-.5,1-.57A1.14,1.14,0,0,1,153.3,98.27Z"/><path class="cls-2" d="M18.14,74.66a1,1,0,0,1-1.21,1c-.62,0-.36-.69-.41-1.08-.09-.71.39-.9,1-.88S18.13,74.19,18.14,74.66Z"/><path class="cls-1" d="M89.85,119.67l-2.74,0c.32-1.46-.93-1.36-1.71-1.63-1.5-.52-2.23-1.39-1.59-3a1.2,1.2,0,0,0,1.06.52c.53.21,1.21.86,1.59.22s-.79-1.16-.79-1.94l.53-.53,1-.39c0,1.08.91,1.19,1.55,1.62,1,.68,2.28,1.08,2.72,2.4-.86.3-1.55-.37-2.39-.62.16,1,1.23,1.3,1.25,2.19l.2.82-.14.08Z"/><path class="cls-1" d="M105.87,119.17a.47.47,0,0,1-.38.11l-.52.36-3.18-.13a24,24,0,0,0-9.13,0l-.11-.09,0-.14c-.24-.73-1.14-1.17-.9-2.1a4.79,4.79,0,0,0,3.57,1.14c2-.05,4.09,0,6.13,0,1.09,0,2.55.56,2.78-1.38,0-.38.57-.44,1-.38a.74.74,0,0,1,.66.78C105.83,118,105.85,118.56,105.87,119.17Z"/><path class="cls-1" d="M84.39,109.65c-.08.35-.06.81-.62.72a.86.86,0,0,1-.75-1q.05-4.09.13-8.17c0-.47.17-1,.69-1,.79,0,.56.72.62,1.21.14,1-.37,2.11.32,3.07C85.38,106.27,84.17,107.9,84.39,109.65Z"/><path class="cls-1" d="M91.69,117.23c-.23.93.66,1.37.9,2.1l-1.4,0-.87-.74c0-.9-1.09-1.16-1.25-2.19.84.25,1.53.92,2.39.62A.59.59,0,0,1,91.69,117.23Z"/><path class="cls-1" d="M107.68,119.13h-.94A.54.54,0,0,1,107.68,119.13Z"/><path class="cls-1" d="M49.65,108.73,51,107.39c6.51-4.43,13-8.84,19.51-13.3,1-.68,1.75-1.56,2.67.12.46.83,1.54.26,2.33.43-.21.65-.48,1.29-1.27,1.37-2.71.27-3,1.95-2.38,4.12-.4,1.22-1.53,1.47-2.52,1.92a7.49,7.49,0,0,0-5.91,1c-2.12,1.44-4.22,2.91-6.33,4.36-1.77.12-3.53.27-4.66,1.95a.76.76,0,0,0-.4-.08C51.42,108.4,50.45,108.91,49.65,108.73Z"/><path class="cls-1" d="M77.49,90.53h.6c.54.77,1.45.19,2.1.64-1.7.72-2.43,2.82-4.43,3.22a7.39,7.39,0,0,1-.53-3.05C75.86,90.74,76.94,91.38,77.49,90.53Z"/><path class="cls-1" d="M48.31,94.65c0,.49,0,1,.49,1.33a1.93,1.93,0,0,1-1.63,1.3c-.16,0-.49-.3-.48-.33C47.13,96.13,47.11,95,48.31,94.65Z"/><path class="cls-1" d="M52.47,95.06l.19.2-.21-.18Z"/><path class="cls-1" d="M83.51,114.46c-2-1.54-2.45-4-3.15-6.15A34.52,34.52,0,0,1,79,100.8c-.22-2.51,1.71-4.47,1.9-7.3a2.92,2.92,0,0,1,.79,3c-.71,3.53-1.75,7.17-.42,10.69.68,1.79.44,4.21,2.69,5.24Z"/><path class="cls-1" d="M83.51,114.46l.46-2c1.11-.64,1.87-.39,2.24.87l-.53.54C84.58,112.67,84.31,114.59,83.51,114.46Z"/><path class="cls-3" d="M71.61,103.75c.19,0,.54.08.54.14,0,.4-.31.26-.53.31h0v-.47Z"/><path class="cls-1" d="M84.88,115.6a1.2,1.2,0,0,1-1.06-.52A.81.81,0,0,1,84.88,115.6Z"/><path class="cls-3" d="M71.62,104.2c-.15.46-.3.32-.45,0l0,0h.47Z"/><path class="cls-1" d="M60.67,81.38l0,.81a1.59,1.59,0,0,1-1.75.45C59.26,81.91,59.64,81.19,60.67,81.38Z"/><path class="cls-3" d="M73.89,42.52c-.26,0-.62.15-.49-.37Z"/><path class="cls-3" d="M98.6,62.28c-.22.36-.5.47-.86.19l.61-.52A1.43,1.43,0,0,0,98.6,62.28Z"/><path class="cls-3" d="M99,62.24a1.39,1.39,0,0,0-.4,0,1.43,1.43,0,0,1-.26-.32c.35-.23.67-.36.69.27Z"/><path class="cls-1" d="M71.55,77.32l-.43.45-.49-.5-.11-.47c.38-1,.75.08,1.12,0Z"/><path class="cls-3" d="M119.12,137.57a2.74,2.74,0,0,1-2.91,2.23,2.1,2.1,0,0,1-2.42-1.62c-.39-1.27,1.36-1.67.74-2.79.73.77,1.58-1.2,2.3.11.45.82,1.24.06,1.81.34A2.29,2.29,0,0,1,119.12,137.57Z"/><path class="cls-1" d="M119.12,137.57a2.29,2.29,0,0,0-.48-1.73,1.87,1.87,0,0,0-.72-1.27l.3-.32c.49-.15,1.44.41,1.24-.8.31-.81.63-.64,1,0a.78.78,0,0,0-.43,1c-1.21.77-.33,1.52,0,2.28l-.06,1.27Z"/><path class="cls-1" d="M120,137.95l.06-1.27c.73.06,1.16-.15.88-1v-.48l.88.33.08,2.4Z"/><path class="cls-1" d="M117.25,132c1.29-.39,1.25.56,1.36,1.36a.74.74,0,0,0-.39.86l-.3.32C116.1,134.15,117,133,117.25,132Z"/><path class="cls-1" d="M57.09,107.44c2.11-1.45,4.21-2.92,6.33-4.36a7.49,7.49,0,0,1,5.91-1,11.86,11.86,0,0,1-4.27,3.2,20.39,20.39,0,0,0-3.4,2.15l-4.23.38Z"/><path class="cls-1" d="M57.44,107.78l4.23-.38c-1.32,2-3.63,2.75-5.33,4.31-.91.84-1.49-1.13-2.11-2,1.32-1.67,1.31,1.3,2.5.57C54.5,108.76,57.67,108.84,57.44,107.78Z"/><path class="cls-1" d="M49.65,108.73c.8.18,1.76-.33,2.38.58-.27.76-.19,1.81-1.46,1.72-2.13-1.27-2.4,1.17-3.58,1.79H46l-.88-.84a12.61,12.61,0,0,1,4-2.76l.57-.47Z"/><path class="cls-1" d="M57.44,107.78c.23,1.06-2.94,1-.72,2.55-1.19.73-1.17-2.24-2.5-.57-.58-.22-1.3.28-1.79-.37,1.12-1.67,2.88-1.83,4.66-1.95Z"/><path class="cls-1" d="M55.65,113.88c-.34.83-1.27.92-1.86,1.46-.86.79-1.06-.07-1.27-.7.5-.35.43-.63-.1-.85v.05C53.59,112.44,54.61,112.45,55.65,113.88Z"/><path class="cls-1" d="M71.62,104.2h-.47l.48-.48Z"/><path class="cls-2" d="M58.8,129.79c-.46-.21-.36-.39,0-.57Z"/><path class="cls-3" d="M88.42,137.75a3.69,3.69,0,0,1,2.36-1.57l0,0c-.35.89-.3,1.52.91,1.37l1,1.36,0,1.37-1.41.88c-.31-1.54-3.06-.65-2.78-2.78l0,0C89.07,138.18,88.49,138,88.42,137.75Z"/><path class="cls-2" d="M88.45,138.36c-.27,2.13,2.47,1.23,2.78,2.78-.43.69-1.46.09-1.85.86-1.89.08-1.53-1.85-2.4-2.69Z"/><path class="cls-1" d="M92.64,140.27l0-1.37c.46-.16.94.67,1.39,0,1.54-.28,1.23.93,1.16,1.64-.12,1.11-.86.28-1.3.22A5.75,5.75,0,0,1,92.64,140.27Z"/><path class="cls-1" d="M89.11,145.73c.22.14.49.22.53.36.1.4-.24.49-.52.45s-.28-.24-.42-.37Z"/><path class="cls-1" d="M91.69,145.72l-.48.34c-.14-.54.33-.22.48-.34Z"/><path class="cls-1" d="M93.23,145.05c-.06,0-.12.09-.18.09s-.1-.07-.15-.12Z"/><path class="cls-3" d="M95.35,136.6l.37-.17.08.66Z"/><path class="cls-3" d="M95.76,137.06c.32.1.5.22.06.43A1.21,1.21,0,0,1,95.76,137.06Z"/><path class="cls-1" d="M91.7,145.72l.11-.19-.11.19Z"/><path class="cls-1" d="M81.22,119.91l-.84.33C80.45,119.61,80.78,119.61,81.22,119.91Z"/><path class="cls-1" d="M56.5,115.38l-.24.48c-.15-.09-.42-.18-.43-.28a.73.73,0,0,1,.25-.52C56.32,114.88,56.44,115.07,56.5,115.38Z"/><path class="cls-3" d="M52.42,113.79c.53.23.6.51.1.85Z"/><path class="cls-1" d="M56.11,117l.1-.19-.11.19Z"/><path class="cls-1" d="M91.67,137.53c-1.21.14-1.26-.48-.91-1.37.67-.24,1,.33,1.53.58Z"/><path class="cls-1" d="M92.66,119.55a24,24,0,0,1,9.13,0l-.64.73a20.67,20.67,0,0,0-5.72,0C94.68,119.22,93.52,120,92.66,119.55Z"/><path class="cls-1" d="M90.32,118.56l.87.74-.67.08Z"/><path class="cls-1" d="M89.85,119.67l.53-.22Z"/><path class="cls-4" d="M105,119.64l.52-.36Z"/><path class="cls-1" d="M45.16,112l.88.84-.87.1c-.2-.15-.68,0-.62-.36C44.59,112.33,45,112.16,45.16,112Z"/><path class="cls-1" d="M49.71,108.74l-.57.47Z"/><path class="cls-2" d="M88.42,137.75c.07.22.65.43,0,.66A.41.41,0,0,1,88.42,137.75Z"/><path class="cls-2" d="M120.89,135.7c.28.84-.15,1-.88,1-.35-.76-1.22-1.51,0-2.28l.21-.05.19.09,0,.7C120.14,135.7,120.63,135.6,120.89,135.7Z"/><path class="cls-2" d="M118.22,134.25a.74.74,0,0,1,.39-.86l.86.06C119.66,134.66,118.71,134.1,118.22,134.25Z"/><path class="cls-1" d="M120.4,134.45l-.19-.09-.21.05a.78.78,0,0,1,.43-1C120.43,133.78,121.4,134.14,120.4,134.45Z"/><path class="cls-1" d="M120.89,135.7c-.26-.1-.75,0-.52-.55l.51.07Z"/><path class="cls-1" d="M70.62,124.77l-.3.5-.25-.31Z"/><path class="cls-1" d="M71.13,123.84l-.41.51Z"/><path class="cls-2" d="M95.81,127l-.22.34c-.32-.33,0-.3.2-.37Z"/><path class="cls-1" d="M146.45,121.09l-.11.19.1-.2Z"/><path class="cls-1" d="M167.45,119.88c.49,1-.34.85-.74.88-1.07.09-1.12-.89-1.18-1.5-.09-.88.74-.39,1.15-.48C167.87,118.52,167.4,119.44,167.45,119.88Z"/><ellipse class="cls-1" cx="28.16" cy="104.33" rx="11.12" ry="25.07" transform="translate(-53.78 33.88) rotate(-34.21)"/></svg>