<svg id="Layer_1" data-name="Layer 1" xmlns="http://www.w3.org/2000/svg" viewBox="0 0 100 66"><defs><style>.cls-1{fill:#424142;}.cls-2{fill:#f8bc18;}.cls-3{fill:none;}</style></defs><title>Artboard 1 copy</title><path class="cls-1" d="M87.66,48.64l2,4.25,2.18-1-3.36-7.44C86.81,40.71,84,40.73,84,40.73L40.25,33.29l-1-2.19c-1.43.55-3,1.2-4.2,1.72-1.61.73-2.35.6-2.67.39l2.35,1.89.57,5s35.49,6.6,39.49,7.25,5.42,2.61,6.58,5.18a2.3,2.3,0,0,0,3.43,1.18l-1.42-3.14ZM43.72,40.89l3.48-2.94,16.07,2.64L61,43.73Zm21.87,3.18L68,40.82l4.79.62Zm1.89.23,6.38-2.61,4,.73-4.14,2.9Zm7.41,1.31,3.83-2.84,3,.68-1.7,3.8ZM81,48.41,83,44.15l2.24,3.47Z"/><path class="cls-1" d="M25.44,28.34s2.18-.26,2.18,5.67l3.67-.12a1.39,1.39,0,0,1-1.06,2.21c-2.13.45-2,1.62-2,1.62l.29,1.74-3.59.39,1.68-4.06a1.49,1.49,0,0,1-1.32-1.51C25.21,32.88,25.44,28.34,25.44,28.34Z"/><path class="cls-1" d="M10,39.85,8.86,41.92v2.93h1.9V43.38s-.38-1.46,1.6-1.46"/><path class="cls-1" d="M20.25,47.3H9.82A2.62,2.62,0,0,0,7.32,50v.79a2.62,2.62,0,0,0,2.5,2.7H20.25a2.62,2.62,0,0,0,2.5-2.7V50A2.62,2.62,0,0,0,20.25,47.3Z"/><path class="cls-2" d="M18.85,48.57a1.77,1.77,0,0,0-1.62,1.06H12.84a1.77,1.77,0,1,0,0,1.42h4.39a1.77,1.77,0,1,0,1.62-2.48Z"/><rect class="cls-1" x="12.53" y="45.34" width="5.24" height="1.96"/><rect class="cls-1" x="12.53" y="41.74" width="5.24" height="1.96" transform="translate(-27.57 57.87) rotate(-90)"/><path class="cls-1" d="M51.81,47.3H41.38a2.62,2.62,0,0,0-2.5,2.7v.79a2.62,2.62,0,0,0,2.5,2.7H51.81a2.62,2.62,0,0,0,2.5-2.7V50A2.62,2.62,0,0,0,51.81,47.3Z"/><path class="cls-2" d="M50.41,48.57a1.77,1.77,0,0,0-1.62,1.06H44.41a1.77,1.77,0,1,0,0,1.42h4.39a1.77,1.77,0,1,0,1.62-2.48Z"/><rect class="cls-1" x="44.1" y="45.34" width="5.24" height="1.96"/><rect class="cls-1" x="44.1" y="41.74" width="5.24" height="1.96" transform="translate(3.99 89.44) rotate(-90)"/><path class="cls-2" d="M28.63,43.66l-5.88-1.74h-5l5.1,5,1.28,1.25a3.8,3.8,0,0,0,4.76-.5A2.47,2.47,0,0,0,28.63,43.66Z"/><path class="cls-3" d="M31.26,30.94v-.78L34.17,30l.5-6.22-10.88.34v5.6l.63.84V34s-1,.83-1.68,1.36v3.81H33.89V30.94Z"/><path class="cls-1" d="M24.43,34v-3.4l-.63-.84v-5.6l10.88-.34L34.17,30l-2.91.11v.78h2.63v8.23h.17L36.3,29,37,23.33c1.68,0,3-3,3-3L21.18,21.37l1.57,2v12C23.45,34.84,24.43,34,24.43,34Z"/><polygon class="cls-2" points="12.95 31.73 8.86 33.24 8.86 41.92 17.77 41.92 22.75 41.92 22.75 39.18 22.75 35.37 22.75 31.73 12.95 31.73"/><path class="cls-1" d="M36.19,49.31v-.55l6.72-6.4-9.29.22.45-3.42H22.75v2.74l5.88,1.74a2.47,2.47,0,0,1,.28,4,3.8,3.8,0,0,1-4.76.5l-1.28-1.25.5,6.45H37.25V52.22l-1.68-1.85Z"/><path class="cls-2" d="M47.69,32.9C44.25,32,36.3,29,36.3,29L34.06,39.18l-.45,3.42,9.29-.22h6.43a.82.82,0,0,0,.37-.07c.33-.14.76-.56.76-1.78v-.06c0-.87.08-2,.16-3,.11-1.3.23-2.38.23-2.38S51.14,33.86,47.69,32.9Z"/><polygon class="cls-1" points="87.82 47.78 82.96 49.97 84.63 53.65 85.41 55.4 90.47 53.53 90.2 52.76 87.82 47.78"/><path class="cls-1" d="M45.09,26.89l1.69-4.71s-.81-.4-1-.34-1.2,3.09-1.71,4.56A1.39,1.39,0,0,1,45.09,26.89Z"/><path class="cls-2" d="M44.5,25.27a2,2,0,0,0-.28,0l-1.48,3.46s3.54,4.38,4.85,6.34.48,1.95.48,1.95l-3.32,2.84,0,.05c.71,1,.61,1.58.42,1.89a45.42,45.42,0,0,1,4.14-3.46c2.16-1.56.54-2.95.54-2.95l-5-7,.75-1.75a1.13,1.13,0,0,0-.17-.86A1.39,1.39,0,0,0,44.5,25.27Z"/><path class="cls-1" d="M45.66,23.72l.23.32c1.87-5.66,2.53-5.1,2.53-5.1V17.7C46.9,18.85,45.66,23.72,45.66,23.72Z"/></svg>