<svg id="Layer_1" data-name="Layer 1" xmlns="http://www.w3.org/2000/svg" viewBox="0 0 200 200"><defs><style>.cls-1{fill:#f8bb16;}.cls-2{fill:#141413;}.cls-3{fill:#222;}.cls-4{fill:#404544;}.cls-5{fill:#fdfdfd;}</style></defs><title>icons</title><path class="cls-1" d="M43.43,104.49c2.76.62,5.54.34,8.32.24l.56.07h18.3c1.86.29,3.67-.3,5.51-.34,7.61,1,15,3.1,22.32,5.16,2.48.7,4.86,1.79,7.4,2.17,2.25.34,4.18,1.63,6.44,1.82a1,1,0,0,1,.26.05c1.47.33,1.47,1.6,1.71,2.71-.4,1.26.22,2.44.28,3.66l-.19.6,0,.64c-.72,2.76-.4,5.53-.15,8.31.11,1.25.69.57,1.18.47l0,1.2,0,3.13-.77.13c0-.37.42-.8,0-1.19-.43.41-.27.84-.34,1.22l-2.78.11-1.36.17-1.41-.07H108a2,2,0,0,0-1.56.17.67.67,0,0,0-.86-.21h-.71l-2.11-.16c-.09-.19-.22-.22-.37-.07a.11.11,0,0,0,0,.16c-1.45-.51-3-.08-4.44-.34l-2.63,0a30.19,30.19,0,0,1-4.79.25c-4.57-.36-9.13-.27-13.69-.24a30,30,0,0,0-5.26,0c-1.42-.05-2.85-.14-4.27-.16-9.38-.09-18.77-.21-28.15-.21-1.62,0-1.88-.48-1.76-2,.58-7.26,1-14.52,1.52-21.79,0-.4.13-.81.14-1.21.05-2-.12-4.22,2.85-4.34ZM61,111.88c.26.55-.33,1.3.42,1.71.08,0,.41-.15.4-.18-.21-.94.9-1.63.52-2.49-.12-.27-1-.39-1.33.21l-.59,0-.67-.45c-.09-.17-.2-.21-.35-.07-.66.2-1.55,0-1.67,1.09a1.69,1.69,0,0,0,.58,1.69,1.64,1.64,0,0,0,1.64.17c.36-.13.67-.54.27-.74-1.45-.71.1-.7.21-1ZM39.24,122.7c-.33,2.55-.33,2.55,1.67,2.62l.16.78a4.16,4.16,0,0,1-.84.19c-.69,0-1.29,0-1.23,1s.77.66,1.28.7,1.28,0,1.91,0c0,.75-.75,1.12-.93,2.15,1.8-.82,3.64-.14,5.32-.91a6.86,6.86,0,0,0-2.9-.22c-1,.18-1.12-.27-1.09-1h5.9c.06.37-.05.89.52.89s.51-.46.46-.86l6.81-.08a3.83,3.83,0,0,0,2.55.32c3.15-.2,6.28.24,9.47-.56,2.59-.65,5.38.34,8.08.64q9.28,1,18.52,2.43c1.48.22,3,0,4.44.63.8.37-.09.32-.18.48-.63,0-1.26-.05-1.89,0s-.81.65-.48,1c.68.64,1.63.17,2.46.27s.86-.37.75-1a2.21,2.21,0,0,1,1.83-.33c1.41.42,2.77,0,4.16,0-1.63-.66-3.15-1.71-5-1.13a4.11,4.11,0,0,0-2.39-1.52c-4-1.33-8.14-2.46-12.26-3.51a262.18,262.18,0,0,0-42.5-7.11c-4.39-.37-4.4-.33-4.56,3.73Zm5.11-10.86c-.21.6.19,1,.52,1.39.47.51,1.35,1.05,1.78.53s-.26-1.67.45-2.48c.1-.12-.64-.6-1.13-.52a9.51,9.51,0,0,0-1.31.4c-.63-.39.57-1.47-.45-1.53S43.64,111,43,111.52c-.42-.32-.36-.83-.51-1.23s-.33-.8-.86-.6-.2.57-.14.88a3.19,3.19,0,0,0,.2.85c.4.77,0,2,1.16,2.3C44.3,114,43.6,112.28,44.35,111.85Zm60.16,8.53c-.52-2.31-2.39-3-4.39-1.72-.38.25-.74.44-1,.13-.53-.54-.5-.56-.71-.6-1.53-.28-3,.54-4.61.06-.71-.22-.45.64-.56,1-.24.71.31.49.69.51A103.77,103.77,0,0,0,104.51,120.37ZM51.25,111.8c.14,1.08.13,2.37,1.7,1.8a3.08,3.08,0,0,1,2.9.12.89.89,0,0,0,1.19-.44c.23-.83-.47-.27-.72-.4-.65-.33,0-.46.16-.63s.83-.4.62-.91-.84-.46-1.34-.56c-.75-.16-1.33.88-1.59.61-1-1-2.09-.36-3.1-.55-.84-.16-1.38.1-1.21,1.08.1.57-.36,1.57.41,1.63s.22-1.06.61-1.52A2.64,2.64,0,0,1,51.25,111.8ZM42.15,108a9.65,9.65,0,0,1,1,0c1.05.13,1.59-.13,1.53-1.38-.07-1.46-1.07-1-1.75-.95s-1.36.31-2,.37c-.9.08-.87.72-.76,1.26C40.44,108.68,41.62,107.61,42.15,108Zm6.28,2.77c-1,.33-.51,1.27-.59,1.94,0,.37-.18,1.21.52.93.89-.36.25-1.65,1-2.36C49.74,111,48.9,110.94,48.43,110.75Z"/><path class="cls-2" d="M111.54,134.66l2.78-.11.38,0,.77-.13c.55-.91,0-1.91.25-2.84,1.63.21,3.21,1.29,4.9.23l1.06,0c-.09.2-.12.51-.27.6a2,2,0,0,0-.85,2.32c.22,1,1.3.93,2.17.94.23,0,.46,0,.69,0,1.18.59,2.31-.27,3-.12-1.09.57-1.25-1.65-2.58-1.61-.23-.86.45-1.58.38-2.42,1.59-.12,1.1-1.38.86-2s-.78-.39-.92.3c-1,0-1.09,1-1.75,1.38-.31-1.25.53-2.94-1.38-3.57V127c.47-1.28.23-2.63.42-3.95s1.36-2.6-.29-3.74c-.15-.1-.15-.54.09-.6,1-.25.83-1.16,1.06-1.8s.51-.86,1.12-.76c.43.67,1.23,1.17.71,2.39.48-.32.66-.55.86-.56.63,0,.3-1.49,1.52-.84,1,.55.8,1,.48,1.77-.22.51,1,1.46-.52,1.63-.2,0,0,.38.09.59,1,2.31,3.68,1,5.12,2.39a.87.87,0,0,0,.63.12c.15,0,.26-.23.41-.3a4.25,4.25,0,0,1,3.08-.66c.85.22,1.84-1.08,1.32-1.58-1.18-1.13-.18-2.73-1-3.93-.23-.32.12-.94.5-1.21,1.38-1,.9-2.39,1-3.7s-1.1-2.15-.92-3.42c1.44.52,1.34,2.1,2.12,3.08q0,.12,0,.25a.71.71,0,0,0,0,1.2,1.17,1.17,0,0,1,0,.23l.05,2.12c.38.93-1,2.51,1,2.84l.15.08-.15-.08c.15-1.44.65-2.48,2.39-2.08,1,.87,2.1,1.91,1.32,3.31a6.72,6.72,0,0,0-.55,3.51c0,1.11,0,2.21,0,3.32-.86,0-1.87,0-2.2.82-.22.58.74.64,1.18.93a.28.28,0,0,1,.13.26,4.75,4.75,0,0,0,.46,5c-.12.94.51,1.16,1.23,1.33a4,4,0,0,1,2.24.82l-.08.65c-.45.35-2.15-.55-1.22,1.21,0,0-.13.17-.19.17-1.2-.1-1.94,1.27-2.55,1.33-1.81.17-3.16,1.39-4.87,1.61-.6-.91-1.11-1.94-2.53-1.32a1.1,1.1,0,0,0-.71,1.4c.36,1.35,1.44.79,2.3.81,1.14.57,2.55.32,3.6,1.19.21.45,1.31.42.7,1.31-1.75.43-3.42,1.39-5.29,1-2.7-.58-5.37-1.24-8.06-1.87.6-.89.07-1.2-.71-1.38s-1.67-.51-1.68.86l-2.8,0a4.86,4.86,0,0,1,.17-.47c.21-.43,1.41.11,1-.92a.94.94,0,0,0-1.42-.41.59.59,0,0,1-.74-.24c1.69-.53,1.15-1.79,1-2.94-.37-.42-.86-.21-1.3-.26-1.08-.15-2-.13-1.9,1.38l-1.26.37c-.66-.26-.85-1.27-1.77-1.1a2.36,2.36,0,0,0-1-1,3.54,3.54,0,0,0-2.81,0c-.4-.53-.74,0-1.1.07-.41-.29-.8-.74-1.25-.82a1.46,1.46,0,0,0-1.61.67c-.22.58.48.38.81.45.23.36.46.37.7,0a.79.79,0,0,1,.72.31c-.17,1.1-1.33.71-1.86,1.27,0,.66,1,.29,1,1.08-1,.15-1.56,1.12-2.61,1.18-.34.12-.36.44-.45.72l-.25,0h-1.06c0-1.7-1.35-.8-2.11-1l-1-.05c.36-.59,1.3.06,1.62-.79-.77-.32-1.68.17-2.28-.38.76-.89,2.93.35,2.73-2l2.46,0c.06,1.2-1.1.94-2,1.45.93,0,1.51,0,2.08,0s1.07.19,1.2-.39a1,1,0,0,0-1-1.36c-.86-1.78-2-.88-3.14-.36l-.7-.3h0a.63.63,0,0,0-.71-.34c-.92,0-2-.26-2.37,1l-.75-.34c-1.05-1.07-2.11-.66-3.16,0l-.73-.32c-1-.54-2-.2-3.07,0a.71.71,0,0,0-.74.3,3.75,3.75,0,0,0-3.13-.31l-.73.33c-1.14-.69-2.25-1.19-3.14.35h-.76c-.72-1.63-2-.7-3.07-.67l-.74,0a3.91,3.91,0,0,0-3.12,0l-.74.35c-.82-1.2-1.94-1-3.08-.66l-.72.3c-1-.93-2.09-.5-3.17-.34h-.73a2.93,2.93,0,0,0-3.18.32h-.67c-1-1.33-2.26-1.32-3.44,0h-.39c-.74-1.59-2-.75-3.12-.68l-.35.36a1.75,1.75,0,0,0,0,.3l-1.13,0c-1.78-.39-2.22,1.27-3.2,2.09-.42.21-.64-.86-1.13-.17s-1.28.56-2,.54c-1.68,0-3.36-.05-5,0a3.44,3.44,0,0,0-2.69.87l-2.31-2.24c-.16-.75-.75-.94-1.38-1.09-.38-.39-.81-.74-.81-1.35L37,135l-.42-.61c-.08-1.23-.32-1.44-1.36-1.12a14.74,14.74,0,0,0-1.72-.28c-1,0-2.82.2-2.89-.06-.51-1.9-2.58-3.21-2-5.57.31-1.23.53-3-1.73-2.9.12-.6,0-1.36.7-1.64,1.52-.65.82-1-.13-1.33a3,3,0,0,1-.66-.51l-3.49-1.75c1.05-1.73,2.55-1.41,4.09-.89.37.13.85.4,1-.17s-.33-.57-.74-.67A65.18,65.18,0,0,0,20,115.72c-.65-.08-1.09-.31-.73-1,.25-.47-.25-1.52,1.09-1.28,2.33.42,4.66.81,6.95,1.41.5.13,1.1.33,1.43-.2a1.06,1.06,0,0,0-.19-1.43h0c0-1.65-.37-3.31.09-4.94.14-.48.27-1,.87-1.2.28-.08.37.19.51.37.63.8-.57.78-.61,1.45,1.25.09,2.08,1.12,3.23,1.46,2.12.62,4.25.89,6.31-.27-.5,7.26-.94,14.53-1.52,21.79-.12,1.52.14,2,1.76,2,9.38,0,18.77.12,28.15.21,1.42,0,2.85.1,4.27.16,0,.33,0,.83.34.89a14.41,14.41,0,0,0,4.58,0c.39-.06.31-.55.35-.88,4.57,0,9.12-.11,13.69.24a30.19,30.19,0,0,0,4.79-.25c.88.11,1.74,1,2.63,0,1.47.26,3-.17,4.44.34-.12.68-1,.19-1.27.7,1.51.91,2.8,1.05,3.73-.63h.71a.75.75,0,0,0,.86.21,2,2,0,0,1,1.56-.17c0,.29-.08.75.37.75s.34-.44.38-.75l1.41.07C110.72,135.47,111.17,135.38,111.54,134.66Zm16.1-10.21c-.25,0-.55,0-.53.42a.16.16,0,0,0,.11.11c.38,0,.38-.27.42-.53l.08-.15Zm-3.78-4.63a6.76,6.76,0,0,1,0,2.07c0,1,.33,1.86,1.57,1.85.43,0,1.05.16,1.09-.51s-.63-1.35-1-1.13c-1.43.78-.89-.36-1-.88C124.42,120.85,124.64,120.4,123.85,119.83Zm13.67,5.7c-.26.16-1.19-.17-1.07.64a1.32,1.32,0,0,0,1.67,1.09c.57-.1,1.37,0,1.25-.81S138.5,125.44,137.52,125.54Zm1.66,8.64c.06.42-.13,1.06.56,1A1.19,1.19,0,0,0,140.9,134a.88.88,0,0,0-1-1C139.2,133,139.22,133.64,139.18,134.17Zm.78-11.43a2.49,2.49,0,0,0,0-2.31c0-.08-.3,0-.46,0,0,.61,0,1.22.06,1.83C139.6,122.32,139.72,122.41,140,122.74Zm-11.58,11.55a3.36,3.36,0,0,0,3.62,0Zm8.27-4.07c-.36,0-.55.06-.55.34s.1.45.37.47.5,0,.46-.33A1.38,1.38,0,0,0,136.65,130.22Zm-1.27,4.29c.8,0,1.26.29,1.7-.15A2.29,2.29,0,0,0,135.38,134.51Zm-.11-4.1c-.19-.13-.3-.28-.42-.28s-.36.09-.39.19c-.08.28.14.39.37.37S135.09,130.54,135.28,130.41Zm4.65.28c.12-.2.24-.33.25-.46s-.14-.43-.4-.33c-.1,0-.17.27-.16.41S139.78,130.53,139.92,130.69Zm-12.79-.09c0,.09-.1.21-.07.27s.16.09.25.14.1-.19.07-.24S127.22,130.66,127.13,130.61Z"/><path class="cls-3" d="M118.92,148.23a3.36,3.36,0,0,1-2.18-.35c-.06-.81-.66-.82-1.12-.55a30.64,30.64,0,0,0-2.54,1.84l1.59.13.34.65,0,1.1a47.92,47.92,0,0,1-8.41.19c.19-1.16-1.12-.64-1.4-1.26a1.48,1.48,0,0,0-2.12-.75l1.09.84a16.06,16.06,0,0,1-7-.06c-.71-1.54-2.45-.06-3.47-1.69L94,150H91.59c0-1.48-1-1-1.8-1,.31.73,1.12.47,1.44,1-1.49.54-3,.27-4.54.26-2.17,0-4.3-.49-6.46-.48-2.42,0-4.83.48-7.25.19.37-.48.5-.94-.19-1.23-.17-.07-.56,0-.61.1-.24.55.37.75.54,1.14-1.8-.1-3.63.13-5.37-.6a1.56,1.56,0,0,0-1.31,0c-1.89.82-3.88-.41-5.81.12-.11,0-.28-.25-.43-.26-2.19-.13-4.32-1.06-6.55-.6-1.35.28-2.69.66-4,1-.89.24.18.52,0,.79a12.52,12.52,0,0,1-3.84-.16c0-.75,1.18-.54,1.1-1.36,1.4.3,2.13-.74,2.94-1.54.15-.15-.34-.88.4-.8s.11.69.32,1l.36.55c.59-.13.46-1,1.16-.93a3.5,3.5,0,0,1,.52,0c.52.11.93,1,1.59.14s.31-1.37-.19-2-.81-1.11-1.21-1.66V143l.08-.14-.08.15c-1.6-1.19-3.44-1.16-5.3-1-.77-1.08-1.93-.56-2.89-.59A2.34,2.34,0,0,1,41.79,140a3.44,3.44,0,0,1,2.69-.87c1.68-.06,3.36,0,5,0,.74,0,1.49.2,2-.54s.71.38,1.13.17c1.7.26,2.18-1.32,3.2-2.09l1.13,0c1.14-.23,2.28.65,3.43,0h.39c.69.91,1.37-.81,2.07,0,0,.47-1.16.86-.21,1.33.45.22,1.29.38,1.56-.49a3.18,3.18,0,0,0,0-.85h.66c1.11.35,2.25,1,3.18-.32h.73c.92,1.36,2.06.72,3.17.34l.72-.3a.92.92,0,0,0,.65,1c0,.79.53,1.06,1.25,1.05s1.18-.33,1.19-1.11a1.25,1.25,0,0,1,0-.28l.74-.35.66.67c.07.92.68,1.07,1.46,1.08s1-.35,1-1.06v-.7l.74,0c.76,1.45,2.08.3,3.07.67h.76c1.05-.08,2.14.21,3.14-.35l.73-.33c.89,1.64,2,1.15,3.13.31a.71.71,0,0,1,.74-.3c.69,1.3,1.91,1.3,3.07,0l.73.32.35.7c.07.93.69,1.11,1.46,1s1-.62,1-1.34l.38-.4.75.34a13.57,13.57,0,0,1,2,.17c.78.18,1-.16,1.09-.83l.7.3.37.69c.2,2.3-2,1.06-2.73,2,.6.55,1.52.06,2.28.38-.33.85-1.26.2-1.62.79-1.29.69-.79,2.17-1.4,3.16-.34.73-.11,1.1.7,1,.36,0,.73-.44,1,.08-.13.88-.82.61-1.36.67-.72.09-1.52-.28-2.15.36-.41.07-1-.14-1.15.7h2.92c1.1-1.29,2.56-.47,3.85-.67.85.88,1.43.93,2.55.21-.66-.75-1.52.4-2.21-.23-.46-.86-1.88.24-2.12-1a38.42,38.42,0,0,1,7.38,0v1c-.75.11-1.56-.18-2.23.4,1.11.1,2.3,1,3.26-.37l.33-1.06c0-.05.07-.1.08-.15s0-.13-.07-.14c-2.33-.6-4.72-.36-7.09-.44-.9,0-1.86.34-2.69-.31.32-.38.11-1.44,1.22-.82.36.2.58-.43.2-.64-1.1-.6,0-1.15,0-1.71.76.22,2.07-.68,2.11,1-.13.09-.57.13-.27.29A1,1,0,0,0,106,142l.25,0c.37-.1.43-.4.45-.72,1-.06,1.65-1,2.61-1.18,0-.79-1-.41-1-1.08.53-.55,1.69-.17,1.86-1.27.42,0,.65-.19.63-.63.36-.1.7-.59,1.1-.07a1.66,1.66,0,0,0,2.81,0,2.36,2.36,0,0,1,1,1c.22.92.21,2.11,1.74,1.47.11.41-.51.81.08,1.32.37-.5.41-.91-.06-1.34v-.35l1.26-.37c-.25,1.84.93,1.91,2.24,1.81a.59.59,0,0,0,.74.24.94.94,0,0,1,1.42.41c.45,1-.75.49-1,.92a4.86,4.86,0,0,0-.17.47,12.58,12.58,0,0,1-1.72.06c-1.24-.12-1.87.1-1.77,1.64m-6-2.38H107.4a.58.58,0,0,0,.5.34,9.15,9.15,0,0,1,4.75,1.59c.39.23.84.3.69-.43-.1-.51.1-.78.62-.8.86.53-.32,1.3.28,1.94,1-1.21.68-2.39,0-3.5-.58-.91-1.6-1.06-3.29-.65.56.1,1.13.17,1.67.32.32.09.79.22.75.59S112.86,141.76,112.59,142Zm-30.44-2.1c-.84.25-1.24-.7-2-.72-3.55-.05-7.1-.19-10.66-.3h-6.5a4.79,4.79,0,0,0-1.88.13,4.42,4.42,0,0,1,.81,6c-.22.27-.89.29-.45.84s1,.34,1.47.31.6-.39.45-.86c-.46-1.42.65-2.81.05-4.28-.21-.52.42-.76.91-.77q6.6-.06,13.19-.09c3.4,0,6.81.37,10.2-.2,1.42-.25,2.95.27,4.31-.57-1.91.16-3.83-.54-5.65-.07C85,139.66,83.45,139,82.15,139.85Zm18.48.67c-2-2-4.52-1.21-6.87-1.34-.41,0-1.06-.14-1,.58.05.55.6.43,1,.44C96,140.25,98.33,139.89,100.62,140.52ZM111.84,149c-.82,0-1.59,0-1.75.71a.87.87,0,0,0,1,.9c.62-.15,1.47-.35,1.64-1S112.15,149,111.84,149ZM95.2,146.69c-1.12-1-2.33-.09-3.17-.8-.46-.39-.66-.31-.83.24s0,.75.57.72Zm-27.9-.54a4,4,0,0,0,3,.16A3,3,0,0,0,67.3,146.14Zm9,.23c-2.5-.39-2.5-.39-2.95,0Zm-11-1.15a1,1,0,0,0-.89.7c-.19.52.24.55.58.56s.87.05.9-.53A.68.68,0,0,0,65.36,145.22Zm34.41-1.78c-.12-.23-.28-.53-.6-.5s-.23.33-.21.55.12.47.41.45A.44.44,0,0,0,99.77,143.44Zm-28.52,5.34c0-.26-.16-.45-.43-.39a.55.55,0,0,0-.36.32c-.07.26.12.44.35.48S71.22,149,71.25,148.78Zm40.91-3-.29.2a2.66,2.66,0,0,0,.56.33c.08,0,.32-.16.31-.23C112.7,145.84,112.44,145.85,112.16,145.83Zm-10.87,2.93c0,.1-.14.21-.11.28a.2.2,0,0,0,.38-.15C101.54,148.82,101.39,148.8,101.29,148.76Z"/><path class="cls-3" d="M39,110.12c-2.06,1.16-4.19.89-6.31.27-1.15-.34-2-1.37-3.23-1.46,0-.66,1.24-.65.61-1.45-.14-.18-.23-.45-.51-.37-.6.16-.73.72-.87,1.2-.46,1.63-.11,3.29-.09,4.94l-.08.16.09-.15a1.06,1.06,0,0,1,.19,1.43c-.33.53-.93.33-1.43.2-2.29-.6-4.62-1-6.95-1.41-1.34-.24-.84.82-1.09,1.28-.35.66.09.89.73,1a65.18,65.18,0,0,1,7.68,1.74c.4.1.92.08.74.67s-.65.29-1,.17c-1.54-.52-3-.84-4.09.89-1,.29-1.89-.67-3-.24a8.38,8.38,0,0,0,6.51,2,3,3,0,0,0,.66.51c1,.37,1.65.68.13,1.33-.65.28-.58,1-.7,1.64-.13.11-.27.32-.4.32-2.81-.1-5.63-.18-8.44-.41-.26,0-2.2-.28-.58-1.61.51-.42-.61-1.57.19-2.31a16.07,16.07,0,0,0-2.56-.94,15.76,15.76,0,0,0-2.79,0c1.51-1.9-.7-1.94-1.12-2.78.21-.82,1.61-.25,1.43-1.13a1.94,1.94,0,0,0-2-1.34,12,12,0,0,1-2.22-.45c-.54-.14-1.43,0-1.07-1.08.23-.69.16-1.45,1.35-1.3a1.6,1.6,0,0,0,2-1.76c0-.32.12-1,.39-.86,1.42.56,2.28-.79,3.48-.9l6.8,1.51c.36,0,.74,0,.81-.44.16-1,.28-2,.42-3s.47-2,.68-3c.12-.61.39-1.24-.08-1.83.53.27.22-1.25,1.05-.48.47.44,1.38.51,1.11,1.5-.18.64-.54,1.27.1,2.1A3.83,3.83,0,0,0,26,103c.06-1.36.8-1.59,1.94-1.31.39.1.79.16,1.18.24L42,104.57c-3,.12-2.8,2.3-2.85,4.34C39.09,109.31,39,109.71,39,110.12Zm-22.09,5.22c.43-.11.69-.26.87-.2,1.18.43,1-.55,1.16-1.13.24-1.08-.65-.65-1.11-.75-1.71-.37-3.29-1.25-5.09-1.31-.41,0-.92-.68-1.18,0a1.3,1.3,0,0,0,.5,1.81C13.61,114.59,15.53,114.36,16.87,115.33Zm6.55,2.49c-.05-.13-.1-.31-.13-.3a.8.8,0,0,0-.46.14A.21.21,0,0,0,23,118C23.13,118,23.28,117.89,23.42,117.82Z"/><path class="cls-2" d="M180.79,150.73a138.23,138.23,0,0,1-17.46.05c-.81-1.55-2.15-.49-3.24-.66l-2,.19c0-.77,0-1.52-1.14-1.32l-4.49-.37c.55-2.08.55-2.08-1.74-2.12-1.1-.3-2-.87-3.38-.34a3.48,3.48,0,0,1-3.67-1.05c-1.08-1.24.92-1.16.77-2,1.2,1.34,2.08-.21,3.12-.35-.16,1.23.25,1.9,1.6,2.11a45.49,45.49,0,0,1,4.51,1.13c.67.17,1.4.2,1.5-.64.07-.63,0-1.55-.88-1.64-2.11-.24-4.09-1.22-6.27-1.09-.07-1.27.94-.93,1.62-1.08.48.56,1.08.34,1.66.27,2.12.58,2.47.4,2.42-1.26.93-.15.83-1.67,1.62-1.56,1.07.16,0,1.5.69,2,.09.07.2.12.3.18h0l.36.35a1.54,1.54,0,0,1,1.48.66c-.2.11-.38.24-.26.49,0,.06.26.1.27.08a6,6,0,0,0,.22-.57.8.8,0,0,0,.72-.34l1.78,0c.26.36.58.27.91.12a.23.23,0,0,1,.22.12l-.06.44c-.9,1.24-.49,2.79-1,4.14-.12.34.18.54.47.59s.57,0,.62-.08c.62-1.48,2.08-2.68,2-4.36-.21-3.54,1.29-6,4.54-6.84.41-.11.78-.23,1.07.2l.36.8c.12.59-.8.62-.67,1.23,1,.5,1.16-.53,1.68-.9l.27.67c0,.53,0,1.08.72,1.2l-.29.57q0,.16,0,.32c-1.74-1.62-1.22.56-1.72,1-1,1-1,1.32-.09,1.72.37.15.4.51.52.82,0,.52.14.77.66.32s.33-1.2,1-1.48c.38.17.71,1.12,1.14,0,.34-.92.55-.26.71.17v0c-.52.27-.39.7-.28,1.12a2.14,2.14,0,0,0,2.65,1.8c1.08-.33,3.47.53,3.53,1.54C179.85,148.47,180.72,149.47,180.79,150.73Zm-20.93-7.33.13-.18-.18.12-.13.18Zm-3.37,4.7c2.31.53,2.54-.09,1.87-4.26C157.2,145,159.12,147.4,156.49,148.09Zm10.89.76c1.2.22,2.27.77,3.43.27a.51.51,0,0,0,0-.43,3.67,3.67,0,0,0-3.29-.18S167.49,148.61,167.38,148.85Zm.77-1.64c.67.08.8-.34.72-.86s-.17-1.23-.78-1.12-.76.86-.82,1.41S167.77,147.14,168.15,147.21Zm-11.65-3.9c-.79-1.76-.79-1.76-2.59-.49ZM175.67,148c-1.63-1-2.46-1-3.48-.2a5,5,0,0,0,.88.19C173.94,148,174.81,148,175.67,148Zm-16.33-.52a1.12,1.12,0,0,0,.19-1.62A1.32,1.32,0,0,0,159.34,147.44Z"/><path class="cls-4" d="M138.81,113.32a.71.71,0,0,1,0-1.2l.37.09a5.41,5.41,0,0,1,.61.58c.22.28-.17.93.49.92s.51-.54.59-.92c.18-.79,1-1.12,1.39-1.77-.55-.53-1.21.11-2.09-.37,1.23-.85,2.44-.4,3.52-.56.33-.21,1.27,1,1.06-.46a73.68,73.68,0,0,1,8-.17c1,0,1.62.65,1.85,1.73a15.69,15.69,0,0,1-.09,8.57,2.67,2.67,0,0,0-.28,1.88c-1.23,1-2.2,2.65-1.56,3.74s.4,1.95.51,2.92c.52.56.62.09.76-.3l.65-.07v.37a1.13,1.13,0,0,1-1,.71l-.42,0a.9.9,0,0,1-.28,0c-.95-.24-.85-1.5-1.75-1.79-.22-.23-.38-.92-.71-.08l-.69,0a4.85,4.85,0,0,0-4,.15c-1.09.58-2.08.51-2.67-.78,0-1.11,0-2.21,0-3.32a6.72,6.72,0,0,1,.55-3.51c.78-1.4-.27-2.44-1.32-3.31.25-.5.14-.73-.47-.71-1,0-2,0-3,0l-.05-2.12.15-.06Zm7.13-2.75c-.46.81-1.73.63-1.75.85-.1,1.12.28,2.31,1.74,1.67C147.21,112.52,145.88,111.49,145.94,110.57Zm4.75,6.91c-.8-.91-1.31-.66-1.79.31C149.5,117.7,150,117.94,150.69,117.48Zm-7.45-4c-.1.09-.33.26-.32.3a1.9,1.9,0,0,0,.47.65c.18.14.3-.06.31-.24A.7.7,0,0,0,143.24,113.43Zm1.35,1.31.27.12c0-.09.13-.2.1-.27s-.17-.09-.26-.13Z"/><path class="cls-1" d="M162,142.21a.23.23,0,0,0-.22-.12c.19-.86,1.81-1,1.2-2.22-.87.51-2.48.33-2.11,2.09l-1.78,0c-.06-.67-.43-1.65-.13-1.95,1.07-1,.93-2.35,1.16-3.59l0-2.43c1-.33,1.88.39,2.85.31l.52,0,.67.31a.51.51,0,0,1,.68,0,4.54,4.54,0,0,0,3.34.34c1,0,2,0,3,0,.32,0,.89.22.86-.42,0-.12-.58-.21-.89-.32.08-1.62-.34-3.31.23-4.86a59,59,0,0,0,2.64-8.44,2.33,2.33,0,0,1,.72,1.48c.08,1,.51.82,1.09.44.76.74.83.73,1.6-.15a.61.61,0,0,1,.12-.3c1.34-.25,2,.18,2.09,1.66.1,1.31-.3,2.53-.3,3.8,0,5.42,0,10.84,0,16.26,0,.58-.08,1.19.61,1.49,1.6.69,3,1.82,4.78,2.06.35.83-1.63,1.42-.25,2.36a2.46,2.46,0,0,1-.58.33,6.35,6.35,0,0,1-3.22.41c-.06-1.26-.94-2.26-1-3.59-.05-1-2.44-1.87-3.53-1.54a2.14,2.14,0,0,1-2.65-1.8l.28-1.12v0l1-1.53a1.44,1.44,0,0,0,1.32-1.86,24.79,24.79,0,0,1,0-3.07c-.38-.48-1-.68-1.36-1.22a1.21,1.21,0,0,0-2.17.28,2.2,2.2,0,0,1-1.59,1.37c-.29-.86-.86-.63-1.44-.37-.29-.43-.66-.31-1.07-.2-3.24.88-4.75,3.31-4.54,6.84.1,1.68-1.36,2.88-2,4.36,0,.1-.41.12-.62.08s-.59-.25-.47-.59c.48-1.35.08-2.9,1-4.14C162.32,142.55,162.33,142.41,162,142.21ZM174.3,134c0-.11-.08.25.42.37s.84,0,.89-.54c.22-2.27,1.11-4.38,1.6-6.58.06-.26.25-.77-.24-.82-.34,0-1-.08-1,.44C175.94,129.17,174.86,131.26,174.3,134Z"/><path class="cls-3" d="M136.71,108.79c-.18,1.26,1.06,2.13.92,3.42s.34,2.73-1,3.7c-.39.27-.73.89-.5,1.21.84,1.2-.16,2.8,1,3.93.53.51-.46,1.81-1.32,1.58a4.25,4.25,0,0,0-3.08.66c-.15.07-.26.28-.41.3a.87.87,0,0,1-.63-.12c-1.44-1.38-4.12-.09-5.12-2.39-.09-.21-.3-.57-.09-.59,1.49-.17.3-1.12.52-1.63.33-.75.57-1.21-.48-1.77-1.22-.65-.88.81-1.52.84-.19,0-.38.24-.86.56.52-1.22-.28-1.72-.71-2.39.74,0,.64-.78,1-1.08.93.1.77-.74.94-1.2a18.28,18.28,0,0,1,1.9-4.1c.49-.73,1-1.48,2.07-1.3-.15,1.43.3,2.06,1.8,1.4a2.13,2.13,0,0,1,.67-.06.47.47,0,0,0,.06.12s.06,0,.09,0l-.15-.14c-.27-.31-1.27-.69.1-.83.1,0,.17-.38.25-.58A8,8,0,0,1,136.71,108.79Z"/><path class="cls-1" d="M187.42,121.66l-.61,24.14c-1.19.29-2.1-.49-3.11-.85-2.17-.75-2.78-1.66-2.87-4-.24-5.86.52-11.7.37-17.56,0-1,1-2.08-.6-2.73-.17-.07-.08-.76-.12-1.16.83,0,1.6.57,2.47.26a.19.19,0,0,1,.06.23c-.35,1.17-.18,1.84,1.3,1.65A24.23,24.23,0,0,1,187.42,121.66Z"/><path class="cls-2" d="M153.54,129a1.13,1.13,0,0,0,1-.71c.2-.09.35-.21.24-.46l-.24.09-.65.07-.76.3c-.12-1,.12-1.83-.51-2.92s.33-2.76,1.56-3.74c.31,1.38,1.16.24,1.73.37a9.93,9.93,0,0,1,2.89.62l.3.06,1,.21.69.26.38.22,1.38.07a.72.72,0,0,0,.72.28l1,0h0a.61.61,0,0,0,.89.16c.44,1.42-.23,2.71-.48,4a.36.36,0,0,0-.2.55,13.73,13.73,0,0,1-.59,4c-.42-.18,0-1.29-.91-.87s0,1-.12,1.52l-.05,0c-.88-.21-2,0-2.39-1.14-2.45.59-4.66-.66-7-.91v-1.74ZM154.6,124l-.08.54c2.37.43,4.65,1.3,7.06,1.47l.11-.54Zm.77,2.19a14.48,14.48,0,0,0,5.84,1.82l.11-.52Z"/><path class="cls-2" d="M49.23,150.46c.18-.27-.89-.55,0-.79,1.33-.36,2.67-.74,4-1,2.23-.46,4.36.48,6.55.6.15,0,.32.29.43.26,1.94-.53,3.92.7,5.81-.12a1.56,1.56,0,0,1,1.31,0c1.74.73,3.57.5,5.37.6H73c2.43.28,4.83-.19,7.25-.19,2.16,0,4.29.47,6.46.48,1.53,0,3,.27,4.54-.26l.36,0H94c1.06.77,2.11-.06,3.17,0a16,16,0,0,0,7,.06l1-.09c.29.62,1.6.1,1.4,1.26-4,0-7.93.1-11.89.1q-14.44,0-28.88,0c-.87,0-1.74-.09-2.61-.14-.75-1.08-3.43-1.19-4.57-.18l-4.52-.13c-1.09-.9-2.27-.55-3.44-.26Z"/><path class="cls-3" d="M52.31,104.81l-.56-.07a43.44,43.44,0,0,1,1.1-5.65c.3-.92,4.11-1.19,5-.36,2.08,2,4.77,2.35,7.37,3,3.29.8,6.61,1.5,9.9,2.28.35.08.85,0,1,.47-1.84,0-3.65.63-5.51.34-1.7-.67-3.48-.13-5.21-.35,0-.11-.08-.29-.15-.31q-3.76-1-7.54-2c-.38-.1-.87-.24-1.06.26s.34.85.76.92a3.77,3.77,0,0,1,2.6,1.17C57.45,104.55,54.86,104.11,52.31,104.81Z"/><path class="cls-4" d="M124.46,115c-.41.3-.3,1.1-1,1.08s-.91.15-1.12.77-.08,1.56-1.06,1.8c-.24.06-.24.5-.09.6,1.65,1.14.46,2.48.29,3.74s.05,2.67-.42,3.95c-1.42.17-1.89-.43-1.82-1.87.12-2.33.36-4.79-2.23-6.2a1,1,0,0,1-.45-1.2c1-.07,2,.31,3.08-.24-1.12-.39-2.35-1-2.17-1.92.31-1.59-.74-1.45-1.5-1.53-1.12-.12-2.2-.69-3.37-.33a1,1,0,0,0-.26-.05c-.17-.36-.92-.47-.5-1.1s.72-.18,1.09-.1c2.47.55,4.94,1.16,7.43,1.63,1.43.27,2.58,0,2.17-1.95a1,1,0,0,1,.86-1.28c.46-.05,1,0,1.19.52s0,.91-.59,1.23-1,1,0,1.58C124.19,114.29,124.29,114.72,124.46,115Z"/><path class="cls-1" d="M180.49,119.55c0,.4-.05,1.09.12,1.16,1.57.66.58,1.77.6,2.73.14,5.86-.61,11.7-.37,17.56.09,2.29.7,3.2,2.87,4,1,.35,1.92,1.14,3.11.85.3,1.91.3,1.91-2,1.84-1.79-.24-3.19-1.38-4.78-2.06-.69-.3-.61-.91-.61-1.49,0-5.42,0-10.84,0-16.26,0-1.27.41-2.49.3-3.8-.12-1.48-.75-1.91-2.09-1.66a7.07,7.07,0,0,1,.12-2.42l1.12-.73,1,.06Zm-1.18,1.65s-.1,0-.12,0a.36.36,0,0,0,0,.14l.2,0Z"/><path class="cls-2" d="M51.68,147.21c-.7-.12-.57.8-1.16.93l-.36-.55c-.21-.31.35-.93-.32-1s-.25.65-.4.8c-.81.8-1.55,1.83-2.94,1.54a5.16,5.16,0,0,0-3-.28l-.71-.15c.61-1,.16-2.1.45-3.12a1,1,0,0,1,1.4-.5q0,.62,0,1.24c-.24.14-.25.27,0,.39,0,.35-.83.36-.4.89a.47.47,0,0,0,.45,0c.44-.31.31-.64,0-1q0-.15,0-.3a2.22,2.22,0,0,0,.67-1.36c1.17-.6,2-1.42,1.69-2.87,1.86-.11,3.7-.14,5.3,1h0v.71a1.62,1.62,0,0,0-.31,1.76A1.8,1.8,0,0,1,51.68,147.21Zm-1.23-3.54c-1-.28-1.92-1.12-2.75-.11-.35.42.28.58.53.86C49.56,145.86,49.68,143.81,50.45,143.66Z"/><path class="cls-3" d="M174.15,120.89a59,59,0,0,1-2.64,8.44c-.58,1.54-.16,3.23-.23,4.86-1.05.32-2-.34-3-.39.41-.94-1-1.09-.84-1.9-.19-.88.72-.7,1.06-1.07s1.15-.29,1.08-1.09A2.46,2.46,0,0,0,171,127a15.33,15.33,0,0,0,1.71-6.33c.12-.8.22-1.6.38-2.4.08-.42.36-.56.75-.26-.31.92-1,1.89.31,2.62h0A.49.49,0,0,0,174.15,120.89Z"/><path class="cls-1" d="M21.38,109.35l-6.8-1.51c0-1.8.49-2.38,2.13-2.22s3.42.48,5.12.73Z"/><path class="cls-4" d="M42,104.57l-12.87-2.62c-.39-.08-.79-.15-1.18-.24-1.14-.28-1.88-.05-1.94,1.31a3.83,3.83,0,0,1-.51,1.14c-.63-.83-.28-1.46-.1-2.1.27-1-.63-1.05-1.11-1.5-.83-.78-.52.74-1.05.48-.23-1.36.39-2,1.43-1.33a12.51,12.51,0,0,0,6.93,1.77c3.41,0,6.19,1.92,9.42,2.26.83.09,1.92-.39,2.45.75Z"/><path class="cls-1" d="M172.75,120.63A15.33,15.33,0,0,1,171,127c-.43-.29-1-1.21-1,.23,0,.58.23,1.33-.68,1.55.07-2,.15-3.92.2-5.88C169.58,120.28,170.19,119.85,172.75,120.63Z"/><path class="cls-4" d="M115,151l0-1.1"/><path class="cls-4" d="M153.52,131.13c2.34.25,4.55,1.5,7,.91.41,1.18,1.51.93,2.39,1.14l.13,1.08c-1,.08-1.85-.64-2.85-.31l-.16-.07c.08-.32,0-.6-.35-.65-2.18-.3-4.26-1.14-6.49-1.11Z"/><path class="cls-4" d="M64.4,100.39c0-1.62.62-2.8,2.07-2.81a10.78,10.78,0,0,1,5.86,1.64c-1.1-.27-2.19-.54-3.29-.8C65.93,97.71,65.93,97.72,64.4,100.39Z"/><path class="cls-4" d="M18.83,103.26l.39.07c.94.26,2.61.11,2.36,1.36s-1.52-.06-2.34,0a1,1,0,0,1-.5-.11c-.41-.18-1.22.17-1.1-.71C17.73,103.21,18.37,103.32,18.83,103.26Z"/><path class="cls-1" d="M187.42,121.66a24.23,24.23,0,0,0-3.1,0c-1.48.19-1.65-.48-1.3-1.65l4.47.13Z"/><path class="cls-3" d="M163.37,123.74a.72.72,0,0,1-.72-.28.81.81,0,0,0-1.38-.07l-.38-.22.35-1.15c3.13-.57,3.61-.34,4,1.89l-.89-.15h0C164.06,123.36,163.72,123.3,163.37,123.74Z"/><path class="cls-4" d="M167.46,131.9c-.12.81,1.25,1,.83,1.9l-.12.81c-.16-.75-1.46,0-1.39-1.08l.4-.15-1-.1c-.5.18-.34,1.13-1.13,1-.12-.43-1.12-1-.52-1.11s.11-1.72,1.32-.94A1.51,1.51,0,0,0,167.46,131.9Z"/><path class="cls-4" d="M174.15,120.89a.49.49,0,0,1,0-.27l1.13,0a2.24,2.24,0,0,1,2.47-.65,7.08,7.08,0,0,0-.12,2.42.61.61,0,0,0-.11.3c-.49-.51,0-1.26-.47-1.86a2.3,2.3,0,0,0-1.13,2c-.57.38-1,.55-1.09-.44A2.33,2.33,0,0,0,174.15,120.89Z"/><path class="cls-4" d="M179.9,119.27l-1-.06c1.37-2.53,3.87-3,5.5-1.09l0,0C182.67,117.64,180.92,117.08,179.9,119.27Z"/><path class="cls-3" d="M43.27,145.39c-.29,1,.16,2.15-.45,3.12a1,1,0,0,1-.94-.19c-.17-.64-.4-1.06-1-.29C40.55,146.13,42.17,146,43.27,145.39Z"/><path class="cls-3" d="M156,122c-.57-.13-1.42,1-1.73-.37a2.67,2.67,0,0,1,.28-1.88l.76-.16c.08.56.47.67.95.67C156.29,120.88,155.56,121.36,156,122Z"/><path class="cls-4" d="M38.1,136.72c.63.14,1.22.34,1.38,1.09-2.12-.11-3.21-.78-3.72-2.31C36.58,135.88,37,137,38.1,136.72Z"/><path class="cls-3" d="M58.67,151c1.15-1,3.83-.89,4.57.18A15.43,15.43,0,0,1,58.67,151Z"/><path class="cls-4" d="M131.84,109.76a2.13,2.13,0,0,0-.67.06c-1.49.66-2,0-1.8-1.4a5.15,5.15,0,0,1,2.81-.07c-.08.2-.15.57-.25.58-1.37.13-.37.52-.1.83Z"/><path class="cls-3" d="M155.66,150.52c-.1-.62-.78-.34-1.11-.71.76-.48,1.92.3,2.42-.81,1.13-.21,1.14.54,1.14,1.32l-.7.3Z"/><path class="cls-4" d="M169.31,128.75c.9-.22.65-1,.68-1.55.07-1.44.62-.52,1-.23a2.46,2.46,0,0,1-1.44,2.78C169.13,129.52,169.32,129.11,169.31,128.75Z"/><path class="cls-4" d="M165.38,128.35l.85-4.54C166.81,124.79,166.61,126,165.38,128.35Z"/><path class="cls-3" d="M165.07,134.25c.79.16.63-.79,1.13-1,.13.25.35.26.59.25-.07,1,1.23.33,1.39,1.08l.08.35a4.54,4.54,0,0,1-3.34-.34Z"/><path class="cls-4" d="M187.49,120.16,183,120a.19.19,0,0,0-.06-.23C184.49,119.62,186,119.25,187.49,120.16Z"/><path class="cls-3" d="M175.32,120.58l-1.13,0h0c-.57-.84.29-1.83-.3-2.66.79-.6,1,0,1.12.59S175.22,119.9,175.32,120.58Z"/><path class="cls-4" d="M21.38,109.35l.46-3,.77-.49c-.14,1-.25,2-.42,3C22.12,109.34,21.73,109.36,21.38,109.35Z"/><path class="cls-4" d="M50.71,150.6c1.18-.29,2.36-.64,3.44.26C53,151,51.81,151.35,50.71,150.6Z"/><path class="cls-3" d="M160.09,150.13c1.09.17,2.43-.9,3.24.66a11,11,0,0,1-3.14,0Z"/><path class="cls-4" d="M160.09,150.13l.1.61a7.22,7.22,0,0,1-2.79-.12l.7-.3Z"/><path class="cls-4" d="M161.24,122l-.35,1.15-.69-.26c.16-.34,0-.53-.31-.57s-.69-.18-.72.36l-.3-.06c.36-.07-.54-1,.53-.69A6.81,6.81,0,0,0,161.24,122Z"/><path class="cls-4" d="M173.89,117.94c.59.83-.27,1.83.3,2.66-1.32-.73-.62-1.7-.31-2.62Z"/><path class="cls-4" d="M163,133.13c.11-.51-.63-1.16.12-1.52s.5.69.91.87C164.05,133.33,163.59,133.37,163,133.13Z"/><path class="cls-4" d="M35.22,133.22c1-.31,1.28-.11,1.36,1.12C35.94,134.2,35.3,134.05,35.22,133.22Z"/><path class="cls-3" d="M44.64,146.13l0-1.24.72-.06a2.21,2.21,0,0,1-.67,1.36Z"/><path class="cls-4" d="M156.22,120.28c-.48,0-.87-.11-.95-.67C155.81,119.53,156.38,119.39,156.22,120.28Z"/><path class="cls-3" d="M144.76,109.64c.21,1.46-.73.25-1.06.46A1.1,1.1,0,0,1,144.76,109.64Z"/><path class="cls-2" d="M40.9,148c.58-.78.82-.35,1,.29C41.53,148.3,41.11,148.51,40.9,148Z"/><path class="cls-4" d="M164.37,123.76l.89.15h0A.61.61,0,0,1,164.37,123.76Z"/><path class="cls-2" d="M40,147.91a1,1,0,0,1,.11.24s-.07.08-.11.12a1.09,1.09,0,0,1-.11-.23S39.91,147.95,40,147.91Z"/><polygon class="cls-4" points="184.42 118.13 184.39 118.18 184.39 118.08 184.42 118.13"/><path class="cls-4" d="M164.58,128.52a.36.36,0,0,1,.2-.55C164.94,128.23,164.82,128.4,164.58,128.52Z"/><path class="cls-3" d="M139.18,112.21l-.37-.09c0-.08,0-.17,0-.25A.3.3,0,0,1,139.18,112.21Z"/><path class="cls-4" d="M37,135l.29.42C37,135.35,36.88,135.24,37,135Z"/><path class="cls-4" d="M164.24,134.61l-.67-.31Z"/><path class="cls-4" d="M39.23,122.27c.16-4.06.17-4.09,4.56-3.73a262.18,262.18,0,0,1,42.5,7.11c4.12,1,8.22,2.18,12.26,3.51a4.1,4.1,0,0,1,2.39,1.52c-1.57.31-3-.5-4.49-.61a4.44,4.44,0,0,0-.58-.33c-3.19-1.26-6.57-1.58-9.92-2-2-.27-3.95-1.16-6-1.21a21.39,21.39,0,0,0-7.9-1.28l-9.8-1.33a2.51,2.51,0,0,0-.8-.31c-4-.05-8-1-12.08-.92-.32,0-.73-.13-.8.4a5.66,5.66,0,0,1-2.74-.17l.74-.23v-.37Z"/><path class="cls-1" d="M96.45,130.08c1.51.11,2.92.92,4.49.61,1.88-.58,3.41.47,5,1.13-1.39,0-2.76.43-4.16,0a2.21,2.21,0,0,0-1.83.33l-.84-.24c.09-.16,1-.11.18-.48-1.39-.65-3-.41-4.44-.63q-9.23-1.38-18.52-2.43c-2.69-.3-5.49-1.29-8.08-.64-3.19.8-6.32.36-9.47.56a3.83,3.83,0,0,1-2.55-.32c0-1.16-.88-.84-1.53-1.06-.86-.29-2.35.49-2.44-1.27v0a5.39,5.39,0,0,1,.86-.06c6.23.51,12.47,1,18.7,1.58,6.73.64,13.42,1.53,20.11,2.39C93.46,129.78,94.91,130.45,96.45,130.08Z"/><path class="cls-3" d="M116.5,117.69a1,1,0,0,0,.45,1.2c2.59,1.42,2.34,3.87,2.23,6.2-.07,1.44.4,2,1.82,1.87,0,.2,0,.39,0,.59-.69.77-.22,1.71-.36,2.55-.89-.28-1.55-.18-1.55,1.18-.37-2.35-2.28-1.76-3.55-2.26-.07-2.07-.1-4.13-.25-6.19,0-.57.4-1.64-.91-1.54l0-.64c.36-.11.39-.32.19-.6-.05-1.22-.68-2.4-.28-3.66C115,116.79,116.67,115.68,116.5,117.69Z"/><path class="cls-4" d="M104.51,120.37a103.77,103.77,0,0,1-10.62-.62c-.38,0-.93.2-.69-.51.12-.36-.14-1.21.56-1,1.57.48,3.07-.34,4.61-.06.22,0,.18.06.71.6.31.31.66.12,1-.13C102.11,117.34,104,118.07,104.51,120.37Z"/><path class="cls-4" d="M52.31,125.65c.1,1.76,1.58,1,2.44,1.27.65.22,1.56-.1,1.53,1.06l-6.81.08-1,0H42.2c-.64,0-1.28,0-1.91,0s-1.22.27-1.28-.7.55-1,1.23-1a4.16,4.16,0,0,0,.84-.19,1.67,1.67,0,0,1,2,.68c.19.33.62.59.85.34.79-.86,2.3.79,2.8-.84.24.12.55.19.71.38.32.39.52.35.74-.06l.14.08.15,0C49.8,126.63,51.52,127.94,52.31,125.65Z"/><path class="cls-3" d="M51.25,111.8a2.64,2.64,0,0,0-.38.23c-.39.46.29,1.59-.61,1.52s-.31-1.06-.41-1.63c-.17-1,.37-1.23,1.21-1.08,1,.19,2.14-.44,3.1.55.26.27.84-.77,1.59-.61.51.11,1.11,0,1.34.56s-.38.62-.62.91-.81.29-.16.63c.25.13,1-.43.72.4a.89.89,0,0,1-1.19.44,3.08,3.08,0,0,0-2.9-.12C51.39,114.17,51.39,112.88,51.25,111.8Z"/><path class="cls-5" d="M48.12,126.61c-.21.41-.42.45-.74.06-.16-.19-.47-.26-.71-.38-.51,1.64-2,0-2.8.84-.23.25-.66,0-.85-.34a1.67,1.67,0,0,0-2-.68l-.16-.78a3.23,3.23,0,0,0,.24-.44c.18-.51.16-1.12,1-1.17s.72.49.87,1c.08.23.22.53.58.51.66,0,.45-.7.74-1,.38.2.54,1.07,1.23.34.28-.29.87-.42,1.07,0,.42.86,1.13.5,1.74.6C48.26,125.6,47.53,126,48.12,126.61Z"/><path class="cls-5" d="M116.5,117.69c.16-2-1.48-.89-2.25-1.31-.24-1.11-.24-2.38-1.71-2.71,1.16-.36,2.25.2,3.37.33.77.08,1.81-.06,1.5,1.53-.18.91,1,1.53,2.17,1.92C118.48,118,117.47,117.62,116.5,117.69Z"/><path class="cls-5" d="M115.54,129c1.28.51,3.18-.08,3.55,2.26,0-1.36.66-1.46,1.55-1.18.45.57-.28,1.12,0,1.69-1.69,1.06-3.27,0-4.9-.23l-.29-.28q0-.6,0-1.2Z"/><path class="cls-1" d="M115.54,129l-.14,1.05c-.49.09-1.07.77-1.18-.47-.24-2.78-.56-5.55.15-8.31,1.31-.1.87,1,.91,1.54C115.44,124.88,115.47,127,115.54,129Z"/><path class="cls-5" d="M42.15,108c-.53-.37-1.71.71-2-.69-.11-.54-.14-1.19.76-1.26.69-.06,1.36-.36,2-.37s1.68-.51,1.75.95c.06,1.26-.48,1.51-1.53,1.38A9.65,9.65,0,0,0,42.15,108Z"/><path class="cls-3" d="M44.35,111.85c-.75.44-.05,2.17-1.55,1.86-1.18-.25-.76-1.53-1.16-2.3a3.19,3.19,0,0,1-.2-.85c-.06-.31-.36-.69.14-.88s.71.19.86.6.09.92.51,1.23c.69-.54.16-1.93,1.26-1.87s-.18,1.14.45,1.53l0,0c-.59,0-.32.46-.38.74Z"/><path class="cls-2" d="M44.33,124.18c-.29.3-.08,1-.74,1-.36,0-.5-.28-.58-.51-.15-.47-.08-1-.87-1s-.81.65-1,1.17a3.23,3.23,0,0,1-.24.44c-2-.07-2-.07-1.67-2.62l4.38.09c.15.17.3.19.46,0l.39.19A1.34,1.34,0,0,0,44.33,124.18Z"/><path class="cls-1" d="M52.31,104.81c2.55-.69,5.14-.25,7.71-.33l5.38,0c1.73.22,3.51-.32,5.21.35Z"/><path class="cls-3" d="M59.73,110.72l.67.45v.68c-.11.32-1.66.31-.21,1,.4.2.09.6-.27.74a1.64,1.64,0,0,1-1.64-.17,1.69,1.69,0,0,1-.58-1.69c.11-1.09,1-.89,1.67-1.09Z"/><path class="cls-3" d="M44.66,111.17a9.51,9.51,0,0,1,1.31-.4c.49-.08,1.23.4,1.13.52-.7.8,0,1.9-.45,2.48s-1.31,0-1.78-.53c-.33-.35-.73-.79-.52-1.39l0,0a.65.65,0,0,0,.38-.74Z"/><path class="cls-3" d="M76.89,134.29c0,.33,0,.83-.35.88a14.41,14.41,0,0,1-4.58,0c-.38-.06-.3-.56-.34-.89A30,30,0,0,1,76.89,134.29Z"/><path class="cls-4" d="M99.15,131.92l.84.24c.11.6,0,1.06-.75,1s-1.77.37-2.46-.27c-.33-.31-.18-.92.48-1S98.52,131.91,99.15,131.92Z"/><path class="cls-1" d="M42.2,128h.41c0,.75.1,1.2,1.09,1a6.86,6.86,0,0,1,2.9.22c-1.69.77-3.52.09-5.32.91C41.45,129.16,42.24,128.79,42.2,128Z"/><path class="cls-5" d="M44.47,123l-.39-.19h-.46l-4.38-.09q0-.22,0-.43h7.31v.37l-.74.23Z"/><path class="cls-3" d="M104.89,134.72c-.93,1.69-2.22,1.54-3.73.63.26-.51,1.15,0,1.27-.7a.11.11,0,0,1,0-.16l.37.07Z"/><path class="cls-3" d="M48.43,110.75c.46.19,1.31.2,1,.52-.78.71-.14,2-1,2.36-.7.29-.56-.56-.52-.93C47.92,112,47.41,111.07,48.43,110.75Z"/><path class="cls-3" d="M61,111.13c.37-.6,1.21-.49,1.33-.21.38.86-.73,1.55-.52,2.49,0,0-.32.23-.4.18-.75-.41-.15-1.17-.42-1.71Z"/><path class="cls-1" d="M98,134.32c-.89,1-1.75.08-2.63,0Z"/><path class="cls-1" d="M115.43,131.27l.29.28c-.22.93.3,1.94-.25,2.84Q115.45,132.83,115.43,131.27Z"/><path class="cls-1" d="M48.5,128l1,0c.05.4.14.87-.46.86S48.56,128.39,48.5,128Z"/><path class="cls-3" d="M111.54,134.66c-.37.71-.82.81-1.36.17Z"/><path class="cls-3" d="M108.77,134.77c0,.3.06.75-.38.75s-.32-.46-.37-.75Z"/><path class="cls-1" d="M114.7,134.53l-.38,0c.06-.38-.09-.81.34-1.22C115.12,133.73,114.66,134.16,114.7,134.53Z"/><path class="cls-1" d="M61,111.13v.74l-.58,0v-.68Z"/><path class="cls-3" d="M106.46,134.93a.75.75,0,0,1-.86-.21A.67.67,0,0,1,106.46,134.93Z"/><path class="cls-1" d="M114.54,120c.2.28.18.5-.19.6Z"/><path class="cls-1" d="M59.73,110.72l-.35-.07C59.53,110.51,59.64,110.56,59.73,110.72Z"/><path class="cls-1" d="M102.78,134.57l-.37-.07C102.57,134.35,102.69,134.38,102.78,134.57Z"/><path class="cls-1" d="M153.52,131.13l-.33,1a1.4,1.4,0,0,1-1.32,1.23c-1.24-.54-2.42.59-3.68.09-.45-.18-1.14-.29-1.22.47s.61.56,1,.7a4.5,4.5,0,0,1,1.53,1.46c.07.21.16.42.24.63.68.72-.74,1.85.48,2.47l-.58,2.41c-.68.14-1.69-.19-1.62,1.08l-.46.13c-1,.13-1.92,1.68-3.12.35-1.56.21-3-.61-4.58-.43-1-.86-2.46-.62-3.6-1.19.05-.57.68-.53.94-.89,1.7-.23,3.06-1.44,4.87-1.61.61-.06,1.35-1.43,2.55-1.33.06,0,.2-.15.19-.17-.94-1.76.76-.86,1.22-1.21a4.54,4.54,0,0,0,.68.14c.49,0,1.43.82,1.26-.37-.1-.71-1.19-.36-1.86-.41a4,4,0,0,0-2.24-.82c-.72-.17-1.35-.39-1.23-1.33-.08-1.66.56-3.39-.46-5a.28.28,0,0,0-.13-.26c1.88-.71,3.88-.29,5.8-.56.23.74-.24,1.69.68,2.21,1.62.92,2.9.64,4.31-1a.89.89,0,0,0,.28,0l.4.35Zm-11.9,10.49c.17-.1.41-.07.34-.33s-.11-.35-.33-.22a2.11,2.11,0,0,0-.35.33Zm-.58-.41a2.2,2.2,0,0,0-.42-.33c-.06,0-.2,0-.25.11s0,.31.16.34S140.8,141.28,141,141.21Z"/><path class="cls-4" d="M122.38,131.11c.66-.36.79-1.39,1.75-1.38l.06,1.75c.06.84-.61,1.56-.38,2.42a2.82,2.82,0,0,1-.38,1.73c-.23,0-.46,0-.69,0-.87,0-1.95.08-2.17-.94a2,2,0,0,1,.85-2.32c.15-.08.18-.39.27-.6h0l.36-.36h0l.36-.36Z"/><path class="cls-4" d="M121,140.6c-1.32.1-2.49,0-2.24-1.81-.13-1.51.82-1.54,1.9-1.38.36.46.85.25,1.3.26C122.15,138.8,122.69,140.06,121,140.6Z"/><path class="cls-3" d="M147.85,127.75c-1.93.27-3.92-.15-5.8.56-.44-.29-1.4-.36-1.18-.93.33-.86,1.34-.86,2.2-.82.59,1.29,1.58,1.36,2.67.78a4.85,4.85,0,0,1,4-.15C149.16,127.64,148.44,127.47,147.85,127.75Z"/><path class="cls-5" d="M26.81,120.93a8.38,8.38,0,0,1-6.51-2c1.14-.44,2.05.52,3,.24Z"/><path class="cls-3" d="M137.21,140.64c-.25.36-.89.32-.94.89-.86,0-1.94.54-2.3-.81a1.1,1.1,0,0,1,.71-1.4C136.1,138.7,136.62,139.73,137.21,140.64Z"/><path class="cls-4" d="M120.63,131.79c-.27-.56.47-1.12,0-1.69.14-.85-.33-1.78.36-2.55,1.91.63,1.08,2.32,1.38,3.57h0l-.36.36h0l-.36.36h0Z"/><path class="cls-3" d="M138.86,115.67c1,0,2,.06,3,0,.61,0,.72.21.47.71-1.75-.4-2.24.64-2.39,2.08h0C137.83,118.18,139.24,116.6,138.86,115.67Z"/><path class="cls-3" d="M123.85,119.83c.79.57.57,1,.64,1.39.1.53-.44,1.66,1,.88.39-.21,1.06.48,1,1.13s-.66.51-1.09.51c-1.24,0-1.58-.88-1.57-1.85A6.76,6.76,0,0,0,123.85,119.83Z"/><path class="cls-4" d="M102.78,140.91c0,.56-1.08,1.11,0,1.71.38.21.16.83-.2.64-1.11-.62-.9.44-1.22.82l-1-.06c.61-1,.12-2.47,1.4-3.16Z"/><path class="cls-3" d="M137.52,125.54c1-.09,1.73.15,1.84.92s-.68.71-1.25.81a1.32,1.32,0,0,1-1.67-1.09C136.34,125.37,137.26,125.7,137.52,125.54Z"/><path class="cls-4" d="M142.18,128.57c1,1.57.38,3.3.46,5A4.75,4.75,0,0,1,142.18,128.57Z"/><path class="cls-4" d="M103.82,137.74l-.37-.69c1.12-.52,2.28-1.42,3.14.36l-.31.31Z"/><path class="cls-3" d="M139.18,134.17c0-.53,0-1.16.72-1.18a.88.88,0,0,1,1,1,1.19,1.19,0,0,1-1.16,1.27C139.06,135.24,139.24,134.59,139.18,134.17Z"/><path class="cls-3" d="M123.43,135.63a2.82,2.82,0,0,0,.38-1.73c1.33,0,1.49,2.18,2.58,1.61C125.74,135.36,124.61,136.22,123.43,135.63Z"/><path class="cls-4" d="M75.81,137.07a1.25,1.25,0,0,0,0,.28l-2.44.06a.92.92,0,0,1-.65-1C73.87,136.1,75,135.87,75.81,137.07Z"/><path class="cls-4" d="M98.94,137.06l-.38.4-2.44.3-.35-.7C96.83,136.4,97.88,136,98.94,137.06Z"/><path class="cls-3" d="M127.22,143.14a6,6,0,0,1-2.39-.52c0-1.36.89-1,1.68-.86S127.83,142.25,127.22,143.14Z"/><path class="cls-4" d="M95,136.74c-1.16,1.3-2.38,1.3-3.07,0C93,136.54,94,136.19,95,136.74Z"/><path class="cls-4" d="M60.43,136.71c-1.15.64-2.29-.25-3.43,0a1.85,1.85,0,0,1,0-.3l.35-.36C58.41,136,59.68,135.12,60.43,136.71Z"/><path class="cls-3" d="M106.28,137.71l.31-.31a1,1,0,0,1,1,1.36c-.13.59-.77.37-1.2.39s-1.16,0-2.08,0C105.18,138.65,106.34,138.91,106.28,137.71Z"/><path class="cls-4" d="M102.75,136.74c-.07.67-.31,1-1.09.83a13.57,13.57,0,0,0-2-.17c.39-1.27,1.44-1,2.37-1a.77.77,0,0,0,.71.34Z"/><path class="cls-4" d="M62.88,136.7c-.69-.8-1.37.92-2.07,0,1.18-1.34,2.41-1.34,3.44,0H62.88Z"/><path class="cls-4" d="M91.24,137c-1.14.84-2.24,1.33-3.13-.31A3.76,3.76,0,0,1,91.24,137Z"/><path class="cls-4" d="M55.87,136.71c-1,.77-1.5,2.36-3.2,2.09C53.65,138,54.09,136.33,55.87,136.71Z"/><path class="cls-4" d="M68.11,136.37c-.94,1.33-2.07.67-3.18.32A2.93,2.93,0,0,1,68.11,136.37Z"/><path class="cls-4" d="M110.78,137.09c0,.44-.21.63-.63.63a.79.79,0,0,0-.72-.31c-.23-.36-.46-.38-.7,0-.33-.07-1,.13-.81-.45a1.46,1.46,0,0,1,1.61-.67C110,136.36,110.37,136.81,110.78,137.09Z"/><path class="cls-4" d="M72,136.7c-1.11.38-2.25,1-3.17-.34C69.92,136.2,71,135.77,72,136.7Z"/><path class="cls-3" d="M124.19,131.48l-.06-1.75c.14-.69.63-1.08.92-.3S125.78,131.36,124.19,131.48Z"/><path class="cls-4" d="M83.48,137.4c-1-.37-2.31.79-3.07-.67C81.49,136.7,82.77,135.77,83.48,137.4Z"/><path class="cls-4" d="M114.69,137.06a1.66,1.66,0,0,1-2.81,0A3.54,3.54,0,0,1,114.69,137.06Z"/><path class="cls-4" d="M79.67,136.71v.7c-.82.2-1.64-.58-2.46,0l-.66-.67A3.92,3.92,0,0,1,79.67,136.71Z"/><path class="cls-4" d="M87.38,137.06c-1,.56-2.09.27-3.14.35C85.13,135.87,86.24,136.36,87.38,137.06Z"/><path class="cls-4" d="M117.47,139.52c-1.53.64-1.52-.55-1.74-1.47.92-.17,1.11.84,1.77,1.1v.35Z"/><path class="cls-3" d="M140,122.74c-.24-.34-.36-.42-.36-.52,0-.61,0-1.22-.06-1.83.16,0,.41,0,.46,0A2.49,2.49,0,0,1,140,122.74Z"/><path class="cls-1" d="M146.12,135.68c.66,0,1.76-.3,1.86.41.17,1.19-.78.4-1.26.37a4.54,4.54,0,0,1-.68-.14Z"/><path class="cls-3" d="M128.38,134.29H132A3.36,3.36,0,0,1,128.38,134.29Z"/><path class="cls-3" d="M136.65,130.22a1.38,1.38,0,0,1,.27.48c0,.3-.22.35-.46.33s-.37-.23-.37-.47S136.29,130.19,136.65,130.22Z"/><path class="cls-3" d="M135.38,134.51a2.29,2.29,0,0,1,1.7-.15C136.64,134.8,136.18,134.55,135.38,134.51Z"/><path class="cls-3" d="M135.28,130.41c-.19.13-.31.26-.43.27s-.45-.09-.37-.37c0-.1.26-.19.39-.19S135.09,130.28,135.28,130.41Z"/><path class="cls-3" d="M139.92,130.69c-.14-.17-.29-.27-.3-.38s.06-.37.16-.41c.26-.1.41.09.4.33S140,130.49,139.92,130.69Z"/><path class="cls-4" d="M106,142a1,1,0,0,1-1.33.28c-.3-.16.14-.21.27-.29Z"/><path class="cls-3" d="M108.73,137.4c.24-.38.47-.35.7,0C109.19,137.77,109,137.77,108.73,137.4Z"/><path class="cls-3" d="M122,137.66c-.45,0-.94.21-1.3-.26C121.1,137.45,121.59,137.23,122,137.66Z"/><path class="cls-3" d="M127.63,124.46c0,.25,0,.55-.42.53a.16.16,0,0,1-.11-.11c0-.38.28-.38.53-.42Z"/><path class="cls-3" d="M127.13,130.61c.09.05.2.08.25.16s0,.16-.07.24-.21-.07-.25-.14S127.1,130.7,127.13,130.61Z"/><path class="cls-3" d="M102.76,136.73a.77.77,0,0,1-.71-.34A.63.63,0,0,1,102.76,136.73Z"/><path class="cls-4" d="M106.65,141.25c0,.32-.08.62-.45.72C106.29,141.69,106.31,141.37,106.65,141.25Z"/><path class="cls-3" d="M139.89,118.51l.15.08-.15-.08Z"/><path class="cls-3" d="M127.63,124.46l.08-.15-.08.15Z"/><path class="cls-3" d="M138.81,113.32l.15.17-.15.06A1.2,1.2,0,0,0,138.81,113.32Z"/><path class="cls-3" d="M57.31,136l-.35.36Z"/><path class="cls-2" d="M69.44,138.83c3.55.11,7.1.25,10.66.3.81,0,1.2,1,2,.72l5.56.08c-3.39.58-6.8.19-10.2.2q-6.6,0-13.19.09c-.49,0-1.12.25-.91.77.6,1.47-.51,2.86-.05,4.28.15.47.14.82-.45.86s-1.1.16-1.47-.31.23-.57.45-.84a4.42,4.42,0,0,0-.81-6,4.79,4.79,0,0,1,1.87-.13c.05.16.09.46.16.47a20,20,0,0,0,6.2,0C69.37,139.3,69.39,139,69.44,138.83Z"/><path class="cls-2" d="M100.62,140.52c-2.29-.63-4.59-.28-6.88-.32-.38,0-.93.11-1-.44-.07-.73.58-.61,1-.58C96.11,139.31,98.61,138.57,100.62,140.52Z"/><path class="cls-2" d="M100.34,144l1,.06c.83.66,1.8.28,2.69.31,2.37.08,4.75-.16,7.09.44,0,0,.07.09.07.14s0,.1-.08.15h-1.37a38.42,38.42,0,0,0-7.38,0h-.33c-.31-.52-.68-.11-1-.08C100.23,145.11,100,144.75,100.34,144Z"/><path class="cls-2" d="M115,149.95l-.34-.65,2.07-1.42a3.36,3.36,0,0,0,2.18.35"/><path class="cls-4" d="M51.68,147.21a1.8,1.8,0,0,0,.39-1.72,1.62,1.62,0,0,1,.31-1.76c.4.55.79,1.12,1.21,1.66s.79,1.23.19,2-1.07,0-1.59-.14A3.5,3.5,0,0,0,51.68,147.21Z"/><path class="cls-4" d="M114,142.65c-.52,0-.73.29-.62.8.15.74-.3.67-.69.43a9.15,9.15,0,0,0-4.75-1.59.58.58,0,0,1-.5-.34h5.18C113.16,142,113.74,142,114,142.65Z"/><path class="cls-4" d="M87.71,139.93l-5.56-.08c1.31-.85,2.81-.19,4.23-.56,1.81-.47,3.74.23,5.65.07C90.66,140.2,89.13,139.68,87.71,139.93Z"/><path class="cls-4" d="M69.44,138.83c0,.16-.07.46-.14.47a20,20,0,0,1-6.2,0c-.08,0-.11-.31-.16-.47Z"/><path class="cls-2" d="M114,142.65c-.23-.68-.81-.69-1.38-.7.27-.2.73-.37.76-.6s-.43-.5-.75-.59c-.55-.15-1.12-.22-1.67-.32,1.7-.41,2.71-.26,3.29.65.71,1.11,1,2.29,0,3.5C113.65,144,114.84,143.18,114,142.65Z"/><path class="cls-4" d="M116.74,147.88l-2.07,1.42-1.59-.13a30.64,30.64,0,0,1,2.54-1.84C116.09,147.07,116.68,147.08,116.74,147.88Z"/><path class="cls-4" d="M111.84,149c.31,0,1,.07.89.59s-1,.87-1.64,1a.87.87,0,0,1-1-.9C110.25,148.94,111,148.94,111.84,149Z"/><path class="cls-4" d="M97.18,150c-1.06-.06-2.11.77-3.17,0l-.3-1.69C94.73,150,96.47,148.47,97.18,150Z"/><path class="cls-2" d="M95.2,146.69l-3.43.17c-.54,0-.73-.17-.57-.72s.37-.63.83-.24C92.87,146.6,94.08,145.72,95.2,146.69Z"/><path class="cls-2" d="M96.13,137.75l2.44-.3c0,.72-.14,1.27-1,1.34S96.2,138.68,96.13,137.75Z"/><path class="cls-2" d="M77.22,137.39c.83-.56,1.64.23,2.46,0,0,.71-.23,1.07-1,1.06S77.29,138.31,77.22,137.39Z"/><path class="cls-4" d="M102.08,145.13h.33c.25,1.29,1.67.19,2.12,1a1.91,1.91,0,0,0-.34,0c-1.29.2-2.75-.62-3.85.67-.34-.86-1.1-.67-1.77-.7.63-.64,1.43-.27,2.15-.36C101.27,145.74,102,146,102.08,145.13Z"/><path class="cls-2" d="M62.88,136.7h1.39a3.18,3.18,0,0,1,0,.85c-.28.87-1.11.71-1.56.49C61.72,137.55,62.88,137.17,62.88,136.7Z"/><path class="cls-2" d="M110.83,146.18c-1,1.34-2.15.47-3.26.37.67-.59,1.49-.29,2.23-.4Z"/><path class="cls-2" d="M73.38,137.41l2.44-.06c0,.78-.44,1.1-1.19,1.11S73.43,138.2,73.38,137.41Z"/><path class="cls-2" d="M67.3,146.14a3,3,0,0,1,3,.16A4,4,0,0,1,67.3,146.14Z"/><path class="cls-2" d="M76.33,146.37H73.38C73.83,146,73.83,146,76.33,146.37Z"/><path class="cls-2" d="M98.58,146.16c.67,0,1.43-.16,1.77.7H97.43C97.63,146,98.17,146.23,98.58,146.16Z"/><path class="cls-2" d="M65.36,145.22a.68.68,0,0,1,.6.74c0,.58-.51.54-.9.53s-.77,0-.58-.56A1,1,0,0,1,65.36,145.22Z"/><path class="cls-2" d="M104.2,146.18a1.91,1.91,0,0,1,.34,0c.68.63,1.54-.53,2.21.23C105.62,147.11,105,147.06,104.2,146.18Z"/><path class="cls-4" d="M105.22,150l-1,.09-1.09-.84A1.48,1.48,0,0,1,105.22,150Z"/><path class="cls-4" d="M91.59,150l-.36,0c-.33-.51-1.13-.24-1.44-1C90.61,149.05,91.62,148.53,91.59,150Z"/><path class="cls-4" d="M73,149.94h-.25c-.17-.39-.78-.6-.54-1.14,0-.11.44-.17.61-.1C73.48,149,73.34,149.47,73,149.94Z"/><path class="cls-4" d="M110.83,146.18l-1,0v-1h1.37Z"/><path class="cls-4" d="M99.77,143.44a.44.44,0,0,1-.41.49c-.28,0-.39-.21-.41-.45s-.09-.52.21-.55S99.65,143.2,99.77,143.44Z"/><path class="cls-4" d="M71.25,148.78c0,.25-.15.44-.43.4s-.43-.22-.35-.48a.55.55,0,0,1,.36-.32C71.09,148.33,71.22,148.52,71.25,148.78Z"/><path class="cls-4" d="M117.49,139.5c.47.42.43.84.06,1.34-.59-.51,0-.91-.08-1.32Z"/><path class="cls-4" d="M112.16,145.83c.29,0,.55,0,.58.31,0,.07-.24.25-.31.23a2.66,2.66,0,0,1-.56-.33Z"/><path class="cls-4" d="M101.29,148.76c.1,0,.24.06.27.13a.2.2,0,0,1-.38.15C101.16,149,101.25,148.85,101.29,148.76Z"/><path class="cls-2" d="M52.38,143l.08-.15-.08.14Z"/><path class="cls-2" d="M16.87,115.33c-1.35-1-3.26-.74-4.84-1.6a1.3,1.3,0,0,1-.5-1.81c.26-.65.77,0,1.18,0,1.8.06,3.37.93,5.09,1.31.46.1,1.35-.33,1.11.75-.13.58,0,1.55-1.16,1.13C17.56,115.07,17.3,115.23,16.87,115.33Z"/><path class="cls-2" d="M23.42,117.82c-.14.07-.29.2-.43.19a.21.21,0,0,1-.15-.35.8.8,0,0,1,.46-.14S23.37,117.69,23.42,117.82Z"/><path class="cls-2" d="M28.58,113.26l-.09.15.08-.16Z"/><path class="cls-3" d="M149.75,136.71c-.08-.21-.17-.42-.24-.63a4.5,4.5,0,0,0-1.53-1.46c-.4-.14-1.07-.08-1-.7s.76-.65,1.22-.47c1.26.49,2.44-.63,3.68-.09l-.75.8,1.51.33c1.81.39,3.61.85,5.44,1.14.6.09,1.88.5,1-1.18-.7-1.32.58-.46,1-.56l.16.07q0,1.22,0,2.43c-.5,1-2.6.49-2.16,2.34-2-.59-1.22.74-1.13,1.6l-.53.92c-.1-.06-.2-.11-.3-.18-.74-.53.38-1.87-.69-2-.79-.12-.69,1.41-1.62,1.56A1.14,1.14,0,0,1,154,139c.93-.9.34-1.19-.55-1.39C152.21,137.29,151,137,149.75,136.71Zm1.87-1.27c1.16.87,2.38,1.45,3.81.71Z"/><path class="cls-4" d="M174.92,141.17l-1,1.53c-.16-.42-.37-1.09-.71-.17-.43,1.16-.76.21-1.14,0l0-1-.38-1.42q0-.16,0-.32c.48-.18,1.15.18,1.52-.62l-1.23.06c-.71-.12-.7-.66-.72-1.19l.44,0,.14.07-.15-.06a.61.61,0,0,0-.7-.69c-.52.37-.69,1.4-1.68.9-.13-.61.79-.64.67-1.23.4,0,.83,0,1.08-.43a2.2,2.2,0,0,0,1.59-1.37,1.21,1.21,0,0,1,2.17-.28c.41.54,1,.74,1.36,1.22-2.49,0-2.49,0-2.26,2.59.05.57.08,1.15.14,1.72A.63.63,0,0,0,174.92,141.17Z"/><path class="cls-5" d="M149.75,136.71c1.23.28,2.46.58,3.69.85.89.2,1.48.49.55,1.39a1.14,1.14,0,0,0-.26,1.65c0,1.67-.3,1.85-2.42,1.26.52-1.25-.74-1.78-1.08-2.68C149,138.57,150.43,137.44,149.75,136.71Z"/><path class="cls-3" d="M147.57,142.8l.46-.13c2.17-.14,4.15.85,6.27,1.09.86.1,1,1,.88,1.64-.1.84-.82.81-1.5.64a45.49,45.49,0,0,0-4.51-1.13C147.82,144.7,147.41,144,147.57,142.8Z"/><path class="cls-4" d="M156.34,141.25l.53-.92c1,.22,1.17-.06,1.13-1.6-.44-1.85,1.66-1.36,2.16-2.34-.23,1.24-.09,2.55-1.16,3.59-.3.3.07,1.28.13,1.95a.8.8,0,0,1-.72.34h-.23a1.54,1.54,0,0,0-1.48-.66l-.36-.35Z"/><path class="cls-3" d="M152.48,148.63a3.1,3.1,0,0,1-.51,0c-.82-.13-1.93.44-2.4-.34-.55-.94,1.16-.9,1.17-1.77C153,146.54,153,146.54,152.48,148.63Z"/><path class="cls-3" d="M156.49,148.09c2.63-.69.71-3.06,1.87-4.26C159,148,158.8,148.62,156.49,148.09Z"/><path class="cls-4" d="M160.9,142c-.37-1.76,1.23-1.58,2.11-2.09.6,1.25-1,1.36-1.2,2.22C161.48,142.25,161.16,142.34,160.9,142Z"/><path class="cls-4" d="M167.38,148.85c.11-.24.12-.33.16-.34a3.67,3.67,0,0,1,3.29.18.51.51,0,0,1,0,.43C169.66,149.62,168.58,149.07,167.38,148.85Z"/><path class="cls-1" d="M172.07,141.59l0,1c-.63.29-.49,1.08-1,1.48s-.64.2-.66-.32a2.86,2.86,0,0,0-.06-2.45Z"/><path class="cls-1" d="M168.15,147.22c-.37-.08-.94,0-.88-.57s.25-1.31.82-1.41.71.62.78,1.12S168.82,147.29,168.15,147.22Z"/><path class="cls-3" d="M150.23,139.18c.34.9,1.6,1.43,1.08,2.68-.58.07-1.18.29-1.66-.27Z"/><path class="cls-3" d="M172.07,141.59l-1.73-.31-.37-.09c.5-.46,0-2.64,1.72-1Z"/><path class="cls-3" d="M156.5,143.32l-2.59-.49C155.71,141.55,155.71,141.55,156.5,143.32Z"/><path class="cls-4" d="M170,141.19l.37.09a2.86,2.86,0,0,1,.06,2.45c-.11-.31-.15-.67-.52-.82C168.92,142.5,168.94,142.16,170,141.19Z"/><path class="cls-4" d="M175.67,148c-.86,0-1.73,0-2.59,0a5,5,0,0,1-.88-.19C173.21,147,174,147,175.67,148Z"/><path class="cls-3" d="M171.1,136.67c-.24.44-.67.39-1.08.43l-.36-.8C170.24,136,170.81,135.81,171.1,136.67Z"/><path class="cls-3" d="M159.34,147.44a1.32,1.32,0,0,1,.19-1.62A1.12,1.12,0,0,1,159.34,147.44Z"/><path class="cls-3" d="M172,139.28l1.23-.06c-.37.8-1,.45-1.52.62Z"/><path class="cls-3" d="M158.18,142.27h.23c-.07.19-.14.39-.22.57,0,0-.24,0-.27-.08C157.8,142.5,158,142.37,158.18,142.27Z"/><path class="cls-3" d="M171,137.42a.61.61,0,0,1,.7.69h0l-.44,0Z"/><path class="cls-4" d="M173.89,142.68l-.28,1.12C173.51,143.38,173.37,142.95,173.89,142.68Z"/><path class="cls-3" d="M156.34,141.25l.36.35Z"/><path class="cls-4" d="M162,142.21c.3.19.29.34-.06.44Z"/><path class="cls-3" d="M159.81,143.34l.18-.12-.13.18Z"/><path class="cls-3" d="M159.87,143.39l-.18.13.13-.18Z"/><path class="cls-1" d="M147.85,127.75c.59-.28,1.31-.1,1.84-.56l.69,0,.71.08c.9.29.8,1.55,1.75,1.79-1.4,1.59-2.69,1.87-4.31,1C147.61,129.43,148.07,128.49,147.85,127.75Z"/><path class="cls-3" d="M145.94,110.57c-.06.92,1.28,2,0,2.52-1.46.64-1.84-.55-1.74-1.67C144.2,111.2,145.48,111.39,145.94,110.57Z"/><path class="cls-3" d="M150.69,117.48c-.64.46-1.18.22-1.79.31C149.37,116.82,149.88,116.57,150.69,117.48Z"/><path class="cls-3" d="M143.24,113.43a.7.7,0,0,1,.46.71c0,.18-.13.38-.31.24a1.9,1.9,0,0,1-.47-.65S143.13,113.53,143.24,113.43Z"/><path class="cls-3" d="M144.59,114.74l.12-.27c.09,0,.23.06.26.13s-.06.18-.1.27Z"/><path class="cls-3" d="M151.09,127.22l-.71-.08C150.71,126.3,150.87,127,151.09,127.22Z"/><path class="cls-3" d="M153.19,128.31l.76-.3C153.81,128.4,153.7,128.87,153.19,128.31Z"/><path class="cls-3" d="M154.6,127.93l.24-.09c.11.25,0,.37-.24.46Z"/><path class="cls-3" d="M153.53,129.39l-.4-.35.42,0Z"/><path class="cls-5" d="M174.92,141.17a.63.63,0,0,1-.82-.62c-.06-.57-.09-1.15-.14-1.72-.23-2.55-.23-2.55,2.26-2.59a24.73,24.73,0,0,0,0,3.07A1.44,1.44,0,0,1,174.92,141.17Z"/><path class="cls-3" d="M174.3,134c.56-2.7,1.64-4.78,1.67-7.13,0-.52.65-.48,1-.44.5.05.3.56.24.82-.5,2.2-1.38,4.31-1.6,6.58-.05.53-.43.65-.89.54S174.33,133.84,174.3,134Z"/><path class="cls-1" d="M168.25,135l-.08-.35.12-.81c1,0,1.93.71,3,.39.31.1.88.2.89.32,0,.64-.53.4-.86.42C170.29,135,169.27,135,168.25,135Z"/><path class="cls-3" d="M176,122.81a2.3,2.3,0,0,1,1.13-2c.5.6,0,1.35.47,1.86C176.8,123.54,176.72,123.54,176,122.81Z"/><path class="cls-4" d="M131.83,109.76l.15.14s-.07,0-.09,0a.47.47,0,0,1-.06-.12Z"/><path class="cls-3" d="M142.21,145.25a1.32,1.32,0,0,1-.12-.41c0-.18.12-.37.32-.27a.53.53,0,0,1,.19.41C142.6,145.16,142.51,145.34,142.21,145.25Z"/><path class="cls-4" d="M154.6,124l7.08,1.48-.11.54c-2.41-.17-4.7-1-7.06-1.47Z"/><path class="cls-3" d="M155.37,126.16l5.95,1.31-.11.52A14.48,14.48,0,0,1,155.37,126.16Z"/><path class="cls-4" d="M161.26,123.39a.81.81,0,0,1,1.38.07Z"/><path class="cls-5" d="M159.16,122.7c0-.54.42-.39.72-.36s.47.23.31.57Z"/><path class="cls-4" d="M163.37,123.74c.35-.44.69-.38,1,0Z"/><path class="cls-4" d="M65.4,104.45l-5.38,0a3.77,3.77,0,0,0-2.6-1.17c-.42-.08-1-.29-.76-.92s.68-.36,1.06-.26q3.77,1,7.54,2C65.33,104.16,65.36,104.34,65.4,104.45Z"/><path class="cls-1" d="M179.31,121.2l.05.13-.2,0a.36.36,0,0,1,0-.14S179.27,121.21,179.31,121.2Z"/><path class="cls-3" d="M50.45,143.66c-.77.15-.88,2.2-2.21.75-.26-.28-.88-.44-.53-.86C48.53,142.54,49.49,143.38,50.45,143.66Z"/><path class="cls-3" d="M44.7,146.49c.33.31.46.65,0,1a.47.47,0,0,1-.45,0c-.43-.53.36-.54.4-.89Z"/><path class="cls-3" d="M44.66,146.52c-.26-.12-.25-.25,0-.39l.07.06c0,.1,0,.2,0,.3Z"/><path class="cls-2" d="M160,133.88c-.4.1-1.68-.76-1,.56.89,1.68-.4,1.28-1,1.18-1.83-.29-3.63-.74-5.44-1.14l-1.51-.33.75-.8a1.4,1.4,0,0,0,1.32-1.23c2.23,0,4.32.8,6.49,1.11C160,133.28,160.11,133.55,160,133.88Z"/><path class="cls-2" d="M166.78,133.54c-.23,0-.46,0-.59-.25l1,.1Z"/><path class="cls-3" d="M44.47,123l1.35-.12a5.66,5.66,0,0,0,2.74.17c1.5.07,3,.18,4.5.2,3.07,0,6.08,1.06,9.18.64l9.8,1.33,7.9,1.28c2.08,0,4,.94,6,1.21,3.35.45,6.73.77,9.92,2a4.44,4.44,0,0,1,.58.33c-1.55.38-3-.3-4.48-.49-6.7-.86-13.39-1.76-20.11-2.39-6.23-.59-12.46-1.07-18.7-1.58a5.37,5.37,0,0,0-.86.07c-.29-.45.14-1.6-.56-1.37-1,.32-2.38-.53-3,.87-.08-.18-.16-.36-.34-.07-.61-.1-1.33.26-1.74-.61-.2-.41-.79-.28-1.07,0-.69.73-.85-.15-1.23-.34A1.34,1.34,0,0,1,44.47,123Z"/><path class="cls-5" d="M62.23,123.88c-3.1.42-6.11-.62-9.18-.64-1.5,0-3-.13-4.5-.2.07-.52.48-.39.8-.4,4.05-.08,8,.87,12.08.92A2.51,2.51,0,0,1,62.23,123.88Z"/><path class="cls-5" d="M79.93,126.49,72,125.21A21.39,21.39,0,0,1,79.93,126.49Z"/><path class="cls-5" d="M48.71,125.18c.66-1.39,2-.54,3-.87.7-.23.27.92.56,1.37v0c-.8,2.3-2.51,1-3.89,1,1-.38,1-.38.27-1.14C48.64,125.45,48.7,125.29,48.71,125.18Z"/><path class="cls-1" d="M48.71,125.18c0,.11-.06.27,0,.33.76.76.76.76-.27,1.14l-.15,0-.14-.08c-.59-.61.13-1,.24-1.5C48.54,124.81,48.62,125,48.71,125.18Z"/><path class="cls-1" d="M44.69,111.14a.65.65,0,0,1-.38.74C44.37,111.6,44.1,111.15,44.69,111.14Z"/><path class="cls-4" d="M43.62,122.79h.46C43.92,123,43.77,123,43.62,122.79Z"/><path class="cls-3" d="M141.62,141.62l-.34-.23a2.11,2.11,0,0,1,.35-.33c.22-.13.29.06.33.22S141.79,141.52,141.62,141.62Z"/><path class="cls-3" d="M141,141.21c-.24.07-.39.16-.5.13s-.31-.15-.16-.34.19-.14.25-.11A2.2,2.2,0,0,1,141,141.21Z"/><path class="cls-2" d="M121.68,131.81l.36-.36Z"/><path class="cls-2" d="M122,131.46l.36-.36Z"/><path class="cls-5" d="M158,138.72c0,1.54-.16,1.83-1.13,1.6C156.78,139.47,156,138.14,158,138.72Z"/><path class="cls-4" d="M151.62,135.45l3.81.71C154,136.89,152.78,136.32,151.62,135.45Z"/><path class="cls-3" d="M171.74,138.11l.15.06-.14-.07Z"/></svg>