<svg id="Layer_1" data-name="Layer 1" xmlns="http://www.w3.org/2000/svg" viewBox="0 0 40 40"><defs><style>.cls-1{fill:#424142;}.cls-2{fill:#f8bc18;}.cls-3{fill:#333;}</style></defs><title>Artboard 6 copy 2</title><path class="cls-1" d="M17.21,19l.92-.43a32.34,32.34,0,0,1-3.39.27.22.22,0,0,0,.06-.15h0a.22.22,0,0,0-.22-.22h-.5l-.09,0h0a.21.21,0,0,0-.21.21h0a.21.21,0,0,0,.07.16.21.21,0,0,0-.07.16h0a.21.21,0,0,0,.07.16.21.21,0,0,0-.07.16h0a.21.21,0,0,0,0,.07l-.21.14h1a.22.22,0,0,0,.22-.22h0a.22.22,0,0,0-.07-.16l0,0C15.26,19.1,16.12,19.07,17.21,19Z"/><path class="cls-1" d="M32.56,15.69h-.71a.31.31,0,0,0-.31.31h0a.31.31,0,0,0,.1.23.31.31,0,0,0-.1.23h0a.31.31,0,0,0,.1.23.31.31,0,0,0-.1.23h0a.31.31,0,0,0,0,.09A21.77,21.77,0,0,1,28,18.92v.36a22.19,22.19,0,0,0,3.82-2h.75a.31.31,0,0,0,.31-.31h0a.31.31,0,0,0-.1-.23.31.31,0,0,0,.1-.23h0a.31.31,0,0,0-.1-.23.31.31,0,0,0,.1-.23h0A.31.31,0,0,0,32.56,15.69Z"/><path class="cls-2" d="M11.68,21.32c-.6.1-1.14.18-1.64.22l.19.16v4.94l-.17.3v5.26h1.39V27l-.17-.3V21.7l.46-.39Zm-.93,9.76A.28.28,0,1,1,11,30.8.28.28,0,0,1,10.76,31.08Zm0-1.78A.28.28,0,1,1,11,29,.28.28,0,0,1,10.76,29.3Z"/><path class="cls-1" d="M31.71,14l0,0,.12,0h.71a.31.31,0,0,0,.31-.31h0a.31.31,0,0,0-.1-.23.31.31,0,0,0,.1-.23h0a.31.31,0,0,0-.1-.23.31.31,0,0,0,.1-.23h0a.31.31,0,0,0-.31-.31h-.71a.31.31,0,0,0-.31.31h0a.31.31,0,0,0,.1.23.31.31,0,0,0-.1.23h0a.31.31,0,0,0,.1.23.31.31,0,0,0-.1.23h0v0l-.42.28Z"/><path class="cls-1" d="M20.07,18.21l-.85.48,1.1-.19a34.16,34.16,0,0,0,5.61-1.57l-.29-.24a34,34,0,0,1-5.37,1.49Z"/><path class="cls-3" d="M28.25,15.94l.43-.37h-.42l-.26.12v.36Z"/><path class="cls-2" d="M27.84,14.11v-1.3l-.74-.65-.74.65v1.3H21v1.29h3.39l1.94,1.66v7l-.25.43V32h2V24.54l-.25-.43v-7l1.94-1.66h3.39V14.11Zm-2.76,1.29h1.28v1.1Zm2,15a.39.39,0,1,1,.39-.39A.39.39,0,0,1,27.1,30.42Zm0-2.54a.39.39,0,1,1,.39-.39A.39.39,0,0,1,27.1,27.88Zm.74-11.38v-1.1h1.28Z"/><path class="cls-1" d="M26.19,19.94V19.6a29.74,29.74,0,0,1-5.89,1.29,32,32,0,0,1-5.51.17.22.22,0,0,0,0-.09h0a.22.22,0,0,0-.22-.22H14a.21.21,0,0,0-.21.21h0a.21.21,0,0,0,.07.16.21.21,0,0,0-.07.16h0a.21.21,0,0,0,.07.16.21.21,0,0,0-.07.16h0a.21.21,0,0,0,0,.13.37.37,0,0,0,.25.11h.52a.22.22,0,0,0,.22-.22h0a.22.22,0,0,0-.07-.16.22.22,0,0,0,.05-.07c.39,0,1,0,1.7,0a33.55,33.55,0,0,0,3.83-.22A30,30,0,0,0,26.17,20Z"/><path class="cls-2" d="M9.4,21l.43,0-.49-.42h.9v.38l1-.14v-.24h.9l-.11.09a23.6,23.6,0,0,0,3-.8v-.2H11.28v-.91l-.06,0-1,.23v.73H6.49v.91H8.87Z"/><path class="cls-1" d="M11.66,21.18a24.23,24.23,0,0,0,4.74-1.35,26.77,26.77,0,0,0,5-2.65.31.31,0,0,0,.21.08h.71a.31.31,0,0,0,.31-.31h0a.31.31,0,0,0-.1-.23.31.31,0,0,0,.1-.23h0a.31.31,0,0,0-.1-.23.31.31,0,0,0,.1-.23h0a.31.31,0,0,0-.31-.31h-.71a.31.31,0,0,0-.31.31h0a.31.31,0,0,0,.1.23.31.31,0,0,0-.1.23h0a.31.31,0,0,0,.1.23.31.31,0,0,0-.09.13,25.28,25.28,0,0,1-9.71,4,18.67,18.67,0,0,1-4,.3l0,0A.22.22,0,0,0,7.63,21h0a.22.22,0,0,0,0-.13.21.21,0,0,0-.18-.1H6.92a.21.21,0,0,0-.21.18.22.22,0,0,0,0,0h0a.22.22,0,0,0,.06.15.21.21,0,0,0-.06.13.22.22,0,0,0,0,0h0a.22.22,0,0,0,.06.15.21.21,0,0,0-.06.11.26.26,0,0,0,.07.23.22.22,0,0,0,.15.06h.5a.22.22,0,0,0,.22-.22h0a.22.22,0,0,0,0-.1l0,0h.64A20,20,0,0,0,11.66,21.18Z"/><path class="cls-1" d="M6.77,19.14h0c-.05,0-.06.12,0,.19a.21.21,0,0,0,.13.18H7.4a.21.21,0,0,0,.11,0,.22.22,0,0,0,.12-.19h0a.22.22,0,0,0,0-.08,21.85,21.85,0,0,0,4-.75,29.94,29.94,0,0,0,4.77-1.77,33.74,33.74,0,0,0,5-2.87.31.31,0,0,0,.24.12h.71a.31.31,0,0,0,.31-.31h0a.31.31,0,0,0-.1-.23.31.31,0,0,0,.1-.23h0a.31.31,0,0,0-.1-.23.31.31,0,0,0,.1-.23h0a.31.31,0,0,0-.31-.31h-.71a.31.31,0,0,0-.31.31h0a.31.31,0,0,0,.1.23.31.31,0,0,0-.1.23h0a.31.31,0,0,0,.1.23h0a31.73,31.73,0,0,1-9.82,4.73,21.86,21.86,0,0,1-4,.74.22.22,0,0,0-.06-.08l0,0a.22.22,0,0,0,0-.13h0a.22.22,0,0,0-.22-.22h-.5a.22.22,0,0,0-.22.22h0a.22.22,0,0,0,0,0,.21.21,0,0,0,.06.12A.22.22,0,0,0,6.7,19h0a.22.22,0,0,0,0,.06A.21.21,0,0,0,6.77,19.14Z"/></svg>