<svg id="Layer_1" data-name="Layer 1" xmlns="http://www.w3.org/2000/svg" viewBox="0 0 100 66"><defs><style>.cls-1{fill:#424142;}.cls-2{fill:#f8bc18;}.cls-3{fill:#333;}</style></defs><title>Artboard 1 copy 2</title><path class="cls-1" d="M44.87,27.58q1-.43,2-.93a68.92,68.92,0,0,1-7.22.58.46.46,0,0,0,.13-.32h0a.46.46,0,0,0-.46-.46H38.23a.46.46,0,0,0-.2,0h0a.46.46,0,0,0-.46.46h0a.45.45,0,0,0,.15.34.45.45,0,0,0-.15.34h0a.45.45,0,0,0,.15.34.45.45,0,0,0-.15.34h0a.45.45,0,0,0,0,.15l-.44.29h2.15a.46.46,0,0,0,.46-.46h0A.46.46,0,0,0,39.6,28l0,0C40.71,27.9,42.53,27.82,44.87,27.58Z"/><path class="cls-1" d="M77.57,20.63h-1.5a.66.66,0,0,0-.66.66h0a.66.66,0,0,0,.22.49.66.66,0,0,0-.22.49h0a.66.66,0,0,0,.22.49.66.66,0,0,0-.22.49h0a.66.66,0,0,0,0,.19,46.38,46.38,0,0,1-7.59,4v.76A47.28,47.28,0,0,0,76,24h1.59a.66.66,0,0,0,.66-.66h0A.66.66,0,0,0,78,22.8a.66.66,0,0,0,.22-.49h0A.66.66,0,0,0,78,21.8a.66.66,0,0,0,.22-.49h0A.66.66,0,0,0,77.57,20.63Z"/><path class="cls-2" d="M33.09,32.62c-1.27.22-2.44.38-3.49.48l.4.34V44l-.37.64v11.2h3V44.62L32.22,44V33.44l1-.84Zm-2,20.8a.59.59,0,1,1,.59-.59A.59.59,0,0,1,31.11,53.42Zm0-3.8A.59.59,0,1,1,31.7,49,.59.59,0,0,1,31.11,49.62Z"/><path class="cls-1" d="M75.76,16.92l.06,0a.66.66,0,0,0,.25,0h1.5a.66.66,0,0,0,.66-.66h0a.66.66,0,0,0-.22-.49.66.66,0,0,0,.22-.49h0a.66.66,0,0,0-.22-.49.66.66,0,0,0,.22-.49h0a.66.66,0,0,0-.66-.66h-1.5a.66.66,0,0,0-.66.66h0a.66.66,0,0,0,.22.49.66.66,0,0,0-.22.49h0a.66.66,0,0,0,.22.49.66.66,0,0,0-.22.49h0s0,0,0,.05l-.9.6Z"/><path class="cls-1" d="M51,26q-.89.52-1.8,1,1.13-.18,2.34-.41a72.8,72.8,0,0,0,11.95-3.34l-.61-.52a72.49,72.49,0,0,1-11.45,3.18Z"/><path class="cls-3" d="M68.38,21.15l.92-.79H68.4l-.56.27v.77Z"/><path class="cls-2" d="M67.5,17.27V14.49l-1.58-1.38-1.58,1.38v2.78H53V20H60.2l4.14,3.55v15l-.52.92V55.44H68V39.49l-.52-.92v-15L71.64,20h7.23V17.27ZM61.61,20h2.73v2.34Zm4.31,32a.84.84,0,1,1,.84-.84A.84.84,0,0,1,65.93,52Zm0-5.41a.84.84,0,1,1,.84-.84A.84.84,0,0,1,65.93,46.61ZM67.5,22.35V20h2.73Z"/><path class="cls-1" d="M64,29.69v-.74a63.37,63.37,0,0,1-12.56,2.74A68.16,68.16,0,0,1,39.71,32a.46.46,0,0,0,0-.2h0a.46.46,0,0,0-.46-.46h-.08a.45.45,0,0,0-.16,0H38a.46.46,0,0,0-.46.46h0a.45.45,0,0,0,.15.34.45.45,0,0,0-.15.34h0a.45.45,0,0,0,.15.34.45.45,0,0,0-.15.34h0a.45.45,0,0,0,.1.28.78.78,0,0,0,.52.24h1.12a.46.46,0,0,0,.46-.46h0a.46.46,0,0,0-.16-.35.47.47,0,0,0,.12-.16c.84.05,2.08.1,3.63.1a71.49,71.49,0,0,0,8.16-.47A63.92,63.92,0,0,0,63.94,29.7Z"/><path class="cls-2" d="M28.21,31.91l.91-.07-1-.89H30v.8c.69-.08,1.44-.17,2.22-.3v-.5h1.92l-.23.2a50.28,50.28,0,0,0,6.3-1.7V29h-8V27.07L32.1,27q-1.11.28-2.1.49V29H22v1.93h5.08Z"/><path class="cls-1" d="M33,32.32a51.63,51.63,0,0,0,10.11-2.88,57,57,0,0,0,10.69-5.65.66.66,0,0,0,.44.17h1.5a.66.66,0,0,0,.66-.66h0a.66.66,0,0,0-.22-.49.66.66,0,0,0,.22-.49h0a.66.66,0,0,0-.22-.49.66.66,0,0,0,.22-.49h0a.66.66,0,0,0-.66-.66h-1.5a.66.66,0,0,0-.66.66h0a.66.66,0,0,0,.22.49.66.66,0,0,0-.22.49h0a.66.66,0,0,0,.22.49.66.66,0,0,0-.19.29,53.88,53.88,0,0,1-20.7,8.55,39.78,39.78,0,0,1-8.59.64l-.06-.08a.46.46,0,0,0,.15-.34h0a.46.46,0,0,0-.09-.28.46.46,0,0,0-.39-.22h-1a.46.46,0,0,0-.45.39.46.46,0,0,0,0,.1h0a.46.46,0,0,0,.14.33.45.45,0,0,0-.13.28.46.46,0,0,0,0,.09h0a.46.46,0,0,0,.13.32.45.45,0,0,0-.12.23.56.56,0,0,0,.14.49.46.46,0,0,0,.31.12H24a.46.46,0,0,0,.46-.46h0a.46.46,0,0,0,0-.2l0-.08c.36,0,.82,0,1.37,0A42.66,42.66,0,0,0,33,32.32Z"/><path class="cls-1" d="M22.61,28h0c-.11.07-.12.26-.1.41a.45.45,0,0,0,.27.38.38.38,0,0,0,.15,0h1a.45.45,0,0,0,.22-.06.46.46,0,0,0,.26-.41h0a.46.46,0,0,0,0-.17A46.56,46.56,0,0,0,33,26.54,63.81,63.81,0,0,0,43.2,22.78a71.89,71.89,0,0,0,10.55-6.11.66.66,0,0,0,.52.26h1.5a.66.66,0,0,0,.66-.66h0a.66.66,0,0,0-.22-.49.66.66,0,0,0,.22-.49h0a.66.66,0,0,0-.22-.49.66.66,0,0,0,.22-.49h0a.66.66,0,0,0-.66-.66h-1.5a.66.66,0,0,0-.66.66h0a.66.66,0,0,0,.22.49.66.66,0,0,0-.22.49h0a.66.66,0,0,0,.22.49l0,0A67.62,67.62,0,0,1,32.88,25.87a46.58,46.58,0,0,1-8.47,1.57.47.47,0,0,0-.12-.18l.06-.08a.46.46,0,0,0,.09-.27h0a.46.46,0,0,0-.46-.46H22.92a.46.46,0,0,0-.46.46h0a.46.46,0,0,0,0,.1.45.45,0,0,0,.13.26.46.46,0,0,0-.14.33h0a.46.46,0,0,0,0,.12A.46.46,0,0,0,22.61,28Z"/></svg>